<svg width="158" height="114" viewBox="0 0 158 114" fill="none" xmlns="http://www.w3.org/2000/svg">
<g clip-path="url(#clip0_49_578)">
<path d="M75.3499 92.97C75.8099 93.5 77.0499 93.21 75.8799 92.04C75.8799 92.04 74.8899 92.43 75.3499 92.97Z" fill="#999999"/>
<path d="M77.9901 91.2799C78.3301 90.7899 77.3401 90.2499 77.3401 90.2499C77.3401 90.2499 76.7601 90.0999 76.6701 90.7499C76.5801 91.3999 77.6601 91.7599 78.0001 91.2699L77.9901 91.2799Z" fill="#999999"/>
<path d="M78.9699 91.48C78.9699 91.48 78.4799 92.08 77.9399 92.13C77.3999 92.19 76.6899 92.02 77.0799 93.01C77.4699 94 78.3499 92.99 78.3499 92.99C78.3499 92.99 80.2899 92.53 78.9699 91.48Z" fill="#999999"/>
<path d="M81.0401 90.51C81.0401 90.51 79.3301 90.3299 80.0801 91.6399C80.0801 91.6399 80.5801 91.9099 81.0401 92.3799C81.5101 92.8499 82.6801 93.02 82.7901 92.3C82.8901 91.58 82.6101 90.74 81.0401 90.51Z" fill="#999999"/>
<path d="M99.5199 88.36C98.5199 88.35 98.5499 90.02 98.3399 90.06C98.1299 90.1 97.2099 90.03 97.2099 90.03C97.2099 90.03 95.6899 90.81 96.9199 92.06C98.1399 93.3 98.4699 90.55 99.1099 90.77C99.7499 91 99.7199 91.66 99.2899 91.86C98.8599 92.07 98.0199 92.81 98.8499 93.07C99.6799 93.32 101.69 93.75 101.67 92.54C101.64 91.33 100.73 91.2 100.73 91.2C100.73 91.2 99.8099 90.13 100.48 89.23C100.48 89.23 100.54 88.37 99.5399 88.36H99.5199Z" fill="#999999"/>
<path d="M101.33 78.66C101.33 78.66 100.8 78.31 99.89 77.77C101.11 77.93 102.35 78.02 103.57 77.99C104.14 77.98 104.62 77.47 104.94 77C105.23 76.58 105.32 76.07 105.34 75.56C106.01 75.45 106.68 75.37 107.34 75.23C107.83 75.19 108.07 74.97 108.44 75.15C108.98 75.4 109.14 76.13 108.97 76.69C108.8 77.26 108.39 77.72 108.02 78.18C107.65 78.64 107.3 79.18 107.3 79.77C107.3 80.11 107.41 80.43 107.58 80.73C107.6 80.69 107.63 80.66 107.67 80.64C109.33 80 110.43 78.48 110.62 76.72C110.72 75.78 110.76 74.82 110.83 73.88C110.9 72.85 110.94 71.83 110.61 70.84C110.42 70.89 110.25 70.99 110.09 71.09C108.6 72.05 109.18 72.52 107.42 72.71L106.85 71.98C106.72 72.15 106.66 72.37 106.62 72.61C106.6 72.61 106.59 72.59 106.58 72.59C106.14 72.59 105.7 72.55 105.26 72.52C105.25 72.16 105.23 71.81 105.22 71.45C105.43 71.54 100.81 70.21 98.92 68.41C97.82 67.36 95.54 64.44 94.39 62.22C93.94 62.33 93.48 62.44 93.03 62.55C92.62 62.65 92.09 62.87 91.74 62.51C91.58 62.34 91.52 62.09 91.43 61.88C91.36 61.71 91.28 61.52 91.22 61.38C91.01 60.89 90.8 60.41 90.59 59.93C90.52 59.78 90.46 59.63 90.39 59.48C90.36 59.4 90.32 59.32 90.29 59.25C90.2 59.05 90.11 58.84 90.02 58.64C89.89 58.64 89.76 58.65 89.63 58.65C86.96 58.63 84.23 57.81 81.78 56.79C81.08 56.49 80.38 56.17 79.72 55.8C79.41 55.63 79.1 55.45 78.8 55.25C78.61 55.12 78.12 54.9 78.07 54.66C78.05 54.57 78.07 54.45 78.1 54.33C78.17 54.07 78.3 53.77 78.35 53.61C78.44 53.33 78.57 53.09 78.7 52.83C78.89 52.44 78.86 52.08 78.75 51.71C79.01 51.58 79.26 51.44 79.49 51.31C80.59 50.68 81.59 49.89 82.49 49.01C84.27 47.29 85.75 45.23 87.11 43.17C87.8 42.14 88.44 40.95 88.59 39.69C89.04 39.73 89.49 39.78 89.94 39.82C90.04 39.95 90.16 40.06 90.25 40.19C91.25 41.57 91.89 43.19 92.46 44.79C93.55 47.88 94.21 51.1 94.77 54.33C94.79 54.46 94.82 54.6 94.84 54.73C94.98 55.57 95.13 56.42 95.26 57.26C95.33 57.72 95.46 58.78 94.77 58.79C94.39 58.79 93.99 58.64 93.61 58.59C93.18 58.54 92.76 58.53 92.33 58.53C91.89 58.53 91.44 58.57 91 58.6C91.09 58.8 91.19 59 91.28 59.2C91.3 59.24 91.31 59.28 91.33 59.31C91.35 59.35 91.36 59.39 91.38 59.42C91.43 59.52 91.48 59.62 91.51 59.72C91.53 59.8 91.53 59.86 91.51 59.92C91.54 59.99 91.57 60.06 91.6 60.13C91.82 60.64 92.04 61.14 92.24 61.65C92.26 61.69 92.3 61.77 92.32 61.84C92.34 61.84 92.35 61.84 92.37 61.83C92.5 61.8 92.62 61.77 92.75 61.74C93.17 61.64 93.6 61.53 94.02 61.43C93.63 60.48 93.56 59.75 94.07 59.54C94.21 59.57 94.36 59.6 94.51 59.62C96.09 59.86 96.28 58.19 96.09 57.03C95.95 56.13 95.8 55.23 95.65 54.32C95.55 53.75 95.44 53.19 95.34 52.62C95.81 53.19 96.38 53.68 97.04 54.07C97.23 54.18 97.42 54.24 97.61 54.32C98.71 54.78 99.89 54.83 101.08 54.61C101.42 54.54 101.75 54.44 102.06 54.32C103.53 53.76 104.66 52.62 105.15 51.05C105.69 49.33 105.5 47.45 105.15 45.71C104.9 44.46 104.5 43.29 104 42.12C103.87 41.82 103.75 41.52 103.62 41.22C103.68 41.22 103.74 41.23 103.8 41.24C104.66 41.33 105.54 41.49 106.4 41.52C107.17 41.55 107.92 41.26 108.69 41.36C108.99 41.4 109.14 41.06 109.1 40.82C109.06 40.57 109.02 40.32 108.98 40.07C108.94 39.84 108.78 39.76 108.61 39.77C108.6 39.77 108.59 39.76 108.57 39.76C106.74 39.57 104.91 39.36 103.08 39.16C103.06 38.87 103.08 38.57 103.12 38.28C103.41 38.06 103.65 37.76 103.75 37.4C103.76 37.36 103.76 37.31 103.77 37.27C105.31 37.25 106.76 36.27 107.33 34.83C107.7 33.89 107.63 32.87 107.67 31.88C107.71 30.98 107.87 30.04 108.58 29.43C108.9 29.16 108.56 28.58 108.17 28.72C105.83 29.56 104 31.49 103.19 33.8C103.48 30.82 102.07 27.89 100.29 25.51C100.09 25.24 99.61 25.23 99.51 25.61C98.75 28.67 99.09 31.95 100.49 34.78C100.62 35.05 100.77 35.37 100.98 35.59C100.85 35.7 100.72 35.83 100.63 35.98C100.34 36.47 100.36 37.07 100.58 37.59C100.6 37.65 100.66 37.69 100.69 37.74C100.61 38.13 100.45 38.5 100.24 38.86C96.41 38.45 92.59 38.04 88.77 37.6C88.26 37.24 87.73 36.9 87.15 36.64C87.12 36.63 87.1 36.63 87.07 36.62C86.99 36.5 86.91 36.39 86.83 36.27C87.56 35.96 87.98 35.18 88.3 34.45C88.36 34.32 88.39 33.93 88.43 33.65L88.84 33.86C89.38 33.99 89.93 34.02 90.46 34.02C90.64 34.02 90.82 34.02 91 34.02C91.29 34.02 91.5 33.87 91.58 33.65C91.69 33.34 91.53 32.95 91.17 32.65C91.03 32.53 90.9 32.41 90.78 32.3L90.72 32.24L95.46 30.47C95.46 30.47 94.47 30.47 93.32 30.62L92.82 30.99L92.91 30.68C92.84 30.69 92.76 30.7 92.69 30.71L92.26 31.21L92.34 30.78C91.88 30.88 91.44 31.01 91.05 31.18C91.14 30.92 91.24 30.65 91.31 30.38C91.37 30.13 91.26 29.74 91.05 29.48C89.66 27.76 86.53 26.22 84.45 26.22H84.4C84.13 26.22 83.91 26.37 83.75 26.5C83.52 26.69 83.29 26.89 83.06 27.09C82.7 27.4 82.33 27.73 81.94 28.02C81.83 28.1 81.46 28.07 81.23 28.05C81.01 28.03 80.68 27.92 80.36 27.82C79.76 27.62 79.24 27.45 78.97 27.64C78.9 27.69 78.83 27.78 78.83 27.95C78.83 27.98 78.83 28 78.85 28.02C79.25 28.78 80.22 29.51 81.27 30.18C80.93 30.51 80.53 30.9 80.37 31.18C79.83 31.13 79.3 30.97 78.76 30.91C78.5 30.88 78.26 31.21 78.35 31.45C78.55 31.98 78.95 32.36 79.32 32.78C79.41 32.89 79.38 32.8 79.4 32.94C79.4 32.94 79.4 32.91 79.4 32.98C79.4 33.03 79.4 33.08 79.4 33.14C79.4 33.62 79.3 34.09 79.36 34.57C79.43 35.19 79.68 35.76 80.18 36.16C80.5 36.42 80.87 36.59 81.25 36.72C77.84 36.32 74.42 35.93 71.01 35.5C70.8 35.47 70.59 35.45 70.38 35.42C70.26 34.69 70.22 33.93 70.19 33.22C70.18 32.96 69.93 32.72 69.65 32.81C69.28 32.94 68.97 33.16 68.7 33.42C68.53 33.31 68.34 33.23 68.13 33.24C67.82 33.26 67.58 33.44 67.4 33.68C67.2 33.58 66.98 33.54 66.74 33.6C66.5 33.67 66.32 33.82 66.21 34.01C66.08 33.95 65.95 33.89 65.79 33.88C65.46 33.87 65.12 34.03 64.95 34.33C64.75 34.7 64.91 35.1 65.07 35.45C65.11 35.55 65.17 35.64 65.21 35.73C65.09 36.22 65.19 36.85 65.24 37.31C65.28 37.71 65.24 38.31 65.78 38.35C66.09 38.38 66.42 38.16 66.69 38.04C66.72 38.03 66.76 38.01 66.8 37.99C67.17 38.37 67.58 38.72 68.01 39.03C68.8 41.42 69.85 43.73 71.17 45.88C71.86 47.01 72.62 48.09 73.44 49.13C73.83 49.62 74.23 50.11 74.65 50.57C75.08 51.05 75.53 51.63 76.1 51.95C76.7 52.29 77.36 52.23 77.99 52.02C78.01 52.11 78.04 52.21 78.03 52.29C78 52.48 77.83 52.68 77.75 52.85C77.57 53.26 77.33 53.81 77.27 54.32C77.25 54.47 77.24 54.62 77.26 54.76C77.28 54.95 77.37 55.11 77.48 55.25C71.29 56.38 65.88 61.74 61.4 66.16C61.09 66.46 60.79 66.76 60.49 67.07C59.96 67.39 58.57 69.65 58.57 69.65C58.41 69.99 58.25 70.33 58.15 70.71C58.31 71.05 58.48 71.36 58.65 71.68C58.61 71.72 58.57 71.77 58.52 71.81C58.46 71.87 58.4 71.92 58.34 71.98C58.31 72.01 58.27 72.04 58.24 72.07C58.22 72.08 58.21 72.1 58.19 72.11C58.19 72.11 58.18 72.11 58.17 72.12C58.14 72.14 58.11 72.17 58.08 72.19C58.05 72.21 58.01 72.24 57.98 72.26C57.77 72 57.48 71.88 57.01 72.1C56.3 72.44 55.61 72.86 54.95 73.29C54.2 72.08 53.33 70.96 52.3 69.98C51.69 69.4 50.73 68.67 49.87 68.8C49.98 68.95 50.09 69.09 50.19 69.21C50.21 69.24 50.24 69.27 50.26 69.3C50.36 69.44 50.46 69.57 50.56 69.71C51.6 71.16 52.68 72.58 53.71 74.03C54.34 74.91 55.05 75.83 55.62 76.79C55.69 76.91 55.76 77.03 55.83 77.15C55.9 77.28 55.95 77.41 56.02 77.54C56.65 77.19 57.27 76.83 57.88 76.45C58.1 76.31 58.44 76.15 58.72 75.95L59.15 75.71C59.15 75.71 59.58 75.54 59.57 75.53C59.5 75.4 59.37 75.11 59.23 74.79L60.09 74.26C60.33 74.68 60.57 75.1 60.81 75.54C49.94 81.11 41.83 91.68 39.97 104.66C39.53 107.72 39.47 110.75 39.74 113.7H42.3C42.03 110.87 42.07 107.96 42.5 105.02C43.18 100.29 44.76 95.91 47.03 92.01C46.91 92.26 46.78 92.5 46.67 92.76C46.67 92.76 46.78 93.38 47.49 93.55C48.2 93.72 48.66 93.78 48.4 95.15C48.14 96.51 47.72 99.39 49.55 99.72C51.37 100.05 50.46 98.51 50.03 97.79C49.6 97.06 49.32 94.82 50.38 95.37C51.44 95.92 49.88 96.03 51.46 99C53.04 101.97 50.6 101.75 52.49 103.89C54.39 106.03 55.44 103.78 56.07 104.54C56.7 105.3 56.1 105.75 57.34 105.93C58.58 106.11 58.06 105.57 58.62 106.78C59.18 108 59.57 110.39 63.24 109.51C63.24 109.51 63.85 110.87 63.24 111.78C62.75 112.53 61.46 112.64 60.9 113.71H76.39C76.09 112.83 75.36 112.01 73.63 112.01C73.63 112.01 73.09 109.26 71.21 109.32C69.33 109.38 69.11 109.55 68.84 109.11C68.57 108.67 68.22 106.95 66.9 107.29C65.58 107.64 65.27 109.33 63.99 108.94C62.71 108.56 61.09 108.66 61.48 107.38C61.86 106.1 62.08 104.59 60.08 104.57C60.08 104.57 59.58 104.36 60.41 103.68C61.24 103 60.86 101.94 60.38 102.01C59.9 102.08 58.49 103.07 57.82 103.11C57.15 103.15 55 102.77 56.18 100.14C57.36 97.5 63.01 97.25 63.42 98.58C63.83 99.91 63.35 100.44 64.67 100.56C65.99 100.68 65.59 98.35 65.59 98.35L69.18 96.13C69.18 96.13 69.55 95.85 69.82 95.42C70.08 94.99 74.46 92.88 75.41 91.41C76.36 89.94 76.67 89.12 77.92 89.77C79.16 90.42 79.68 90.56 80 89.73C80.32 88.91 81.95 91.01 82.62 90.11C83.28 89.2 82.98 88.09 81.6 87.89C80.23 87.69 82.02 86.35 81.47 86C80.92 85.65 79.88 86.84 79.35 86.36C78.82 85.88 79.94 84.11 78.15 84.05C76.35 83.99 76.13 84.16 75.58 86.15C75.03 88.14 74.24 86.15 72.83 87.63C71.42 89.1 71.74 88.21 71.61 87.32C71.47 86.43 70.5 85.76 69.51 85.68C68.52 85.6 68.91 83.79 70.37 83.4C71.83 83.01 73.6 82.33 73.6 82.33C73.6 82.33 73.76 83.56 74.81 83.24C75.86 82.92 76.21 81.84 76.21 81.84L77.26 81.99C77.26 81.99 77.97 81.22 78.18 81.19C78.39 81.15 80.54 81.53 80.54 81.53C80.54 81.53 81.76 81.44 80.61 82.01C79.46 82.58 78.76 81.88 79.01 82.92C79.26 83.96 79.35 83.37 80.11 84.08C80.88 84.79 82.1 84.63 82.37 83.67C82.37 83.67 83.95 84.3 84.3 83.28C84.65 82.26 83.82 81.94 83.82 81.94C83.82 81.94 83.68 80.58 82.27 79.71C80.86 78.84 77.29 78.13 76.95 80.01C76.61 81.9 75.18 80.69 75.18 80.69C75.18 80.69 76.04 80.28 76.19 79.23C76.34 78.18 73.54 77.71 73.47 78.64C73.4 79.57 74.08 80 73.32 80.15C72.56 80.31 71.86 80.54 70.92 80.61C69.98 80.67 69.87 79.52 69.87 79.52C69.87 79.52 70.59 79.62 71.63 79.37C72.67 79.12 73.28 78.14 72.13 77.77C70.98 77.4 72.2 78.65 69.65 78.28C69.65 78.28 69.33 78.17 69.05 77.33C68.77 76.49 66.42 76.08 65.58 76.83C64.74 77.58 65.19 78.18 65.89 78.41C66.59 78.64 65.59 79.1 66.69 79.33C67.79 79.56 68.24 79.69 67.93 79.98C67.64 80.25 62.88 78.9 62.29 77.7C67.24 75.21 72.78 73.81 78.56 73.81C80.28 73.81 82.01 73.93 83.76 74.18C86.58 74.59 89.3 75.32 91.89 76.33C92.94 76.76 94.28 77.15 95.86 78.17C99.83 80.31 103.39 83.2 106.36 86.73C106.22 86.95 105.88 87.22 105.09 87.26C103.74 87.33 102.91 88.95 103.83 89.95C104.75 90.95 106.17 90.42 106.13 91.15C106.09 91.88 105.84 92.24 104.77 91.76C103.7 91.27 103.02 91.38 102.75 92.34C102.48 93.3 102.04 94.04 101.29 93.67C100.54 93.3 98.78 93.91 99.62 95.5C99.62 95.5 100.02 96.89 99.07 96.56C98.12 96.22 95.64 95.33 95.51 97.65C95.38 99.97 97.45 99.93 99.25 99.52C101.05 99.11 101.95 96.97 101.95 96.97C101.95 96.97 103.75 97.9 104.46 96.73C104.46 96.73 105.22 98.91 106.31 99.2C106.31 99.2 105.28 99.39 105.47 100.42C105.66 101.45 108.67 100.95 108.01 98.98C107.36 97.02 104.31 97.31 106.13 96.24C107.95 95.17 108.78 98.22 108.8 99.03C108.82 99.83 108.14 101.74 109.71 101.03C111.28 100.32 110.95 98 111.44 99.21C111.93 100.42 111.01 101.75 112.46 101.89C113.31 101.97 113.79 102.05 114.05 102.1C114.29 103.16 114.49 104.24 114.64 105.32C113.92 105.37 111.48 105.48 111.2 104.65C110.87 103.67 109.79 103.31 107.6 103.67C105.41 104.02 106.27 103.15 105.52 102.84C104.76 102.53 103.94 102.68 103.94 102.68C103.94 102.68 106.18 98.73 98.46 100.36C98.46 100.36 95.39 99.38 94.38 101.31C93.37 103.24 93.8 103.5 90.95 104.29C88.1 105.08 90.26 106.8 90.26 106.8C90.26 106.8 91.18 107.4 90.08 108.04C88.99 108.68 88.52 110.55 89.02 111.7C89.24 112.2 89.66 112.98 90.15 113.74H117.36C118.24 104.15 115.57 94.69 109.74 86.91C107.35 83.72 104.53 80.96 101.4 78.68L101.33 78.66ZM106.59 73.45C106.59 73.45 106.62 73.43 106.64 73.43C106.68 73.77 106.75 74.13 106.83 74.46C106.34 74.55 105.85 74.62 105.35 74.7C105.34 74.26 105.32 73.82 105.3 73.38C105.73 73.41 106.16 73.44 106.59 73.45ZM92.87 59.41C92.93 59.41 93 59.41 93.06 59.41C93.11 59.41 93.16 59.43 93.22 59.43C93.1 59.43 92.99 59.42 92.87 59.41ZM106.79 33.7C106.59 35.24 105.34 36.4 103.8 36.43C103.95 36.29 104.09 36.14 104.24 36C105.26 34.99 106.15 33.86 106.86 32.62C106.85 32.99 106.83 33.36 106.79 33.71V33.7ZM104.89 32.39C105.19 31.95 105.53 31.54 105.91 31.17C106.1 30.99 106.3 30.81 106.51 30.65C106.72 30.49 106.94 30.33 107.16 30.19C107.04 30.54 106.97 30.92 106.94 31.3C106.78 31.27 106.62 31.32 106.52 31.5C106.16 32.21 105.74 32.89 105.27 33.53C104.8 34.17 104.28 34.77 103.72 35.33C103.89 34.28 104.29 33.27 104.88 32.39H104.89ZM94.64 46.33C94.47 46.73 94.33 47.14 94.23 47.56C94.15 47.28 94.07 47 94 46.72C93.96 46.58 93.92 46.44 93.88 46.3C93.84 46.16 93.81 46.02 93.76 45.88C93.61 45.4 93.42 44.91 93.25 44.43C93.08 43.94 92.93 43.46 92.74 42.98C92.55 42.5 92.33 42.03 92.1 41.57C91.87 41.11 91.62 40.67 91.34 40.24C91.31 40.19 91.27 40.14 91.23 40.1C91.19 40.06 91.16 40 91.12 39.96C93.57 40.2 96.02 40.43 98.46 40.69C98.62 40.71 98.78 40.73 98.94 40.74C98.47 41.28 97.97 41.79 97.48 42.3C97.23 42.56 96.98 42.81 96.75 43.08C96.19 43.72 95.66 44.43 95.22 45.18C95 45.56 94.8 45.94 94.63 46.34L94.64 46.33ZM107.87 40.54C107.52 40.58 107.17 40.65 106.81 40.67C106.63 40.68 106.44 40.68 106.25 40.67C105.69 40.64 105.12 40.54 104.58 40.48C104.17 40.44 103.77 40.39 103.36 40.35C103.35 40.3 103.34 40.26 103.32 40.21C103.32 40.19 103.31 40.16 103.3 40.14C103.3 40.1 103.28 40.07 103.27 40.04C104.8 40.2 106.33 40.38 107.86 40.54H107.87ZM102.45 36.78C102.45 36.78 102.45 36.78 102.46 36.77L102.52 36.73C102.52 36.73 102.53 36.73 102.54 36.72C102.56 36.72 102.58 36.71 102.58 36.71C102.58 36.71 102.6 36.71 102.61 36.71C102.61 36.71 102.61 36.71 102.62 36.71C102.62 36.71 102.62 36.71 102.63 36.71C102.64 36.72 102.65 36.73 102.67 36.75C102.68 36.77 102.69 36.79 102.7 36.81C102.7 36.83 102.71 36.85 102.72 36.87C102.72 36.87 102.73 36.9 102.74 36.91C102.74 36.92 102.74 36.93 102.74 36.9C102.74 36.91 102.74 36.93 102.74 36.94C102.74 36.97 102.74 36.99 102.74 37.02C102.74 37.04 102.74 37.05 102.73 37.07C102.73 37.08 102.73 37.09 102.73 37.1C102.73 37.11 102.73 37.12 102.73 37.13C102.73 37.13 102.73 37.14 102.73 37.15C102.73 37.15 102.73 37.16 102.73 37.17C102.73 37.17 102.73 37.18 102.73 37.19C102.73 37.2 102.72 37.22 102.71 37.23C102.7 37.25 102.69 37.27 102.68 37.29C102.68 37.29 102.68 37.31 102.66 37.32C102.66 37.33 102.65 37.34 102.64 37.35C102.64 37.36 102.63 37.37 102.62 37.38C102.62 37.38 102.61 37.39 102.6 37.4C102.6 37.4 102.59 37.42 102.58 37.42C102.58 37.43 102.58 37.42 102.6 37.4C102.6 37.4 102.59 37.42 102.58 37.42C102.54 37.44 102.49 37.47 102.45 37.49C102.45 37.49 102.45 37.49 102.47 37.49C102.47 37.49 102.47 37.49 102.46 37.49C102.46 37.49 102.46 37.49 102.45 37.49C102.45 37.49 102.43 37.49 102.43 37.5C102.42 37.5 102.4 37.51 102.39 37.52C102.36 37.53 102.33 37.54 102.3 37.55C102.22 37.57 102.15 37.6 102.07 37.61C102.07 37.61 102.07 37.61 102.06 37.61C102.03 37.61 102.01 37.62 101.98 37.63C101.97 37.63 101.95 37.63 101.94 37.63C101.93 37.63 101.91 37.63 101.9 37.63C101.89 37.63 101.88 37.63 101.87 37.63C101.86 37.63 101.85 37.63 101.84 37.63C101.84 37.63 101.8 37.6 101.78 37.59C101.76 37.58 101.74 37.56 101.72 37.55C101.71 37.54 101.69 37.53 101.68 37.51C101.68 37.51 101.68 37.51 101.68 37.5C101.67 37.49 101.65 37.47 101.64 37.46C101.64 37.46 101.63 37.45 101.62 37.44C101.61 37.43 101.61 37.43 101.6 37.42C101.6 37.42 101.6 37.42 101.59 37.41C101.59 37.41 101.58 37.39 101.57 37.39C101.54 37.35 101.51 37.3 101.49 37.25C101.49 37.25 101.49 37.23 101.48 37.22C101.48 37.22 101.48 37.21 101.47 37.2C101.47 37.19 101.47 37.16 101.45 37.14C101.45 37.12 101.43 37.09 101.43 37.08C101.42 37.04 101.41 36.99 101.4 36.95C101.4 36.95 101.4 36.93 101.4 36.92C101.4 36.91 101.4 36.89 101.4 36.88C101.4 36.84 101.4 36.79 101.4 36.75C101.4 36.75 101.4 36.72 101.4 36.7C101.4 36.7 101.4 36.7 101.4 36.69C101.4 36.66 101.41 36.62 101.42 36.59C101.42 36.57 101.42 36.56 101.43 36.54C101.43 36.54 101.45 36.5 101.45 36.49C101.43 36.52 101.43 36.52 101.44 36.51C101.44 36.5 101.46 36.48 101.46 36.47C101.47 36.45 101.48 36.43 101.49 36.41C101.49 36.4 101.54 36.34 101.55 36.32C101.56 36.31 101.57 36.29 101.59 36.28C101.59 36.28 101.61 36.26 101.62 36.25C101.62 36.25 101.64 36.23 101.65 36.22C101.65 36.22 101.66 36.21 101.67 36.2C101.7 36.18 101.73 36.16 101.75 36.14C101.77 36.13 101.79 36.12 101.81 36.11C101.83 36.1 101.85 36.09 101.87 36.08C101.88 36.08 101.9 36.07 101.91 36.06C101.96 36.04 102.01 36.03 102.06 36.02C102.06 36.02 102.07 36.02 102.08 36.02C102.08 36.02 102.09 36.02 102.1 36.02C102.05 36.05 102.02 36.1 101.98 36.14C101.89 36.21 101.8 36.28 101.73 36.38C101.68 36.44 101.66 36.52 101.63 36.59C101.6 36.66 101.55 36.73 101.53 36.8C101.48 36.97 101.58 37.14 101.72 37.24C101.72 37.24 101.78 37.32 101.83 37.33C101.94 37.36 102.06 37.33 102.15 37.29C102.24 37.24 102.32 37.15 102.35 37.04C102.35 37.03 102.35 37.02 102.36 37C102.36 37 102.36 37 102.36 36.99V36.97C102.37 36.95 102.39 36.93 102.4 36.91C102.41 36.89 102.42 36.86 102.44 36.85C102.44 36.85 102.45 36.83 102.46 36.83C102.46 36.83 102.47 36.82 102.48 36.81C102.48 36.81 102.49 36.79 102.5 36.79C102.5 36.79 102.5 36.79 102.51 36.78H102.45ZM101.81 37.67C101.82 37.67 101.84 37.67 101.84 37.69C101.84 37.69 101.82 37.68 101.81 37.67ZM102.04 36.04C102.04 36.04 102.04 36.04 102.05 36.04C102.07 36.04 102.08 36.04 102.07 36.04C102.07 36.04 102.05 36.04 102.03 36.04H102.04ZM100.74 33.08C100.2 31.57 99.98 29.98 100.05 28.4C100.06 28.14 100.11 27.87 100.13 27.61C100.16 27.35 100.17 27.08 100.21 26.82C100.37 27.05 100.52 27.29 100.66 27.53C100.95 28.01 101.22 28.5 101.45 29.01C102.04 30.28 102.42 31.62 102.42 32.99C102.34 32.7 102.25 32.41 102.15 32.12C101.85 31.25 101.55 30.38 101.25 29.52C101.18 29.33 101.03 29.24 100.86 29.23C100.75 29.23 100.64 29.25 100.56 29.31C100.47 29.37 100.41 29.46 100.4 29.56C100.4 29.62 100.4 29.67 100.42 29.74C100.53 30.05 100.64 30.36 100.76 30.67C100.87 30.98 100.99 31.3 101.1 31.61C101.32 32.24 101.53 32.87 101.68 33.51C101.7 33.59 101.71 33.66 101.72 33.74C101.76 33.97 101.79 34.2 101.79 34.43C101.79 34.48 101.79 34.56 101.78 34.64C101.76 34.76 101.74 34.87 101.69 34.92C101.67 34.94 101.66 34.95 101.64 34.94C101.6 34.94 101.55 34.89 101.49 34.79C101.34 34.52 101.2 34.23 101.07 33.95C100.94 33.66 100.82 33.37 100.72 33.07L100.74 33.08ZM100.23 40.44C100.29 40.36 100.36 40.29 100.42 40.2C100.44 40.17 100.47 40.13 100.49 40.09C100.5 40.07 100.51 40.05 100.53 40.04C100.56 39.99 100.59 39.95 100.63 39.9C100.66 39.85 100.69 39.81 100.73 39.76C100.77 39.69 100.81 39.63 100.86 39.56C100.9 39.49 100.94 39.43 100.99 39.36C101.01 39.33 101.03 39.29 101.05 39.26C101.09 39.19 101.12 39.13 101.16 39.06C101.16 39.06 101.14 39.13 101.13 39.16C101.12 39.19 101.11 39.23 101.1 39.26C101.09 39.29 101.08 39.33 101.07 39.36C101.05 39.42 101.03 39.48 101.01 39.55C101.01 39.57 100.99 39.6 100.98 39.63C100.96 39.68 100.94 39.73 100.93 39.78C100.91 39.83 100.9 39.88 100.88 39.93C100.86 39.98 100.84 40.03 100.83 40.08C100.78 40.22 100.73 40.35 100.68 40.49C100.63 40.63 100.58 40.76 100.53 40.9C100.41 41.22 100.31 41.54 100.19 41.86C99.9 42.61 99.6 43.36 99.26 44.1C99.12 44.4 98.98 44.69 98.82 44.98C98.79 45.03 98.76 45.07 98.74 45.12C98.71 45.17 98.68 45.22 98.66 45.26C98.63 45.3 98.61 45.32 98.59 45.36C98.57 45.39 98.54 45.44 98.52 45.46C98.47 45.51 98.48 45.56 98.46 45.62C98.44 45.67 98.4 45.73 98.4 45.78C98.4 45.83 98.42 45.88 98.44 45.93C98.51 46.07 98.65 46.18 98.81 46.19C98.86 46.19 98.91 46.15 98.96 46.13C99.01 46.11 99.07 46.12 99.11 46.07C99.4 45.77 99.6 45.38 99.78 45C99.84 44.87 99.91 44.74 99.96 44.62C100.14 44.24 100.29 43.84 100.45 43.45C100.61 43.06 100.79 42.67 100.94 42.28C100.99 42.14 101.04 42 101.09 41.86C101.19 41.58 101.29 41.3 101.39 41.02C101.41 40.95 101.44 40.88 101.46 40.81C101.48 40.74 101.51 40.67 101.53 40.6C101.55 40.53 101.58 40.46 101.6 40.4C101.62 40.33 101.65 40.26 101.67 40.2C101.68 40.17 101.69 40.13 101.71 40.1C101.73 40.04 101.76 39.97 101.78 39.91C101.78 39.91 101.78 39.91 101.78 39.9C101.78 39.9 101.78 39.9 101.78 39.89C101.82 39.76 101.86 39.63 101.91 39.5C101.96 39.36 102 39.23 102.04 39.09C102.07 39 102.08 38.91 102.11 38.81C102.11 38.84 102.1 38.87 102.09 38.9C102.08 38.96 102.07 39.02 102.06 39.09C102.06 39.16 102.04 39.23 102.02 39.3C102.01 39.37 101.99 39.44 101.98 39.51C101.98 39.6 101.98 39.7 101.98 39.79C101.98 39.84 101.98 39.88 101.98 39.93C101.98 39.96 101.98 40 101.98 40.03C101.98 40.1 101.98 40.16 101.98 40.23C101.98 40.3 101.98 40.37 101.98 40.44C101.98 40.48 101.98 40.51 101.98 40.55C101.98 40.59 101.98 40.62 101.98 40.66C101.98 40.8 101.98 40.95 102 41.09C102.03 41.51 102.08 41.93 102.15 42.34C102.23 42.75 102.33 43.16 102.47 43.56C102.54 43.75 102.69 43.84 102.85 43.85C102.9 43.85 102.96 43.85 103.01 43.83C103.16 43.79 103.29 43.67 103.31 43.51C103.31 43.45 103.31 43.39 103.29 43.33C103.26 43.26 103.25 43.18 103.23 43.1C103.21 43.02 103.19 42.95 103.17 42.87C103.05 42.42 102.96 41.96 102.9 41.5C103.07 41.94 103.26 42.38 103.44 42.82C103.62 43.26 103.8 43.7 103.94 44.15C104.08 44.58 104.2 45.01 104.3 45.45C104.41 45.89 104.49 46.34 104.56 46.8C104.63 47.25 104.67 47.71 104.69 48.16C104.71 48.61 104.69 49.07 104.66 49.51C104.64 49.76 104.6 50 104.55 50.23C104.45 50.7 104.3 51.14 104.09 51.55C103.99 51.75 103.83 51.91 103.69 52.09C103.56 52.27 103.45 52.48 103.29 52.64C103.13 52.8 102.96 52.95 102.77 53.08C102.4 53.35 101.97 53.55 101.48 53.7C101.32 53.75 101.16 53.77 101 53.8C100.84 53.83 100.68 53.88 100.52 53.9C100.2 53.94 99.88 53.95 99.55 53.95C99.25 53.95 99.02 53.94 98.79 53.9C98.57 53.86 98.34 53.79 98.05 53.67C97.07 53.26 96.24 52.56 95.67 51.69C95.53 51.47 95.4 51.25 95.29 51.01C95.24 50.89 95.2 50.77 95.16 50.65C95.03 50.29 94.92 49.91 94.88 49.52C94.85 49.26 94.85 48.99 94.87 48.72C94.91 48.2 95.02 47.69 95.19 47.2C95.53 46.21 96.1 45.29 96.75 44.46C97.07 44.04 97.42 43.65 97.76 43.28C98.5 42.49 99.24 41.72 99.92 40.88C100.03 40.75 100.14 40.63 100.24 40.49L100.23 40.44ZM83.17 28.03C83.57 27.63 83.94 27.26 84.38 26.93C84.5 26.84 84.91 26.85 85.3 26.95C86.95 27.39 88.35 28.09 89.49 29.04L86.31 27.61C86.06 27.44 85.33 27.21 85.17 27.19C85.01 27.17 84.9 27.22 84.85 27.32C84.78 27.46 84.85 27.63 85.12 27.9C85.57 28.39 86.22 28.56 86.85 28.74C87.15 28.82 87.46 28.91 87.74 29.03L87.84 29.07C88.51 29.36 89.2 29.65 89.85 29.98C89.95 30.03 90.1 30.29 90.11 30.35C89.96 30.8 89.77 31.36 89.53 31.91C89.51 31.88 89.49 31.86 89.46 31.85C88.97 31.62 88.48 31.41 88 31.19C86.24 30.42 84.42 29.62 82.83 28.35C82.94 28.24 83.06 28.13 83.17 28.02V28.03ZM82.35 28.69C84.12 30.32 86.29 31.19 88.38 32.04L88.67 32.16C88.92 32.26 89.18 32.21 89.42 32.16C89.38 32.25 89.33 32.35 89.28 32.44C89.21 32.49 88.84 32.51 88.63 32.42L88.5 32.36C86.5 31.47 84.42 30.54 82.61 29.16C82.25 28.89 82.24 28.8 82.24 28.78C82.24 28.78 82.27 28.74 82.35 28.7V28.69ZM80.82 28.83C80.76 28.79 80.6 28.66 80.43 28.52C80.59 28.57 80.74 28.63 80.83 28.67C81.25 28.85 81.54 29.03 81.72 29.21C82.14 29.62 82.59 29.99 83.05 30.32C82.5 29.97 81.96 29.61 81.44 29.25C81.23 29.11 81.03 28.97 80.82 28.83ZM80.76 35.54C79.97 34.93 80.27 33.96 80.27 33.11C80.27 32.89 80.25 32.67 80.14 32.47C80.04 32.27 79.37 31.76 79.97 31.92C80.25 31.98 80.29 32.07 80.59 32.08C80.73 32.08 80.89 32 80.96 31.87C81.22 31.34 81.36 30.89 81.76 30.51C81.81 30.54 81.88 30.57 81.93 30.6C82.47 30.91 83.15 31.24 83.67 31.51C83.75 31.55 83.89 31.55 84.01 31.56C84.19 31.66 84.37 31.76 84.55 31.86C84.38 32.25 84.14 32.74 84.15 33.1C84.16 33.46 84.61 33.67 84.88 33.4C85.17 33.1 85.88 32.7 86.17 33.23C86.47 33.79 85.77 33.79 85.46 34.02C85 34.36 85.03 34.93 85.25 35.39C85.46 35.84 85.77 36.25 86.07 36.66C85.13 36.87 84.15 36.82 83.26 36.41C83 36.29 82.81 36.16 82.51 36.13C82.26 36.1 82.01 36.06 81.76 35.99C81.4 35.9 81.03 35.77 80.73 35.54H80.76ZM70.6 36.3C73.45 36.65 76.29 36.98 79.14 37.32C81.99 37.66 84.83 38.01 87.68 38.34C87.81 38.35 87.93 38.37 88.06 38.39C88.19 38.41 88.31 38.42 88.44 38.44C88.44 38.44 88.45 38.44 88.46 38.44C88.48 38.44 88.5 38.44 88.51 38.44C88.53 38.44 88.54 38.44 88.56 38.44C88.72 38.46 88.87 38.47 89.03 38.49C89.34 38.52 89.65 38.56 89.96 38.59C93.22 38.96 96.49 39.3 99.76 39.66C99.69 39.76 99.62 39.85 99.55 39.95C97.69 39.75 95.83 39.56 93.97 39.37C93.5 39.32 93.04 39.27 92.57 39.23C92.1 39.19 91.64 39.13 91.17 39.09C90.91 39.07 90.64 39.05 90.38 39.02C89.94 38.98 89.5 38.95 89.06 38.91C88.92 38.9 88.78 38.89 88.63 38.87C88.34 38.84 88.06 38.82 87.77 38.79C87.05 38.72 86.33 38.66 85.61 38.6C84.89 38.54 84.17 38.47 83.45 38.41C83.34 38.41 83.22 38.39 83.11 38.38C83 38.37 82.88 38.36 82.77 38.35C79.57 38.1 76.38 37.89 73.17 37.75C72.85 37.74 72.53 37.73 72.21 37.72C72.1 37.72 72 37.72 71.89 37.71C71.68 37.71 71.46 37.69 71.25 37.69C71.24 37.69 71.23 37.69 71.22 37.69C71.2 37.65 71.17 37.62 71.14 37.59C70.89 37.19 70.71 36.76 70.58 36.31L70.6 36.3ZM81.4 39.1C81.12 39.27 80.85 39.44 80.58 39.63C80.31 39.81 80.05 40.01 79.8 40.21C79.28 40.64 78.8 41.12 78.35 41.63C78.13 41.88 77.91 42.14 77.7 42.41C77.49 42.67 77.28 42.94 77.08 43.21C75.19 41.9 73.48 40.33 72.01 38.56C72.53 38.58 73.06 38.61 73.58 38.64C74.63 38.69 75.67 38.73 76.72 38.79C77.77 38.85 78.81 38.92 79.85 38.99C80.37 39.03 80.89 39.05 81.42 39.09L81.4 39.1ZM66.12 37.4C66.12 37.35 66.11 37.29 66.1 37.24C66.1 37.21 66.1 37.19 66.1 37.16C66.15 37.22 66.19 37.28 66.24 37.34C66.2 37.36 66.16 37.37 66.13 37.39L66.12 37.4ZM68.73 38.5C68.7 38.48 68.67 38.45 68.64 38.43C68.5 38.33 68.36 38.22 68.22 38.11C68.12 38.03 68.02 37.97 67.92 37.88C67.63 37.63 67.37 37.34 67.12 37.05C67.01 36.92 66.87 36.8 66.77 36.66C66.57 36.39 66.41 36.1 66.25 35.81C66.18 35.68 66.08 35.56 66.01 35.43C66 35.4 65.97 35.35 65.93 35.28C65.9 35.21 65.86 35.14 65.82 35.06C65.79 34.99 65.76 34.93 65.74 34.87C65.72 34.82 65.71 34.78 65.72 34.76C65.75 34.71 65.84 34.75 65.93 34.8C66.02 34.85 66.12 34.93 66.17 34.97C66.17 34.97 66.19 34.98 66.19 34.99C66.39 35.16 66.61 35.12 66.76 34.99C66.86 34.9 66.93 34.76 66.9 34.59C66.87 34.44 67.08 34.39 67.14 34.53C67.17 34.62 67.24 34.69 67.31 34.75C67.54 34.9 67.88 34.87 67.96 34.53C67.99 34.39 68.04 34.22 68.17 34.13C68.2 34.11 68.19 34.12 68.23 34.12C68.26 34.12 68.26 34.12 68.26 34.12C68.26 34.23 68.29 34.32 68.35 34.39C68.52 34.59 68.89 34.59 69.06 34.34C69.13 34.24 69.21 34.16 69.3 34.07C69.34 34.03 69.37 33.97 69.42 33.94C69.42 34.1 69.45 34.25 69.47 34.41C69.5 34.72 69.52 35.03 69.56 35.34C69.58 35.48 69.61 35.62 69.64 35.76C69.67 35.91 69.7 36.06 69.73 36.21C69.79 36.46 69.87 36.71 69.95 36.95C70.01 37.11 70.08 37.27 70.16 37.42C70.2 37.5 70.22 37.58 70.26 37.66C70.26 37.68 70.28 37.69 70.29 37.71C70.29 37.73 70.31 37.74 70.32 37.76C70.32 37.78 70.34 37.79 70.35 37.81C70.38 37.86 70.4 37.9 70.43 37.95C70.46 38 70.48 38.05 70.51 38.09C70.51 38.09 70.52 38.1 70.53 38.11C70.13 38.23 69.73 38.34 69.33 38.46C69.18 38.5 69.03 38.55 68.88 38.59C68.84 38.56 68.81 38.53 68.77 38.5H68.73ZM77.81 51.21C77.63 51.28 77.47 51.32 77.31 51.34C77.15 51.36 77.01 51.35 76.86 51.32C76.58 51.26 76.31 51.1 76.05 50.84C75.65 50.44 75.27 50.03 74.9 49.6C74.41 49.03 73.97 48.41 73.52 47.8C73.3 47.49 73.04 47.21 72.83 46.9C72.51 46.43 72.21 45.96 71.91 45.48C71.32 44.52 70.79 43.54 70.32 42.53C70.08 42.02 69.86 41.51 69.64 41C69.43 40.48 69.23 39.96 69.04 39.43C69.38 39.33 69.73 39.23 70.07 39.13C70.41 39.03 70.76 38.93 71.1 38.83C71.66 39.52 72.28 40.14 72.9 40.77C73.37 41.23 73.85 41.68 74.35 42.11C74.93 42.62 75.5 43.13 76.13 43.59C76.4 43.79 76.66 43.99 76.93 44.18C76.98 44.21 77.04 44.23 77.09 44.24C77.2 44.25 77.31 44.21 77.4 44.15C77.44 44.12 77.48 44.08 77.52 44.03C78.14 43.2 78.79 42.37 79.53 41.63C79.77 41.38 80.03 41.15 80.3 40.92C80.56 40.7 80.82 40.5 81.1 40.31C81.37 40.12 81.66 39.94 81.95 39.76C82.32 39.54 82.64 39.36 82.99 39.23C84.6 39.35 86.22 39.49 87.83 39.64C87.82 39.73 87.79 39.81 87.77 39.9C87.74 40.08 87.71 40.25 87.66 40.42C87.31 41.54 86.61 42.53 85.95 43.48C85.64 43.93 85.33 44.37 85.01 44.81C84.37 45.69 83.7 46.55 82.97 47.36C82.61 47.76 82.23 48.16 81.83 48.53C81.07 49.25 80.24 49.91 79.34 50.45C79.1 50.59 78.85 50.74 78.6 50.87C78.35 51 78.09 51.12 77.82 51.22L77.81 51.21ZM59.22 71.12C59.13 71.21 59.03 71.31 58.94 71.41C59.03 71.31 59.13 71.22 59.22 71.12ZM59.74 73.64L58.94 74.14C58.74 73.71 58.55 73.3 58.47 73.13C58.45 73.08 58.42 73.03 58.4 72.98C58.64 72.82 58.88 72.65 59.09 72.46C59.31 72.85 59.52 73.25 59.74 73.64ZM84.06 71.68C83.03 71.53 82 71.43 80.97 71.36C78.92 71.23 76.9 71.26 74.91 71.45C69.93 71.92 65.17 73.34 60.85 75.55C63.83 73.23 67.17 71.4 70.71 70.11C74.25 68.82 77.99 68.08 81.76 67.94C81.71 67.88 81.59 67.73 81.41 67.5C80.35 66.13 77.39 61.98 77.51 57.74C77.53 57.03 77.64 56.32 77.85 55.62C77.87 55.64 77.9 55.66 77.92 55.67C77.93 55.67 77.94 55.69 77.96 55.7C77.92 56.29 77.92 56.85 77.94 57.39C78.1 61.19 79.65 64.03 82.01 67.54C82.56 68.35 83.15 69.13 83.79 69.87C84.14 70.28 84.54 70.66 84.92 71.05C85.19 71.36 85.54 71.68 85.92 72.01C85.88 72.01 85.85 71.99 85.81 71.99C85.23 71.88 84.64 71.78 84.05 71.69L84.06 71.68Z" fill="#999999"/>
<path d="M110.98 77.29C110.67 79.01 109.41 80.43 107.79 81.05C107.89 81.19 107.99 81.32 108.1 81.45C108.18 81.55 108.27 81.65 108.4 81.67C108.54 81.7 108.69 81.63 108.81 81.55C109.8 80.99 110.85 80.37 111.35 79.35C111.7 78.64 111.75 77.82 111.79 77.03C111.85 75.76 111.91 74.5 111.97 73.23C112 72.53 112.02 71.77 111.59 71.22C111.46 71.05 111.27 70.94 111.07 70.87C111.38 71.91 111.33 72.99 111.26 74.07C111.19 75.14 111.18 76.24 110.99 77.29H110.98Z" fill="#999999"/>
<path d="M81.9 32.0299L82.01 32.2999C82.08 32.2299 82.14 32.1399 82.19 32.0399C82.32 31.7499 82.3 31.4499 82.14 31.3799C81.98 31.3099 81.75 31.4899 81.62 31.7899C81.49 32.0799 81.51 32.3799 81.67 32.4499C81.74 32.4799 81.82 32.4499 81.9 32.3999V32.0399V32.0299Z" fill="#999999"/>
<path d="M49.2299 69.1199C48.9199 69.1299 48.6499 69.5499 48.9199 69.8499C49.9799 71.0299 50.9799 72.2599 51.8999 73.5499C52.8099 74.8299 53.5499 76.1999 54.3699 77.5299C54.7099 78.0899 55.1399 77.9999 55.6299 77.7499C55.5599 77.6299 55.5099 77.4999 55.4399 77.3799C55.3699 77.2599 55.2999 77.1399 55.2299 77.0199C55.0599 76.7499 54.8799 76.4799 54.7099 76.2199C54.4799 75.8799 54.2399 75.5499 53.9999 75.2099C53.0599 73.8599 52.0899 72.5399 51.1199 71.2199C50.9499 70.9999 50.7899 70.7699 50.6299 70.5399C50.4199 70.2499 50.2099 69.9599 49.9999 69.6699C49.9099 69.5499 49.8199 69.4299 49.7399 69.3099C49.7099 69.2699 49.6799 69.2299 49.6499 69.1799C49.5999 69.0999 49.5399 69.0199 49.4699 68.9399C49.3899 68.9799 49.3099 69.0499 49.2299 69.1099V69.1199Z" fill="#999999"/>
<path d="M14.52 77.1899C12.96 77.1899 14.23 79.2399 11.58 79.2399H4.73C4.55 79.2399 3.35 79.3299 3.35 78.4599C3.35 77.3199 5.98 77.3499 5.98 75.4099C5.98 74.2699 5.24 73.6899 4.13 73.6899C1.72 73.6899 0 75.4999 0 76.3699C0 76.7899 0.07 76.9699 0.16 77.2799C0.23 77.6099 0.32 78.0599 0.32 79.0199V84.5099C0.32 85.3999 0.23 85.9999 0.16 86.4299C0.07 86.8499 0 87.0999 0 87.2599C0 88.5299 2.48 90.1399 4.37 90.1399C5.17 90.1399 5.98 89.6299 5.98 88.7599C5.98 86.9499 3.35 86.4599 3.35 85.4599C3.35 85.1499 3.33 84.6799 5.67 84.7699L10.6 84.9499C11.16 84.9699 12.5 85.0599 12.96 85.2899C13.81 85.7399 13.34 87.1199 14.52 87.1199C16.24 87.1199 16.19 82.9499 16.19 81.8099C16.19 77.6399 15.21 77.2199 14.52 77.2199V77.1899Z" fill="#999999"/>
<path d="M17.57 54.72C16.23 54.46 17.18 56.12 15.09 55.98C12.67 55.82 11.53 56.3 10.66 57.72C10.5 57.96 10.36 58.23 10.03 58.16C9.77003 58.11 9.73003 57.94 9.66003 57.72C9.31003 56.38 8.17003 55.5 6.85003 55.24C3.94003 54.67 2.28003 57.32 1.80003 59.79C1.66003 60.49 1.56003 61.22 1.45003 61.93C1.35003 62.66 1.26003 63.37 1.12003 64.07C1.03003 64.51 0.900032 64.96 0.770032 65.39C0.660032 65.84 0.530032 66.27 0.440032 66.73C0.270032 67.61 0.0900322 69.34 1.29003 69.58C2.65003 69.85 1.57003 67.91 4.96003 68.57L11.2 69.79C14.05 70.35 12.94 71.83 14.07 72.0599C15.67 72.3699 16.28 69.27 16.48 68.22C17.18 64.67 16.69 64.01 15.9 63.86C14.85 63.65 14.94 64.8299 13.9 64.8099C13.27 64.7999 12.38 64.67 11.75 64.55C10.37 64.28 10.34 64.09 10.43 63.61C10.67 62.41 11.72 62.23 12.78 62.18C15.8 62.07 17.9 62.02 18.59 58.52C19.07 56.05 18.4 54.87 17.57 54.71V54.72ZM8.08003 63.34C7.94003 64.06 7.48003 63.86 6.92003 63.7L4.86003 63.2C4.19003 63.02 3.68003 62.95 3.84003 62.14C4.09003 60.87 5.23003 60.82 6.31003 61.03C7.67003 61.3 8.36003 61.91 8.08003 63.33V63.34Z" fill="#999999"/>
<path d="M27.24 36.55C26.13 35.94 26.44 37.49 24.6 37.31C22.61 37.13 15.01 36.78 14.26 36.8C12.55 36.85 10.22 36.96 9.27999 38.66C8.31999 40.4 8.98999 41.58 10.34 42.33C11.88 43.18 13.16 44.93 14.17 46.28L16.17 48.99C16.63 49.63 17.34 50.56 17.63 51.28C18.02 52.23 17.16 53.14 18.08 53.64C18.7 53.99 19.37 54.02 20.91 51.23C21.34 50.45 22.49 48.33 21.31 47.68C20.29 47.12 20.11 48.65 19.35 48.23C18.39 47.7 18.69 47.07 19.25 46.06C20.99 42.92 21.33 42.47 22.21 42.96C22.89 43.34 21.88 44.33 22.82 44.85C24.03 45.52 24.98 43.85 26.52 41.06C27.06 40.08 28.65 37.34 27.22 36.56L27.24 36.55ZM17.84 42.95L17.03 44.41C16.91 44.63 16.7 45.15 16.37 44.96C16.14 44.83 15.56 44.08 15.39 43.88C15.22 43.68 14.23 42.7 14.49 42.24C14.73 41.81 15.63 41.88 16.04 41.87C16.4 41.87 17.73 41.86 18.02 42.02C18.31 42.18 17.95 42.75 17.84 42.94V42.95Z" fill="#999999"/>
<path d="M29.6 19.3801C28.95 17.5801 29.06 17.5601 29.65 16.7901C29.97 16.3601 30.08 15.8401 29.65 15.4201C29.09 14.8801 28.39 14.8601 26.44 16.8801C25.82 17.5201 23.85 19.5301 24.85 20.4901C25.49 21.1101 26.12 20.1401 26.7 20.6901C27.09 21.0601 27.82 23.2001 28.02 23.7601C28.17 24.2801 28.81 25.4201 28.26 25.9201C27.9 26.2601 27.11 25.8301 26.69 25.7101C25.48 25.2901 23.63 24.7101 23.29 24.3801C22.86 23.9601 23.57 23.1601 22.96 22.5701C22.72 22.3401 22.04 21.4301 18.79 24.8001C18 25.6201 15.6 28.2301 16.83 29.4201C17.17 29.7501 17.56 29.8201 17.92 29.5401C18.62 29.0101 18.95 29.0501 20.46 29.5801L30.6 33.2101C31.69 33.5901 32.46 33.8601 33.36 32.9301C34.2 32.0601 33.77 31.0301 33.44 30.0601L29.61 19.3801H29.6Z" fill="#999999"/>
<path d="M40.55 24.36C40.69 24.61 41.04 25.18 42.32 24.46L50.29 19.94C50.95 19.57 51.53 19.32 51.97 19.11C52.41 18.94 52.75 18.82 52.89 18.74C53.67 18.3 53.37 15.34 52.62 14.02C52.31 13.48 51.61 12.95 50.98 13.31C49.39 14.21 52.06 16.31 48.09 18.56C46.05 19.71 45.94 19.96 44.33 17.13C43.98 16.51 43.54 15.78 44.36 15.32C46.32 14.21 46.27 16.93 47.47 16.25C48.63 15.59 47.45 13.19 47 12.39C46.57 11.63 45.25 9.47997 44.13 10.12C42.75 10.9 45.08 12.43 43.6 13.26C42.42 13.93 42.34 13.92 41.7 12.8C40.44 10.57 40 10.3 42.15 9.07997C45.84 6.98997 45.65 9.55997 47.18 8.68997C47.94 8.25997 47.76 7.35997 47.4 6.71997C46.92 5.86997 45.37 4.22997 44.27 4.85997C43.96 5.03997 43.81 5.62997 41.21 7.10997L35.62 10.28C34.83 10.73 33.09 11.46 33.76 12.64C34.54 14.02 35.15 11.65 36.96 14.54C39.14 17.94 38.93 17.6 40.69 21.26C41.72 23.39 39.92 23.29 40.52 24.35L40.55 24.36Z" fill="#999999"/>
<path d="M54.7301 5C55.0901 6.2 55.5101 7.38 55.8501 8.67C56.1801 9.94 56.5401 11.32 56.9101 12.91C57.5001 15.43 55.5201 14.75 55.8701 16.08C56.1301 17.07 57.2201 16.74 57.9101 16.56L65.1101 14.68C65.8401 14.49 66.3301 14.43 66.7701 14.41C67.1801 14.37 67.5001 14.38 67.8901 14.28C68.8801 14.02 69.5301 11.55 69.0901 9.87C68.8801 9.05 68.2401 8.11 67.2701 8.36C65.8901 8.72 67.9201 11.39 64.2601 12.35C62.7301 12.75 62.2701 12.06 61.8701 10.51L60.0801 3.65C59.5501 1.62 61.5001 2.13 61.1801 0.879998C60.9901 0.149998 60.5801 -0.530002 56.2701 0.599998C55.2101 0.879998 51.8501 1.85 52.2601 3.42C52.5801 4.65 54.2301 3.2 54.7501 5.01L54.7301 5Z" fill="#999999"/>
<path d="M82.35 13.5099C83.26 13.6299 86.19 14.0599 86.37 12.6799C86.48 11.8399 85.68 12.1199 85.96 9.96995L86.18 8.26995C86.31 7.26995 86.38 5.72995 87.79 5.91995C89.87 6.18995 88.79 9.64995 88.47 11.2099C88.17 12.6299 87.49 12.1599 87.39 12.9599C87.23 14.1999 89.36 14.4299 90.15 14.5299C94.31 15.0699 94.34 14.1299 94.39 13.7299C94.51 12.7799 93.55 13.0599 93.67 11.2999C93.89 7.90995 95.24 3.51995 90.67 2.91995C89.41 2.75995 88.68 3.12995 88.19 3.51995C87.69 3.92995 87.43 4.36995 87.07 4.31995C86.74 4.27995 86.67 3.94995 86.7 3.68995C86.72 3.55995 86.76 3.42995 86.77 3.28995C86.83 2.84995 86.57 2.38995 86.09 2.31995C85.65 2.25995 80.42 2.70995 80.26 3.87995C80.11 5.04995 81.53 4.69995 81.27 6.32995L80.75 9.63995C80.4 11.7999 79.51 10.7199 79.37 11.7799C79.2 13.1099 81.45 13.4 82.34 13.5199L82.35 13.5099Z" fill="#999999"/>
<path d="M107.21 20.4499C108.08 20.9599 110.88 22.5099 111.61 21.2599C112.26 20.1399 110.27 20.3199 111.61 17.8799L112.26 16.7599C112.38 16.5499 112.52 16.4999 112.75 16.6299C113.27 16.9299 113.79 17.3699 114.37 17.6999C117.05 19.2599 120.37 19.1299 122.05 16.2599C123.73 13.3699 122.1 10.3799 119.48 8.84995C118.67 8.37995 116.82 7.65994 114.03 6.02994C113.55 5.74994 113.11 5.43994 112.63 5.15994C112.03 4.80994 111.08 4.48994 110.63 5.25994C109.92 6.46994 112.08 6.87994 111.24 8.32994L106.85 15.8599C105.93 17.4399 104.91 15.9699 104.29 17.0299C103.56 18.2799 106.4 19.9599 107.21 20.4299V20.4499ZM114.17 13.5099L115.85 10.6199C116.07 10.2299 116.19 9.98994 116.94 10.4299C118.23 11.1799 118.26 12.5399 117.56 13.7599C116.87 14.9299 115.81 15.6099 114.54 14.8599C113.5 14.2499 113.93 13.9099 114.17 13.5099Z" fill="#999999"/>
<path d="M130.61 34.88C131.34 33.02 133.79 25.81 133.98 25.09C134.41 23.43 134.94 21.16 133.57 19.79C132.17 18.39 130.84 18.7 129.75 19.79C128.5 21.03 126.47 21.77 124.89 22.37L121.74 23.53C121 23.8 119.91 24.22 119.14 24.3C118.11 24.41 117.48 23.34 116.74 24.08C116.23 24.58 116.01 25.22 118.27 27.47C118.9 28.1 120.62 29.79 121.57 28.84C122.39 28.02 120.97 27.42 121.59 26.81C122.36 26.04 122.88 26.5 123.7 27.32C126.24 29.86 126.57 30.32 125.86 31.03C125.31 31.58 124.63 30.34 123.87 31.09C122.89 32.07 124.23 33.44 126.48 35.7C127.27 36.49 129.46 38.78 130.61 37.63C131.51 36.73 129.93 36.6 130.61 34.89V34.88ZM128.6 25.38C128.51 25.73 128.14 27 127.9 27.24C127.66 27.48 127.22 26.97 127.06 26.81L125.88 25.63C125.71 25.46 125.27 25.11 125.53 24.84C125.72 24.65 126.6 24.3 126.84 24.2C127.08 24.09 128.29 23.41 128.67 23.79C129.02 24.14 128.7 24.99 128.59 25.38H128.6Z" fill="#999999"/>
<path d="M141.02 51.62C141.51 51.36 142.04 50.73 141.74 50.16C141.42 49.55 139.86 49.89 138.54 47.39C137.08 44.63 138.74 41.76 141.66 40.22C142.74 39.65 144.5 39.53 145.3 41.05C147.15 44.56 143.39 45.89 144.47 47.92C145.08 49.08 146.38 49.25 147.51 48.66C149.7 47.5 150.38 45.78 149.94 44.96C149.76 44.62 149.56 44.58 149.33 44.15C149.06 43.64 149.37 41.89 148.35 39.95C146.3 36.07 141.19 33.9 137.15 36.03C133.19 38.12 131.71 43.24 133.9 47.38C135.13 49.71 137 50.48 137.36 51.15C137.88 52.14 140.17 52.08 141.04 51.63L141.02 51.62Z" fill="#999999"/>
<path d="M143.01 73.51C144.35 73.26 144.01 71.94 144.63 71.14L149 65.57C149.35 65.14 149.78 64.52 150.37 64.4C151.29 64.23 152.98 65.84 153.5 66.19C154.41 66.81 153.77 69.29 155.56 68.95C157.12 68.66 156.53 66.14 156.33 65.08C156.13 64.03 155.67 61.12 154.05 61.43C153.57 61.52 153.41 61.91 152.96 62C152.46 62.1 149.87 60.79 149.76 60.2C149.69 59.81 150.32 59.66 150.6 59.61C153.18 59.12 152.71 60.46 153.87 60.24C155.38 59.95 154.93 57.68 154.74 56.65C153.83 51.85 152.65 52.28 152.29 52.35C150.95 52.6 151.98 53.61 150.15 54.25C148.86 54.74 147.28 55.02 145.92 55.28C144.67 55.52 143.26 55.76 142 55.79C140.13 55.87 140.52 54.66 139.38 54.88C138.63 55.02 138.13 55.57 138.78 59.03C139.51 62.89 140.26 63.27 140.96 63.13C142.03 62.93 141.86 61.53 142.91 61.33L143.37 61.24C144.01 61.12 144.59 61.1 144.7 61.67C144.8 62.17 143.44 63.77 143.07 64.22L141.53 66.05C140.62 67.13 140.56 67.16 140.72 68.02L141.42 71.75C141.58 72.6 141.9 73.7 143 73.49L143.01 73.51Z" fill="#999999"/>
<path d="M157.03 82.26C157.03 77.93 154.15 75.7 151.83 75.7C150.22 75.7 148.86 76.59 147.88 77.82C145.89 80.3 146.3 83.35 144.69 83.35C143.84 83.35 143.6 82.12 143.6 81.63C143.6 77.53 147.15 77.79 147.15 76.21C147.15 75.54 146.55 75.27 145.95 75.27C144.81 75.27 142.45 75.78 141.85 76.85C141.16 78.12 140.78 80.64 140.78 82.11C140.78 87.31 143.72 89.45 146.33 89.45C148 89.45 149.12 88.76 150.03 87.38C151.75 84.79 151.28 81.74 153.04 81.74C153.84 81.74 154.15 82.48 154.15 83.17C154.15 85.49 151.61 86.36 151.61 87.85C151.61 88.68 152.37 89.17 153.13 89.17C155 89.17 156.72 87.47 156.72 86.72C156.72 86.25 156.41 85.94 156.41 85.63C156.41 85.3 157.03 83.69 157.03 82.26Z" fill="#999999"/>
</g>
<defs>
<clipPath id="clip0_49_578">
<rect width="157.03" height="113.72" fill="white"/>
</clipPath>
</defs>
</svg>
