<svg width="34" height="34" viewBox="0 0 34 34" fill="none" xmlns="http://www.w3.org/2000/svg">
<g clip-path="url(#clip0_3_88)">
<path d="M25.544 23.5408L31.6115 29.6069L29.607 31.6115L23.5408 25.5439C21.2837 27.3533 18.4762 28.3375 15.5834 28.3333C8.54537 28.3333 2.83337 22.6213 2.83337 15.5833C2.83337 8.54534 8.54537 2.83334 15.5834 2.83334C22.6214 2.83334 28.3334 8.54534 28.3334 15.5833C28.3375 18.4762 27.3534 21.2836 25.544 23.5408ZM22.7021 22.4896C24.5 20.6407 25.5041 18.1623 25.5 15.5833C25.5 10.1037 21.0616 5.66668 15.5834 5.66668C10.1037 5.66668 5.66671 10.1037 5.66671 15.5833C5.66671 21.0616 10.1037 25.5 15.5834 25.5C18.1623 25.5041 20.6407 24.5 22.4896 22.7021L22.7021 22.4896Z" fill="white"/>
</g>
<defs>
<clipPath id="clip0_3_88">
<rect width="34" height="34" fill="white"/>
</clipPath>
</defs>
</svg>
