<svg width="30" height="37" viewBox="0 0 30 37" fill="none" xmlns="http://www.w3.org/2000/svg">
<path d="M3.66669 0C3.66669 0.940212 4.56503 1.83334 5.50003 1.83334H23.8334C24.7737 1.83334 25.6667 0.935005 25.6667 0H29.3334C29.3334 3.03758 26.871 5.50003 23.8334 5.50003H16.5L16.5018 9.2804C23.736 10.1834 29.3334 16.3547 29.3334 23.8335V34.8335C29.3334 35.8461 28.5126 36.6669 27.5001 36.6669H1.83334C0.820807 36.6669 0 35.8461 0 34.8335V23.8335C0 16.3542 5.5985 10.1823 12.8335 9.28018L12.8333 5.50003H5.50003C2.45668 5.50003 0 3.04335 0 0H3.66669Z" fill="white"/>
<path d="M5.17651 29.7791V18.442H7.52919V23.4684H7.67865L11.7972 18.442H14.626L10.4022 23.5182L14.6758 29.7791H11.8526L8.71936 25.0959L7.52919 26.5407V29.7791H5.17651Z" fill="#3B6EB6"/>
<path d="M22.6823 22.0956C22.3723 21.0272 21.5198 20.3739 20.2743 20.3739C18.525 20.3739 17.3348 21.7191 17.3348 24.0995C17.3348 26.4964 18.4918 27.8471 20.302 27.8471C21.9073 27.8471 22.8761 26.9393 22.9093 25.5111H20.457V23.7286H25.1845V25.1457C25.1845 28.1239 23.1418 29.9341 20.2854 29.9341C17.1023 29.9341 14.9489 27.7088 14.9489 24.1216C14.9489 20.4459 17.2463 18.287 20.2355 18.287C22.793 18.287 24.7637 19.8591 25.0793 22.0956H22.6823Z" fill="#3B6EB6"/>
</svg>
