<svg width="24" height="24" viewBox="0 0 24 24" fill="none" xmlns="http://www.w3.org/2000/svg">
<path d="M5.00488 6.00256C5.55717 6.00256 6.00488 6.45027 6.00488 7.0026C7.63965 7.0026 9.14352 7.5629 10.3349 8.5021L12.5049 8.5026C13.837 8.5026 15.0339 9.0814 15.8579 10.0013L19.0049 10.0026C20.9972 10.0026 22.7173 11.1678 23.521 12.854C21.1562 15.9746 17.3268 18.0026 13.0049 18.0026C10.2142 18.0026 7.85466 17.3993 5.944 16.3446C5.80557 16.7281 5.43727 17.0026 5.00488 17.0026H2.00488C1.4526 17.0026 1.00488 16.5548 1.00488 16.0026V7.0026C1.00488 6.45027 1.4526 6.00256 2.00488 6.00256H5.00488ZM6.00589 9.0026L6.00488 14.0237L6.05024 14.057C7.84406 15.3175 10.183 16.0026 13.0049 16.0026C16.0089 16.0026 18.8035 14.8469 20.84 12.8731L20.9729 12.7396L20.8537 12.6392C20.3897 12.2762 19.8205 12.0509 19.2099 12.0095L19.0049 12.0026L16.8932 12.0016C16.9663 12.3235 17.0049 12.6585 17.0049 13.0026V14.0026H8.00488V12.0026L14.7949 12.0016L14.7605 11.9231C14.38 11.1295 13.593 10.5678 12.6693 10.5079L12.5049 10.5026L9.57547 10.5024C8.66823 9.577 7.40412 9.0028 6.00589 9.0026ZM4.00488 8.0026H3.00488V15.0026H4.00488V8.0026Z" fill="black"/>
</svg>
