<svg width="168" height="36" viewBox="0 0 168 36" fill="none" xmlns="http://www.w3.org/2000/svg">
<path d="M27.6807 29.4284C27.8253 29.5971 28.2168 29.5067 27.8494 29.1333C27.8494 29.1333 27.5361 29.2598 27.6807 29.4284Z" fill="url(#paint0_linear_57_9)"/>
<path d="M28.5241 28.8923C28.6325 28.7357 28.3193 28.567 28.3193 28.567C28.3193 28.567 28.1385 28.5188 28.1084 28.7296C28.0783 28.9345 28.4217 29.0489 28.5301 28.8983L28.5241 28.8923Z" fill="url(#paint1_linear_57_9)"/>
<path d="M28.506 29.1634C28.3313 29.1814 28.1084 29.1272 28.2349 29.4405C28.3614 29.7537 28.6385 29.4405 28.6385 29.4405C28.6385 29.4405 29.253 29.2959 28.8313 28.9586C28.8313 28.9586 28.6747 29.1453 28.506 29.1634Z" fill="url(#paint2_linear_57_9)"/>
<path d="M29.4879 28.6513C29.4879 28.6513 28.9458 28.5971 29.1807 29.0067C29.1807 29.0067 29.3373 29.0911 29.4879 29.2417C29.6385 29.3923 30.006 29.4405 30.0422 29.2176C30.0723 28.9887 29.9879 28.7236 29.4879 28.6513Z" fill="url(#paint3_linear_57_9)"/>
<path d="M35.3373 27.9646C35.0181 27.9646 35.0301 28.4887 34.9638 28.5007C34.8976 28.5128 34.6084 28.4887 34.6084 28.4887C34.6084 28.4887 34.1265 28.7357 34.5181 29.1333C34.9036 29.5248 35.012 28.6513 35.2108 28.7236C35.4096 28.7959 35.4036 29.0067 35.265 29.073C35.1265 29.1393 34.8614 29.3742 35.1265 29.4525C35.3916 29.5308 36.0241 29.6694 36.0181 29.2839C36.012 28.9043 35.7169 28.8622 35.7169 28.8622C35.7169 28.8622 35.4277 28.5248 35.6385 28.2357C35.6385 28.2357 35.6566 27.9646 35.3373 27.9586V27.9646Z" fill="url(#paint4_linear_57_9)"/>
<path d="M38.5482 27.5007C37.7891 26.4887 36.8976 25.6152 35.9096 24.8923C35.9217 24.8923 33.2289 23.1574 30.994 22.7718L30.4397 22.6754C30.1144 22.6272 29.7891 22.5971 29.4638 22.573C28.8132 22.5308 28.1747 22.5429 27.5422 22.6031C25.9638 22.7537 24.4578 23.1995 23.0904 23.9043H23.0783C19.6385 25.6754 17.0723 29.0188 16.4819 33.1272C16.3434 34.0971 16.3253 35.0549 16.4096 35.9887H17.2169C17.1325 35.0911 17.1446 34.1694 17.2771 33.2417C17.494 31.7417 17.994 30.3562 18.7108 29.1212C18.6747 29.1995 18.6325 29.2778 18.5964 29.3622C18.5964 29.3622 18.6325 29.5549 18.8554 29.6092C19.0783 29.6634 19.2229 29.6815 19.1446 30.1152C19.0602 30.5489 18.9277 31.4586 19.506 31.561C20.0843 31.6634 19.7952 31.1815 19.6566 30.9465C19.5181 30.7176 19.4337 30.0068 19.7651 30.1815C20.0964 30.3562 19.6084 30.3923 20.1084 31.3321C20.6084 32.2718 19.8373 32.1995 20.4337 32.8802C21.0361 33.561 21.3675 32.8441 21.5663 33.0851C21.765 33.326 21.5723 33.4646 21.9699 33.5248C22.3614 33.579 22.1988 33.4104 22.3735 33.7959C22.5482 34.1815 22.6747 34.9405 23.8373 34.6634C23.8373 34.6634 24.0301 35.0911 23.8373 35.3802C23.6807 35.6152 23.2771 35.6513 23.0964 35.9887H28C27.9036 35.7116 27.6747 35.4525 27.1265 35.4465C27.1265 35.4465 26.9578 34.579 26.3614 34.5971C25.765 34.6152 25.6928 34.6694 25.6084 34.5309C25.5241 34.3923 25.4096 33.8441 24.994 33.9586C24.5783 34.067 24.4759 34.6031 24.0723 34.4827C23.6687 34.3622 23.1566 34.3923 23.2771 33.9887C23.3976 33.5851 23.4699 33.1092 22.8313 33.1031C22.8313 33.1031 22.6687 33.0369 22.9337 32.82C23.1988 32.6031 23.0783 32.2718 22.9277 32.2899C22.7771 32.308 22.3313 32.6272 22.1144 32.6393C21.9036 32.6513 21.2229 32.5309 21.5964 31.6995C21.9699 30.8622 23.759 30.7839 23.8855 31.2056C24.0181 31.6272 23.8614 31.7959 24.2831 31.8321C24.6988 31.8682 24.5723 31.1333 24.5723 31.1333L25.7108 30.4284C25.7108 30.4284 25.8313 30.3381 25.9096 30.2055C25.994 30.067 27.3795 29.4043 27.6807 28.9345C27.9819 28.4706 28.0783 28.2116 28.4759 28.4164C28.8675 28.6212 29.0301 28.6634 29.1325 28.4043C29.2349 28.1453 29.753 28.808 29.9638 28.5248C30.1747 28.2357 30.0783 27.8863 29.6446 27.82C29.2108 27.7598 29.7771 27.3321 29.6024 27.2236C29.4277 27.1152 29.0964 27.4887 28.9277 27.3381C28.759 27.1875 29.1144 26.6272 28.5482 26.6092C27.9819 26.5911 27.9096 26.6453 27.7349 27.2718C27.5602 27.9043 27.3132 27.2718 26.8614 27.7417C26.4157 28.2055 26.5181 27.9224 26.4759 27.6453C26.4337 27.3622 26.1265 27.1513 25.8132 27.1272C25.5 27.1031 25.6265 26.5308 26.0843 26.4043C26.5482 26.2778 27.1084 26.067 27.1084 26.067C27.1084 26.067 27.1566 26.4525 27.4879 26.3561C27.8193 26.2537 27.9337 25.9104 27.9337 25.9104L28.265 25.9586C28.265 25.9586 28.4879 25.7176 28.5542 25.7055C28.6205 25.6935 29.3012 25.814 29.3012 25.814C29.3012 25.814 29.6867 25.7839 29.3193 25.9646C28.9578 26.1453 28.7349 25.9224 28.8132 26.2537C28.8916 26.5851 28.9217 26.3983 29.1626 26.6212C29.4036 26.8441 29.7952 26.7959 29.8795 26.4887C29.8795 26.4887 30.3795 26.6875 30.4879 26.3622C30.5964 26.0369 30.3373 25.9405 30.3373 25.9405C30.3373 25.9405 30.2952 25.5128 29.8494 25.2357C29.4036 24.9586 28.2711 24.7357 28.1626 25.3321C28.0542 25.9284 27.6024 25.5489 27.6024 25.5489C27.6024 25.5489 27.8735 25.4164 27.9217 25.0851C27.9699 24.7537 27.0843 24.6031 27.0602 24.8983C27.0422 25.1935 27.253 25.326 27.012 25.3802C26.7711 25.4284 26.5482 25.5068 26.253 25.5248C25.9518 25.5429 25.9217 25.1815 25.9217 25.1815C25.9217 25.1815 26.1506 25.2116 26.4759 25.1333C26.8072 25.0549 27 24.7417 26.6325 24.6272C26.2711 24.5128 26.6566 24.9043 25.8494 24.7899C25.8494 24.7899 25.747 24.7537 25.6626 24.4887C25.5723 24.2236 24.8313 24.0971 24.5663 24.3321C24.3012 24.567 24.4397 24.7598 24.6626 24.8321C24.8855 24.9043 24.5663 25.0489 24.9157 25.1212C25.2651 25.1935 25.4096 25.2357 25.3072 25.326C25.2169 25.4104 23.7108 24.9827 23.5181 24.6031C25.0843 23.814 26.8373 23.3682 28.6687 23.3682C29.2108 23.3682 29.759 23.4043 30.3132 23.4887C31.2048 23.6152 32.0663 23.8501 32.8855 24.1694C33.2169 24.308 33.6385 24.4284 34.1446 24.7537C35.4036 25.4345 36.5301 26.3441 37.4699 27.4646C37.4217 27.5308 37.3193 27.6212 37.0663 27.6333C36.6385 27.6574 36.3735 28.1694 36.6687 28.4827C36.9638 28.8019 37.4096 28.6333 37.3976 28.8622C37.3855 29.0911 37.3072 29.2116 36.9699 29.0549C36.6325 28.8983 36.4157 28.9345 36.3313 29.2357C36.247 29.5429 36.1084 29.7718 35.8675 29.6574C35.6325 29.5369 35.0723 29.7357 35.3373 30.2357C35.3373 30.2357 35.4638 30.6754 35.1626 30.567C34.8614 30.4586 34.0783 30.1754 34.0361 30.9104C33.994 31.6453 34.6506 31.6333 35.2169 31.5007C35.7831 31.3682 36.0723 30.6935 36.0723 30.6935C36.0723 30.6935 36.6446 30.9887 36.8675 30.6152C36.8675 30.6152 37.1084 31.308 37.4518 31.3983C37.4518 31.3983 37.1265 31.4586 37.1867 31.7839C37.247 32.1092 38.1988 31.9525 37.994 31.326C37.7891 30.7055 36.8193 30.7959 37.3976 30.4586C37.9759 30.1212 38.2349 31.0851 38.241 31.3441C38.241 31.5971 38.0301 32.1995 38.5301 31.9766C39.0301 31.7537 38.9217 31.0188 39.0783 31.3983C39.2349 31.7778 38.9398 32.2055 39.3976 32.2477C39.6687 32.2718 39.8193 32.2959 39.8976 32.314C39.9759 32.6513 40.0361 32.9887 40.0843 33.3321C39.8554 33.3501 39.0843 33.3863 38.994 33.1212C38.8916 32.808 38.5482 32.6995 37.8554 32.808C37.1626 32.9224 37.4337 32.6393 37.1928 32.5429C36.9518 32.4465 36.6928 32.4947 36.6928 32.4947C36.6928 32.4947 37.4036 31.2417 34.9578 31.7598C34.9578 31.7598 33.9879 31.4525 33.6687 32.061C33.3494 32.6694 33.4819 32.7537 32.5843 33.0068C31.6807 33.2598 32.3675 33.8019 32.3675 33.8019C32.3675 33.8019 32.6566 33.9947 32.3132 34.1935C31.9638 34.3983 31.8193 34.9887 31.9759 35.3501C32.0482 35.5068 32.1807 35.7537 32.3313 35.9947H40.9458C41.2229 32.9586 40.3795 29.9646 38.5301 27.5007H38.5482Z" fill="url(#paint5_linear_57_9)"/>
<path d="M39.1566 22.5429C39.1145 22.4887 39.0542 22.4525 38.994 22.4345C39.0904 22.7658 39.0783 23.1092 39.0542 23.4465C39.0301 23.7839 39.0301 24.1333 38.9699 24.4646C38.8675 25.0067 38.4699 25.4586 37.9639 25.6574C37.994 25.6995 38.0301 25.7417 38.0602 25.7839C38.0843 25.814 38.1145 25.8441 38.1566 25.8561C38.2048 25.8682 38.247 25.8441 38.2892 25.82C38.6024 25.6393 38.9337 25.4465 39.0964 25.1212C39.2108 24.8983 39.2229 24.6393 39.2349 24.3863C39.253 23.9827 39.2711 23.5851 39.2952 23.1815C39.3072 22.9586 39.3132 22.7176 39.1747 22.5429H39.1566Z" fill="#ED1C24"/>
<path d="M29.759 10.1333L29.7952 10.2176C29.7952 10.2176 29.8373 10.1694 29.8494 10.1333C29.8916 10.0429 29.8855 9.94651 29.8313 9.92241C29.7831 9.89831 29.7048 9.95855 29.6687 10.0489C29.6265 10.1393 29.6325 10.2357 29.6867 10.2598C29.7108 10.2718 29.7349 10.2598 29.759 10.2477V10.1333Z" fill="#ED1C24"/>
<path d="M21.3132 24.3802C21.259 24.2959 21.2048 24.2116 21.1446 24.1272C21.0723 24.0188 20.994 23.9164 20.9217 23.8079C20.6265 23.3802 20.3193 22.9646 20.012 22.5429C19.9578 22.4706 19.9096 22.3983 19.8554 22.326C19.7892 22.2357 19.7229 22.1453 19.6566 22.0489C19.6265 22.0128 19.6024 21.9706 19.5723 21.9345C19.5602 21.9224 19.5542 21.9104 19.5422 21.8923C19.5241 21.8682 19.506 21.8441 19.4879 21.814C19.4639 21.826 19.4398 21.8501 19.4096 21.8682C19.3132 21.8682 19.2229 22.0067 19.3132 22.1031C19.6506 22.4766 19.9639 22.8682 20.253 23.2778C20.5422 23.6875 20.7771 24.1152 21.0361 24.5369C21.1446 24.7116 21.2831 24.6875 21.4337 24.6092C21.4157 24.567 21.3976 24.5308 21.3735 24.4887C21.3494 24.4525 21.3313 24.4104 21.3072 24.3742L21.3132 24.3802Z" fill="#ED1C24"/>
<path d="M38.8554 24.2839C38.8855 23.9827 38.9036 23.6815 38.9217 23.3863C38.9458 23.061 38.9578 22.7357 38.8554 22.4224C38.7952 22.4405 38.7409 22.4706 38.6867 22.5007C38.2168 22.8019 38.3976 22.9525 37.8373 23.0128L37.6566 22.7839C37.6144 22.8381 37.5964 22.9104 37.5843 22.9827C37.5843 22.9827 37.5783 22.9827 37.5723 22.9827C37.4337 22.9827 37.2952 22.9706 37.1566 22.9586C37.1566 22.8441 37.1506 22.7296 37.1446 22.6212C37.2108 22.6513 35.747 22.2296 35.1506 21.6574C34.8012 21.326 34.0783 20.3983 33.7169 19.6995C33.5723 19.7357 33.4277 19.7718 33.2891 19.808C33.1566 19.8381 32.994 19.9104 32.8795 19.7959C32.8253 19.7417 32.8072 19.6634 32.7831 19.5971C32.759 19.5429 32.7349 19.4827 32.7169 19.4405C32.6506 19.2839 32.5843 19.1333 32.5181 18.9827C32.5 18.9345 32.4759 18.8863 32.4578 18.8381C32.4458 18.814 32.4337 18.7899 32.4277 18.7658C32.3976 18.6995 32.3735 18.6393 32.3434 18.573C32.3012 18.573 32.265 18.573 32.2229 18.573C31.3795 18.573 30.512 18.308 29.7409 17.9827C29.5181 17.8923 29.3012 17.7839 29.0903 17.6694C28.994 17.6152 28.8976 17.5549 28.8012 17.4947C28.7409 17.4525 28.5843 17.3863 28.5662 17.308C28.5602 17.2778 28.5662 17.2417 28.5783 17.1995C28.5964 17.1152 28.6385 17.0248 28.6566 16.9706C28.6867 16.8802 28.7289 16.808 28.765 16.7236C28.8253 16.6031 28.8132 16.4887 28.7831 16.3682C28.8675 16.326 28.9458 16.2839 29.0181 16.2417C29.3675 16.0429 29.6807 15.7899 29.9699 15.5128C30.5361 14.9646 31 14.32 31.4337 13.6634C31.6506 13.3381 31.8554 12.9646 31.9036 12.561C32.0482 12.573 32.1867 12.5911 32.3313 12.6031C32.3614 12.6453 32.3976 12.6814 32.4277 12.7236C32.7409 13.1574 32.9458 13.6754 33.1265 14.1814C33.4699 15.1574 33.6807 16.1814 33.8554 17.1995C33.8614 17.2417 33.8735 17.2839 33.8795 17.326C33.9277 17.5911 33.9699 17.8622 34.012 18.1272C34.0361 18.2718 34.0783 18.6092 33.8554 18.6092C33.7349 18.6092 33.6084 18.561 33.4879 18.5489C33.3554 18.5308 33.2168 18.5308 33.0843 18.5308C32.9458 18.5308 32.8012 18.5429 32.6626 18.5489C32.6928 18.6092 32.7229 18.6754 32.753 18.7357C32.753 18.7477 32.765 18.7598 32.7711 18.7718C32.7711 18.7839 32.7831 18.7959 32.7891 18.808C32.8012 18.8381 32.8193 18.8682 32.8313 18.9043C32.8373 18.9284 32.8373 18.9465 32.8313 18.9706C32.8434 18.9947 32.8494 19.0128 32.8614 19.0369C32.9337 19.1995 33 19.3561 33.0662 19.5188C33.0662 19.5308 33.0843 19.561 33.0903 19.579H33.1024C33.1446 19.567 33.1807 19.561 33.2229 19.5489C33.3554 19.5188 33.4879 19.4827 33.6265 19.4525C33.506 19.1513 33.4819 18.9224 33.6385 18.8561C33.6867 18.8622 33.7289 18.8742 33.7771 18.8802C34.2771 18.9586 34.3373 18.4284 34.2771 18.061C34.2349 17.7778 34.1867 17.4887 34.1385 17.2055C34.1084 17.0248 34.0723 16.8441 34.0422 16.6694C34.1928 16.8501 34.3675 17.0068 34.5783 17.1272C34.6385 17.1634 34.6988 17.1814 34.759 17.2055C35.1084 17.3501 35.4819 17.3682 35.8554 17.2959C35.9638 17.2778 36.0662 17.2417 36.1687 17.2055C36.6325 17.0248 36.994 16.6694 37.1446 16.1694C37.3132 15.6272 37.259 15.0308 37.1446 14.4827C37.0662 14.0851 36.9397 13.7176 36.7831 13.3501C36.7409 13.2537 36.7048 13.1634 36.6626 13.067C36.6807 13.067 36.6988 13.067 36.7169 13.073C36.9879 13.1031 37.265 13.1513 37.5422 13.1634C37.7891 13.1694 38.0241 13.079 38.265 13.1092C38.3614 13.1212 38.4096 13.0128 38.3976 12.9405C38.3855 12.8622 38.3735 12.7839 38.3614 12.7055C38.3494 12.6333 38.2952 12.6092 38.2409 12.6092C38.2409 12.6092 38.2349 12.6092 38.2289 12.6092C37.6506 12.5489 37.0723 12.4827 36.4879 12.4224C36.4819 12.332 36.4879 12.2357 36.5 12.1453C36.5903 12.079 36.6687 11.9827 36.6988 11.8682C36.6988 11.8561 36.6988 11.8381 36.7048 11.826C37.1928 11.826 37.6506 11.5128 37.8313 11.0549C37.9458 10.7598 37.9277 10.4345 37.9397 10.1212C37.9518 9.83807 38 9.53687 38.2289 9.3441C38.3313 9.25976 38.2229 9.07301 38.0964 9.1212C37.3554 9.38627 36.7771 9.9947 36.5181 10.7296C36.6084 9.78386 36.1626 8.85614 35.6024 8.10313C35.5361 8.0188 35.3855 8.01277 35.3554 8.13325C35.1144 9.10313 35.2229 10.1393 35.6687 11.0369C35.7108 11.1212 35.759 11.2236 35.8253 11.2959C35.7831 11.332 35.747 11.3682 35.7169 11.4224C35.6265 11.579 35.6325 11.7718 35.7048 11.9284C35.7108 11.9465 35.7289 11.9586 35.7409 11.9766C35.7169 12.0971 35.6626 12.2176 35.5964 12.332C34.3855 12.1995 33.1747 12.073 31.9638 11.9345C31.8012 11.82 31.6325 11.7116 31.4518 11.6333C31.4458 11.6333 31.4337 11.6333 31.4277 11.6333C31.4036 11.5971 31.3795 11.561 31.3494 11.5248C31.5783 11.4284 31.7108 11.1814 31.8132 10.9465C31.8313 10.9043 31.8434 10.7839 31.8554 10.6935L31.9819 10.7598C32.1506 10.8019 32.3253 10.814 32.494 10.814C32.5542 10.814 32.6084 10.814 32.6626 10.814C32.753 10.814 32.8193 10.7658 32.8494 10.6935C32.8855 10.5971 32.8313 10.4706 32.7169 10.3742C32.6747 10.3381 32.6325 10.3019 32.5903 10.2658L32.5723 10.2477L34.0723 9.68747C34.0723 9.68747 33.759 9.68747 33.3915 9.73566L33.2349 9.85012L33.259 9.75374C33.259 9.75374 33.2108 9.75976 33.1867 9.76578L33.0482 9.92241L33.0723 9.78386C32.9277 9.81398 32.7891 9.85614 32.6626 9.91036C32.6928 9.82602 32.7229 9.74169 32.7409 9.65735C32.759 9.57904 32.7229 9.45253 32.6566 9.37422C32.2169 8.83205 31.2289 8.3441 30.5663 8.3441H30.5482C30.4638 8.3441 30.3915 8.39229 30.3434 8.43446C30.2711 8.4947 30.1988 8.56096 30.1265 8.6212C30.012 8.72361 29.8976 8.82602 29.7711 8.91639C29.7349 8.94048 29.6205 8.93446 29.5482 8.92843C29.4819 8.92843 29.3735 8.88627 29.2711 8.85614C29.0783 8.7959 28.9156 8.73566 28.8313 8.7959C28.8132 8.80795 28.7831 8.83807 28.7831 8.89229C28.7831 8.89831 28.7831 8.91036 28.7831 8.91639C28.9096 9.15735 29.2169 9.38627 29.5482 9.60313C29.4397 9.70554 29.3132 9.83205 29.265 9.91639C29.0903 9.89831 28.9277 9.85012 28.753 9.83205C28.6687 9.82 28.5964 9.92843 28.6205 10.0007C28.6867 10.1694 28.8132 10.2899 28.9277 10.4224C28.9578 10.4586 28.9458 10.4284 28.9518 10.4706C28.9518 10.4706 28.9518 10.4586 28.9518 10.4827C28.9518 10.5007 28.9518 10.5188 28.9518 10.5308C28.9518 10.6814 28.9217 10.832 28.9397 10.9827C28.9578 11.1814 29.0422 11.3561 29.1988 11.4827C29.3012 11.567 29.4156 11.6212 29.5361 11.6574C28.4578 11.5308 27.3735 11.4043 26.2952 11.2718C26.2289 11.2658 26.1626 11.2537 26.0964 11.2477C26.0602 11.0128 26.0482 10.7778 26.0361 10.5549C26.0361 10.4706 25.9518 10.3983 25.8675 10.4224C25.747 10.4646 25.6506 10.5308 25.5663 10.6152C25.512 10.579 25.4518 10.5549 25.3855 10.561C25.2831 10.561 25.2108 10.6212 25.1566 10.6995C25.0964 10.6694 25.0241 10.6573 24.9518 10.6754C24.8735 10.6935 24.8193 10.7477 24.7831 10.808C24.7409 10.7899 24.6988 10.7718 24.6506 10.7658C24.5482 10.7658 24.4397 10.814 24.3855 10.9104C24.3193 11.0308 24.3735 11.1573 24.4217 11.2658C24.4337 11.2959 24.4518 11.326 24.4699 11.3561C24.4337 11.5128 24.4638 11.7116 24.4759 11.8561C24.4879 11.9827 24.4759 12.1694 24.6446 12.1875C24.741 12.1935 24.8494 12.1272 24.9337 12.0911C24.9458 12.0911 24.9578 12.079 24.9699 12.073C25.0843 12.1935 25.2169 12.3019 25.3554 12.4043C25.6084 13.1634 25.9397 13.8923 26.3554 14.573C26.5723 14.9284 26.8132 15.2718 27.0723 15.6031C27.1928 15.7598 27.3253 15.9104 27.4578 16.061C27.5964 16.2116 27.7349 16.3983 27.9156 16.4947C28.1084 16.6031 28.3132 16.5851 28.5181 16.5128C28.5241 16.5429 28.5361 16.573 28.5301 16.5971C28.5181 16.6574 28.4699 16.7176 28.4458 16.7718C28.3855 16.8983 28.3132 17.079 28.2952 17.2357C28.2891 17.2839 28.2831 17.3321 28.2952 17.3742C28.3012 17.4345 28.3313 17.4827 28.3675 17.5308C26.4096 17.8863 24.6928 19.5851 23.2771 20.9827C23.1807 21.079 23.0843 21.1754 22.9879 21.2718C22.8193 21.3742 22.3795 22.0851 22.3795 22.0851C22.3253 22.1935 22.2771 22.3019 22.247 22.4224C22.3012 22.5308 22.3494 22.6272 22.4036 22.7296C22.3916 22.7417 22.3795 22.7598 22.3614 22.7718C22.3434 22.7899 22.3253 22.808 22.3012 22.826C22.2891 22.8381 22.2771 22.8441 22.2711 22.8561C22.2711 22.8561 22.259 22.8622 22.253 22.8682C22.241 22.8742 22.2349 22.8802 22.2229 22.8923C22.2108 22.8983 22.1988 22.9104 22.1928 22.9164C22.1265 22.8321 22.0361 22.7959 21.8855 22.8682C21.6566 22.9766 21.4458 23.1092 21.2349 23.2477C21 22.8682 20.7229 22.5068 20.3976 22.1995C20.2048 22.0188 19.8976 21.7839 19.6265 21.826C19.6626 21.8742 19.6988 21.9164 19.7289 21.9586C19.7349 21.9646 19.747 21.9766 19.753 21.9887C19.7831 22.0308 19.8193 22.073 19.8494 22.1212C20.1807 22.579 20.5181 23.0308 20.8494 23.4887C21.0482 23.7658 21.2711 24.0549 21.4578 24.3622C21.4819 24.3983 21.506 24.4345 21.5241 24.4766C21.5482 24.5188 21.5602 24.561 21.5843 24.5971C21.7831 24.4887 21.9819 24.3742 22.1747 24.2537C22.247 24.2116 22.3494 24.1574 22.4397 24.0971L22.5783 24.0248C22.5783 24.0248 22.7169 23.9706 22.7108 23.9646C22.6928 23.9224 22.6506 23.8321 22.6024 23.7296L22.8735 23.561C22.9458 23.6935 23.0241 23.826 23.1024 23.9706H23.1144C24.0542 23.2357 25.1144 22.6513 26.2349 22.2417C27.3554 21.8321 28.5422 21.5971 29.7349 21.5549C29.7229 21.5369 29.6807 21.4887 29.6265 21.4164C29.2952 20.9827 28.3554 19.6694 28.3916 18.326C28.3976 18.1031 28.4337 17.8742 28.5 17.6574C28.506 17.6574 28.5181 17.6694 28.5241 17.6754C28.5241 17.6754 28.5301 17.6754 28.5361 17.6814C28.5241 17.8682 28.5241 18.0429 28.5361 18.2176C28.5843 19.4224 29.0783 20.32 29.8253 21.4284C30 21.6875 30.1867 21.9284 30.3855 22.1634C30.5 22.2959 30.6205 22.4104 30.7409 22.5369C31.5843 23.4887 34.1867 24.8019 36.6506 24.7417C36.8313 24.7417 36.9819 24.579 37.0843 24.4284C37.1747 24.2959 37.2048 24.1333 37.2108 23.9706C37.4217 23.9345 37.6325 23.9104 37.8434 23.8682C38 23.8562 38.0723 23.7839 38.1928 23.8441C38.3614 23.9224 38.4156 24.1513 38.3614 24.3321C38.3072 24.5128 38.1747 24.6574 38.0602 24.8019C37.9458 24.9465 37.8313 25.1152 37.8313 25.308C37.8313 25.4164 37.8675 25.5188 37.9217 25.6152C37.9277 25.6031 37.9337 25.5911 37.9518 25.5851C38.4759 25.3802 38.8253 24.8983 38.8855 24.3441L38.8554 24.2839ZM33.2289 18.8019C33.2289 18.8019 33.2711 18.8019 33.2891 18.8019C33.3072 18.8019 33.3193 18.8019 33.3373 18.808C33.3012 18.808 33.265 18.808 33.2289 18.808V18.8019ZM37.6385 10.6634C37.5723 11.1513 37.1807 11.5188 36.6928 11.5308C36.7409 11.4887 36.7831 11.4405 36.8313 11.3923C37.1566 11.073 37.4337 10.7116 37.6626 10.32C37.6626 10.4345 37.6506 10.5549 37.6385 10.6634ZM37.0361 10.2477C37.1325 10.1092 37.2409 9.97663 37.3614 9.86217C37.4217 9.80193 37.4879 9.74771 37.5542 9.69952C37.6205 9.6453 37.6867 9.59711 37.759 9.55494C37.7229 9.6694 37.6988 9.78386 37.6867 9.90434C37.6385 9.89229 37.5843 9.90434 37.5542 9.9706C37.4397 10.1935 37.3072 10.4104 37.1566 10.6092C37.006 10.814 36.8434 11.0007 36.6687 11.1814C36.7229 10.8501 36.8494 10.5308 37.0361 10.2477ZM22.765 22.5068C22.765 22.5068 22.8072 22.567 22.8012 22.6031C22.8012 22.567 22.7891 22.5308 22.765 22.5068ZM22.4819 23.4646C22.4217 23.326 22.3614 23.1995 22.3313 23.1453C22.3253 23.1272 22.3193 23.1152 22.3072 23.0971C22.3855 23.0429 22.4578 22.9947 22.5241 22.9345C22.5241 22.9345 22.5301 22.9284 22.5361 22.9224C22.5361 22.9224 22.5301 22.9284 22.5241 22.9345C22.5903 23.061 22.6626 23.1815 22.7289 23.308L22.4759 23.4646H22.4819ZM33.7891 14.6574C33.7349 14.7839 33.6928 14.9164 33.6626 15.0489C33.6385 14.9586 33.6144 14.8742 33.5903 14.7839C33.5783 14.7417 33.5662 14.6935 33.5542 14.6513C33.5422 14.6092 33.5301 14.561 33.5181 14.5188C33.4699 14.3682 33.4096 14.2116 33.3554 14.061C33.3012 13.9043 33.253 13.7537 33.1928 13.6031C33.1325 13.4525 33.0662 13.3019 32.994 13.1574C32.9217 13.0128 32.8434 12.8682 32.753 12.7357C32.7409 12.7176 32.7289 12.7055 32.7169 12.6875C32.7048 12.6754 32.6928 12.6574 32.6807 12.6393C33.4578 12.7116 34.2289 12.7899 35.006 12.8682C35.0542 12.8682 35.1084 12.8802 35.1566 12.8863C35.012 13.0549 34.8494 13.2176 34.6928 13.3802C34.6144 13.4586 34.5361 13.5429 34.4578 13.6272C34.2771 13.832 34.1144 14.0549 33.9759 14.2899C33.9036 14.4104 33.8434 14.5308 33.7891 14.6574ZM37.9759 12.826C37.8675 12.8381 37.753 12.8622 37.6385 12.8682C37.5783 12.8682 37.5241 12.8682 37.4638 12.8682C37.2891 12.8622 37.1084 12.826 36.9337 12.808C36.8072 12.7959 36.6747 12.7778 36.5482 12.7658C36.5482 12.7537 36.5422 12.7357 36.5361 12.7236C36.5361 12.7176 36.5361 12.7116 36.5361 12.6995C36.5361 12.6875 36.5361 12.6754 36.5301 12.6634C37.012 12.7176 37.5 12.7718 37.9819 12.82L37.9759 12.826ZM36.259 11.6333L36.2771 11.6212C36.2771 11.6212 36.2771 11.6212 36.2831 11.6212H36.2952C36.2952 11.6212 36.2952 11.6212 36.3072 11.6212C36.3072 11.6212 36.3132 11.6272 36.3193 11.6333C36.3193 11.6393 36.3253 11.6453 36.3313 11.6513C36.3313 11.6574 36.3313 11.6634 36.3373 11.6694V11.6814V11.6935C36.3373 11.6995 36.3373 11.7116 36.3373 11.7176C36.3373 11.7176 36.3373 11.7296 36.3373 11.7357C36.3373 11.7357 36.3373 11.7417 36.3373 11.7477C36.3373 11.7477 36.3373 11.7537 36.3373 11.7598C36.3373 11.7598 36.3373 11.7598 36.3373 11.7658C36.3373 11.7658 36.3373 11.7718 36.3313 11.7778C36.3313 11.7839 36.3253 11.7899 36.3193 11.7959C36.3193 11.7959 36.3193 11.8019 36.3193 11.808C36.3193 11.808 36.3193 11.814 36.3132 11.82C36.3132 11.82 36.3132 11.826 36.3072 11.832C36.3072 11.832 36.3072 11.832 36.3072 11.8381C36.3072 11.8381 36.3072 11.8381 36.3072 11.8441C36.3072 11.8441 36.3072 11.8441 36.3012 11.8501C36.2891 11.8561 36.2771 11.8682 36.259 11.8742C36.259 11.8742 36.259 11.8742 36.253 11.8742C36.253 11.8742 36.247 11.8742 36.2409 11.8742C36.2349 11.8742 36.2229 11.8802 36.2168 11.8863C36.1928 11.8923 36.1687 11.8983 36.1446 11.9043C36.1385 11.9043 36.1265 11.9043 36.1205 11.9043C36.1205 11.9043 36.1144 11.9043 36.1084 11.9043C36.1084 11.9043 36.1024 11.9043 36.0964 11.9043C36.0964 11.9043 36.0903 11.9043 36.0843 11.9043C36.0843 11.9043 36.0783 11.9043 36.0723 11.9043C36.0723 11.9043 36.0602 11.8983 36.0542 11.8923C36.0482 11.8923 36.0422 11.8863 36.0361 11.8802C36.0361 11.8802 36.0241 11.8742 36.0241 11.8682C36.0241 11.8682 36.0181 11.8622 36.012 11.8561C36.012 11.8561 36.012 11.8561 36.006 11.8501C36.006 11.8501 36.006 11.8501 36 11.8441C36 11.8441 36 11.8441 36 11.8381C35.9879 11.826 35.9819 11.808 35.9759 11.7959C35.9759 11.7959 35.9759 11.7959 35.9759 11.7899C35.9759 11.7899 35.9759 11.7899 35.9759 11.7839C35.9759 11.7839 35.9759 11.7718 35.9759 11.7658C35.9759 11.7598 35.9699 11.7537 35.9699 11.7477C35.9699 11.7357 35.9638 11.7236 35.9578 11.7055C35.9578 11.7055 35.9578 11.7055 35.9578 11.6935C35.9578 11.6935 35.9578 11.6875 35.9578 11.6814C35.9578 11.6694 35.9578 11.6513 35.9578 11.6393C35.9578 11.6393 35.9578 11.6272 35.9578 11.6212C35.9578 11.6092 35.9578 11.5971 35.9638 11.5851C35.9638 11.5851 35.9638 11.573 35.9638 11.567C35.9638 11.567 35.9638 11.5549 35.9699 11.5489C35.9699 11.561 35.9699 11.5549 35.9699 11.5489C35.9699 11.5489 35.9699 11.5369 35.9759 11.5369C35.9759 11.5308 35.9819 11.5248 35.9879 11.5188C35.9879 11.5188 36.006 11.4947 36.006 11.4887C36.006 11.4887 36.012 11.4827 36.0181 11.4766C36.0181 11.4766 36.0181 11.4766 36.0241 11.4706C36.0301 11.4646 36.0241 11.4706 36.0301 11.4646C36.0361 11.4646 36.0482 11.4525 36.0542 11.4465C36.0542 11.4465 36.0662 11.4405 36.0723 11.4345C36.0723 11.4345 36.0843 11.4284 36.0903 11.4224H36.1024C36.1205 11.4224 36.1325 11.4104 36.1506 11.4104C36.1506 11.4104 36.1506 11.4104 36.1566 11.4104C36.1566 11.4104 36.1566 11.4104 36.1626 11.4104C36.1446 11.4224 36.1385 11.4345 36.1205 11.4465C36.0903 11.4706 36.0662 11.4947 36.0422 11.5248C36.0301 11.5429 36.0181 11.567 36.012 11.5911C36 11.6152 35.9879 11.6333 35.9819 11.6574C35.9638 11.7116 35.994 11.7658 36.0422 11.7959C36.0422 11.7959 36.0602 11.82 36.0783 11.826C36.1144 11.832 36.1506 11.826 36.1807 11.814C36.2108 11.7959 36.2349 11.7718 36.247 11.7357C36.247 11.7357 36.247 11.7296 36.247 11.7236C36.247 11.7236 36.247 11.7236 36.247 11.7176C36.247 11.7176 36.253 11.7055 36.259 11.6995C36.259 11.6935 36.265 11.6875 36.2711 11.6814C36.2711 11.6814 36.2711 11.6814 36.2711 11.6754C36.2711 11.6754 36.2711 11.6754 36.2771 11.6694C36.2771 11.6694 36.2771 11.6694 36.2831 11.6634L36.259 11.6333ZM36.3434 11.7598C36.3434 11.7598 36.3434 11.7598 36.3434 11.7537C36.3434 11.7658 36.3434 11.7658 36.3434 11.7598ZM36.0602 11.9104C36.0602 11.9104 36.0662 11.9104 36.0723 11.9164C36.0723 11.9164 36.0662 11.9164 36.0602 11.9164V11.9104ZM36.1325 11.3983C36.1385 11.3983 36.1385 11.3983 36.1385 11.3983C36.1385 11.3983 36.1385 11.3983 36.1265 11.3983H36.1325ZM35.7169 10.4646C35.5482 9.98867 35.4759 9.48265 35.5 8.98265C35.5 8.89831 35.5181 8.81398 35.5241 8.72964C35.5301 8.6453 35.5361 8.56096 35.5482 8.48265C35.5964 8.55494 35.6446 8.63325 35.6928 8.70554C35.7831 8.85614 35.8675 9.01277 35.9458 9.17542C36.1325 9.57904 36.253 10.0007 36.253 10.4345C36.2289 10.3441 36.1988 10.2477 36.1687 10.1574C36.0723 9.88024 35.9759 9.60916 35.8855 9.33205C35.8614 9.27181 35.8132 9.24169 35.765 9.24169C35.7289 9.24169 35.6988 9.24771 35.6687 9.26578C35.6446 9.28386 35.6205 9.31398 35.6205 9.3441C35.6205 9.36217 35.6205 9.38024 35.6265 9.39831C35.6626 9.4947 35.6988 9.59711 35.7349 9.69349C35.7711 9.78988 35.8072 9.89229 35.8434 9.98868C35.9156 10.1875 35.9819 10.3863 36.0241 10.5911C36.0241 10.6152 36.0301 10.6393 36.0361 10.6634C36.0482 10.7357 36.0602 10.808 36.0602 10.8802C36.0602 10.8983 36.0602 10.9224 36.0602 10.9465C36.0602 10.9827 36.0482 11.0188 36.0301 11.0369C36.0301 11.0369 36.0181 11.0429 36.012 11.0429C36 11.0429 35.9819 11.0308 35.9638 10.9947C35.9156 10.9104 35.8735 10.82 35.8313 10.7296C35.7891 10.6393 35.753 10.5489 35.7229 10.4525L35.7169 10.4646ZM35.5542 12.7959C35.5542 12.7959 35.5964 12.7477 35.6144 12.7236C35.6205 12.7116 35.6265 12.6995 35.6385 12.6875C35.6385 12.6875 35.6446 12.6754 35.6506 12.6694C35.6626 12.6574 35.6687 12.6393 35.6807 12.6272C35.6928 12.6152 35.6988 12.5971 35.7108 12.5851C35.7229 12.567 35.7349 12.5429 35.753 12.5188C35.765 12.5007 35.7771 12.4766 35.7952 12.4586C35.8012 12.4465 35.8072 12.4345 35.8132 12.4284C35.8253 12.4104 35.8373 12.3863 35.8494 12.3682C35.8494 12.3682 35.8434 12.3923 35.8373 12.3983C35.8373 12.4104 35.8313 12.4224 35.8253 12.4284C35.8253 12.4405 35.8193 12.4525 35.8132 12.4586C35.8072 12.4766 35.8012 12.5007 35.7952 12.5188C35.7952 12.5248 35.7952 12.5369 35.7891 12.5429C35.7891 12.561 35.7771 12.573 35.7711 12.5911C35.7711 12.6092 35.759 12.6212 35.753 12.6393C35.753 12.6574 35.7409 12.6694 35.7349 12.6875C35.7229 12.7296 35.7048 12.7718 35.6867 12.82C35.6687 12.8622 35.6566 12.9043 35.6385 12.9525C35.6024 13.0549 35.5662 13.1574 35.5301 13.2537C35.4397 13.4947 35.3434 13.7296 35.2349 13.9646C35.1928 14.061 35.1446 14.1513 35.0964 14.2417C35.0903 14.2537 35.0783 14.2718 35.0723 14.2839C35.0662 14.2959 35.0542 14.314 35.0482 14.326C35.0422 14.3381 35.0301 14.3441 35.0241 14.3561C35.0181 14.3682 35.006 14.3802 35 14.3863C34.9819 14.4043 34.9879 14.4164 34.9819 14.4345C34.9759 14.4525 34.9638 14.4706 34.9638 14.4827C34.9638 14.5007 34.9699 14.5188 34.9759 14.5308C35 14.579 35.0422 14.6092 35.0903 14.6152C35.1084 14.6152 35.1205 14.6031 35.1385 14.5971C35.1566 14.5911 35.1747 14.5971 35.1867 14.579C35.2771 14.4827 35.3434 14.3622 35.3976 14.2417C35.4156 14.1995 35.4397 14.1574 35.4578 14.1212C35.512 14.0007 35.5602 13.8742 35.6144 13.7537C35.6687 13.6272 35.7229 13.5067 35.7711 13.3802C35.7891 13.3381 35.8012 13.2899 35.8193 13.2477C35.8494 13.1574 35.8855 13.073 35.9156 12.9827C35.9217 12.9586 35.9337 12.9405 35.9397 12.9164C35.9458 12.8923 35.9578 12.8742 35.9638 12.8501C35.9699 12.826 35.9819 12.808 35.9879 12.7839C35.994 12.7598 36.006 12.7417 36.012 12.7176C36.012 12.7055 36.0181 12.6995 36.0241 12.6875C36.0301 12.6694 36.0422 12.6453 36.0482 12.6272C36.0602 12.5851 36.0723 12.5429 36.0903 12.5067C36.1024 12.4646 36.1205 12.4224 36.1325 12.3802C36.1385 12.3501 36.1446 12.32 36.1566 12.2899C36.1566 12.3019 36.1566 12.308 36.1566 12.32C36.1566 12.3381 36.1506 12.3561 36.1446 12.3802C36.1446 12.4043 36.1385 12.4224 36.1325 12.4465C36.1325 12.4706 36.1265 12.4887 36.1205 12.5128C36.1205 12.5429 36.1205 12.573 36.1205 12.6031C36.1205 12.6152 36.1205 12.6333 36.1205 12.6453C36.1205 12.6574 36.1205 12.6694 36.1205 12.6754C36.1205 12.6995 36.1205 12.7176 36.1205 12.7417C36.1205 12.7658 36.1205 12.7839 36.1205 12.808C36.1205 12.82 36.1205 12.832 36.1205 12.8441C36.1205 12.8561 36.1205 12.8682 36.1205 12.8802C36.1205 12.9284 36.1205 12.9706 36.1205 13.0188C36.1265 13.1513 36.1446 13.2839 36.1687 13.4164C36.1928 13.5489 36.2289 13.6754 36.2711 13.8019C36.2891 13.8622 36.3434 13.8923 36.3915 13.8923C36.4096 13.8923 36.4277 13.8923 36.4397 13.8923C36.4879 13.8802 36.5301 13.8441 36.5361 13.7899C36.5361 13.7718 36.5361 13.7537 36.5301 13.7357C36.5241 13.7116 36.5181 13.6875 36.512 13.6634C36.506 13.6393 36.5 13.6152 36.494 13.5911C36.4578 13.4465 36.4277 13.3019 36.4096 13.1574C36.4638 13.2959 36.5241 13.4345 36.5783 13.573C36.6385 13.7116 36.6928 13.8501 36.7349 13.9947C36.7771 14.1272 36.8193 14.2658 36.8494 14.4104C36.8855 14.5489 36.9096 14.6935 36.9337 14.8381C36.9518 14.9827 36.9699 15.1272 36.9759 15.2718C36.9759 15.4164 36.9759 15.561 36.9638 15.6995C36.9578 15.7778 36.9458 15.8561 36.9277 15.9284C36.8976 16.079 36.8494 16.2176 36.7831 16.3441C36.753 16.4104 36.6988 16.4586 36.6566 16.5188C36.6144 16.579 36.5843 16.6393 36.5301 16.6935C36.4819 16.7417 36.4277 16.7899 36.3675 16.8321C36.247 16.9164 36.1144 16.9827 35.9578 17.0248C35.9096 17.0369 35.8554 17.0429 35.8072 17.0549C35.759 17.067 35.7048 17.079 35.6566 17.0851C35.5542 17.0971 35.4518 17.1031 35.3494 17.1031C35.253 17.1031 35.1807 17.1031 35.1084 17.0851C35.0361 17.073 34.9699 17.0489 34.8735 17.0128C34.5662 16.8802 34.3012 16.6574 34.1205 16.3863C34.0783 16.32 34.0361 16.2477 34 16.1694C33.9819 16.1333 33.9699 16.0911 33.9578 16.0549C33.9156 15.9405 33.8855 15.82 33.8675 15.6935C33.8614 15.6092 33.8554 15.5248 33.8675 15.4405C33.8795 15.2778 33.9156 15.1152 33.9699 14.9586C34.0783 14.6453 34.259 14.3561 34.4638 14.0911C34.5662 13.9586 34.6747 13.8321 34.7831 13.7176C35.0181 13.4646 35.253 13.2236 35.4638 12.9586C35.5 12.9164 35.5361 12.8802 35.5662 12.832L35.5542 12.7959ZM30.1566 8.86819C30.2831 8.74169 30.4036 8.62723 30.5422 8.5188C30.5783 8.48867 30.7108 8.4947 30.8313 8.52482C31.3554 8.66337 31.7952 8.88627 32.1566 9.18747L31.1506 8.73566C31.0723 8.68145 30.8373 8.60916 30.7891 8.60313C30.7349 8.59711 30.7048 8.61518 30.6867 8.6453C30.6626 8.68747 30.6867 8.74169 30.7711 8.83205C30.9156 8.98868 31.1205 9.04289 31.3193 9.09711C31.4156 9.12121 31.512 9.15133 31.6024 9.18747L31.6325 9.19952C31.8434 9.28988 32.0602 9.38024 32.2711 9.48868C32.3012 9.50675 32.3494 9.58506 32.3494 9.60313C32.3012 9.74771 32.2409 9.92241 32.1687 10.0971C32.1687 10.0911 32.1566 10.0851 32.1506 10.079C31.994 10.0067 31.8434 9.94048 31.6867 9.87422C31.1265 9.62723 30.5542 9.37422 30.0482 8.97663C30.0843 8.94048 30.1205 8.90434 30.1566 8.86819ZM29.8976 9.07301C30.4578 9.58506 31.1446 9.86819 31.8072 10.1333L31.8976 10.1694C31.9759 10.1995 32.0602 10.1875 32.1325 10.1694C32.1205 10.1995 32.1024 10.2296 32.0903 10.2598C32.0723 10.2778 31.9518 10.2839 31.8855 10.2537L31.8434 10.2357C31.2108 9.95253 30.5542 9.65735 29.9759 9.22361C29.8614 9.13928 29.8554 9.10916 29.8554 9.10313C29.8554 9.10313 29.8614 9.09108 29.8916 9.07904L29.8976 9.07301ZM29.4156 9.11518C29.4156 9.11518 29.3434 9.06096 29.2952 9.01277C29.3434 9.03084 29.3916 9.04892 29.4217 9.06096C29.5542 9.12121 29.6446 9.17542 29.7048 9.22964C29.8373 9.36217 29.9819 9.47663 30.1265 9.57904C29.9518 9.4706 29.7831 9.35615 29.6144 9.24169C29.5482 9.19952 29.4819 9.15133 29.4156 9.10916V9.11518ZM29.3976 11.2417C29.1506 11.0489 29.2409 10.7417 29.2409 10.4706C29.2409 10.4043 29.2349 10.332 29.1988 10.2718C29.1687 10.2116 28.9518 10.0489 29.1446 10.0971C29.2349 10.1152 29.247 10.1453 29.3373 10.1453C29.3795 10.1453 29.4337 10.1212 29.4518 10.079C29.5361 9.91036 29.5783 9.77181 29.7048 9.6453C29.7229 9.65735 29.7409 9.66337 29.759 9.67542C29.9277 9.77181 30.1446 9.88024 30.3072 9.96458C30.3313 9.97663 30.3735 9.97663 30.4156 9.98265C30.4699 10.0128 30.5301 10.0489 30.5903 10.079C30.5361 10.1995 30.4578 10.3561 30.4638 10.4706C30.4638 10.5851 30.6084 10.6513 30.6928 10.567C30.7831 10.4706 31.012 10.3441 31.1024 10.5128C31.1988 10.6875 30.9759 10.6875 30.8795 10.7598C30.7349 10.8682 30.747 11.0489 30.8132 11.1935C30.8795 11.332 30.9759 11.4646 31.0723 11.5971C30.7771 11.6634 30.4638 11.6453 30.1807 11.5188C30.0964 11.4827 30.0361 11.4405 29.9458 11.4284C29.8675 11.4164 29.7891 11.4043 29.7108 11.3863C29.5964 11.3561 29.4819 11.32 29.3855 11.2417H29.3976ZM26.1807 11.4827C27.0783 11.5971 27.9819 11.6995 28.8855 11.8019C29.7891 11.9104 30.6867 12.0188 31.5903 12.1212C31.6325 12.1212 31.6687 12.1333 31.7108 12.1333C31.753 12.1333 31.7891 12.1453 31.8313 12.1453C31.8313 12.1453 31.8434 12.1453 31.8494 12.1453C31.8494 12.1453 31.8614 12.1453 31.8675 12.1453C31.9156 12.1453 31.9638 12.1574 32.0181 12.1634C32.1144 12.1754 32.2169 12.1875 32.3132 12.1935C33.3494 12.308 34.3795 12.4224 35.4156 12.5308C35.3915 12.561 35.3735 12.5911 35.3494 12.6212C34.759 12.5549 34.1687 12.5007 33.5843 12.4405C33.4397 12.4284 33.2891 12.4104 33.1446 12.3923C33 12.3742 32.8494 12.3622 32.7048 12.3441C32.6205 12.3381 32.5361 12.332 32.4518 12.32C32.3132 12.308 32.1747 12.2959 32.0361 12.2839C31.994 12.2839 31.9458 12.2778 31.9036 12.2718C31.8132 12.2658 31.7229 12.2537 31.6325 12.2477C31.4036 12.2296 31.1747 12.2055 30.9458 12.1875C30.7169 12.1694 30.4879 12.1453 30.259 12.1272C30.2229 12.1272 30.1867 12.1212 30.1506 12.1152C30.1144 12.1152 30.0783 12.1092 30.0422 12.1031C29.0301 12.0248 28.0181 11.9586 27.006 11.9104C26.9036 11.9104 26.8012 11.9043 26.6988 11.8983C26.6626 11.8983 26.6325 11.8983 26.5964 11.8983C26.5301 11.8983 26.4578 11.8983 26.3916 11.8923C26.3916 11.8923 26.3855 11.8923 26.3795 11.8923C26.3735 11.8802 26.3614 11.8682 26.3554 11.8622C26.2771 11.7357 26.2169 11.6031 26.1747 11.4586L26.1807 11.4827ZM29.5964 12.3682C29.506 12.4224 29.4217 12.4766 29.3373 12.5369C29.253 12.5971 29.1687 12.6574 29.0903 12.7236C28.9217 12.8622 28.7711 13.0128 28.6325 13.1754C28.5602 13.2537 28.494 13.3381 28.4277 13.4224C28.3614 13.5067 28.2952 13.5911 28.2289 13.6754C27.6325 13.2598 27.0903 12.7658 26.6205 12.2055C26.7831 12.2116 26.9518 12.2236 27.1144 12.2296C27.4458 12.2477 27.7771 12.2598 28.1084 12.2778C28.4397 12.2959 28.7711 12.32 29.1024 12.3441C29.265 12.3561 29.4337 12.3622 29.5964 12.3742V12.3682ZM24.759 11.832C24.759 11.832 24.759 11.7959 24.759 11.7839C24.759 11.7778 24.759 11.7658 24.759 11.7598C24.7711 11.7778 24.7891 11.8019 24.8012 11.82C24.7891 11.82 24.7771 11.832 24.765 11.8381L24.759 11.832ZM25.5843 12.1814C25.5723 12.1754 25.5663 12.1694 25.5542 12.1634C25.506 12.1333 25.4638 12.0971 25.4217 12.061C25.3916 12.0369 25.3554 12.0128 25.3253 11.9887C25.2349 11.9104 25.1506 11.82 25.0723 11.7236C25.0361 11.6814 24.994 11.6453 24.9638 11.6031C24.9036 11.5188 24.8494 11.4224 24.7952 11.332C24.7711 11.2899 24.741 11.2537 24.7229 11.2116C24.7229 11.1995 24.7108 11.1875 24.6988 11.1634C24.6867 11.1453 24.6747 11.1212 24.6626 11.0971C24.6506 11.073 24.6446 11.0549 24.6385 11.0369C24.6325 11.0188 24.6325 11.0067 24.6385 11.0007C24.6446 10.9887 24.6747 11.0007 24.7048 11.0128C24.7349 11.0308 24.765 11.0549 24.7831 11.067C24.7831 11.067 24.7831 11.067 24.7891 11.067C24.8494 11.1212 24.9217 11.1092 24.9699 11.067C25 11.0369 25.0241 10.9947 25.012 10.9405C25.006 10.8923 25.0723 10.8742 25.0843 10.9224C25.0964 10.9525 25.1144 10.9766 25.1385 10.9887C25.2108 11.0369 25.3193 11.0248 25.3434 10.9224C25.3554 10.8742 25.3675 10.82 25.4096 10.7959C25.4156 10.7959 25.4156 10.7959 25.4277 10.7959C25.4337 10.7959 25.4397 10.7959 25.4397 10.7959C25.4397 10.832 25.4518 10.8561 25.4699 10.8802C25.5241 10.9465 25.6446 10.9465 25.6928 10.8622C25.7108 10.832 25.7409 10.8019 25.7711 10.7778C25.7831 10.7658 25.7952 10.7477 25.8072 10.7357C25.8072 10.7839 25.8193 10.832 25.8193 10.8802C25.8253 10.9766 25.8313 11.079 25.8494 11.1754C25.8554 11.2176 25.8675 11.2658 25.8735 11.308C25.8795 11.3561 25.8916 11.4043 25.9036 11.4525C25.9217 11.5308 25.9458 11.6092 25.9759 11.6875C25.994 11.7417 26.0181 11.7899 26.0422 11.8381C26.0542 11.8622 26.0602 11.8863 26.0723 11.9104C26.0723 11.9104 26.0723 11.9224 26.0783 11.9284C26.0783 11.9284 26.0783 11.9405 26.0843 11.9465C26.0843 11.9465 26.0843 11.9586 26.0903 11.9646C26.0964 11.9766 26.1084 11.9947 26.1144 12.0067C26.1205 12.0248 26.1325 12.0369 26.1385 12.0489C26.1385 12.0489 26.1385 12.0489 26.1385 12.0549C26.012 12.0911 25.8855 12.1272 25.759 12.1634C25.7108 12.1754 25.6626 12.1935 25.6144 12.2055C25.6024 12.1995 25.5903 12.1875 25.5783 12.1754L25.5843 12.1814ZM28.4578 16.2055C28.4036 16.2236 28.3494 16.2417 28.3012 16.2477C28.253 16.2477 28.2048 16.2477 28.1626 16.2477C28.0723 16.2296 27.9879 16.1814 27.9036 16.0971C27.7771 15.9706 27.6566 15.8381 27.5361 15.7055C27.3795 15.5248 27.241 15.326 27.1024 15.1333C27.0301 15.0369 26.9518 14.9465 26.8855 14.8501C26.7831 14.6995 26.6867 14.5489 26.5964 14.3983C26.4096 14.0971 26.241 13.7839 26.0903 13.4646C26.012 13.3019 25.9458 13.1453 25.8735 12.9766C25.8072 12.814 25.7409 12.6453 25.6867 12.4827C25.7952 12.4525 25.9036 12.4164 26.012 12.3863C26.1205 12.3561 26.2289 12.32 26.3373 12.2899C26.512 12.5067 26.7108 12.7055 26.9096 12.9043C27.0602 13.0489 27.2108 13.1935 27.3675 13.326C27.5542 13.4887 27.7349 13.6513 27.9277 13.7959C28.012 13.8561 28.0964 13.9224 28.1807 13.9827C28.1988 13.9947 28.2169 14.0007 28.2289 14.0007C28.265 14.0007 28.2952 13.9947 28.3253 13.9706C28.3373 13.9586 28.3494 13.9465 28.3614 13.9345C28.5602 13.6694 28.765 13.4104 28.994 13.1754C29.0723 13.0971 29.1506 13.0248 29.2349 12.9525C29.3132 12.8863 29.4036 12.82 29.4879 12.7598C29.5723 12.6995 29.6626 12.6393 29.753 12.5851C29.8675 12.5128 29.9699 12.4586 30.0843 12.4164C30.5964 12.4586 31.1084 12.5007 31.6144 12.5429C31.6144 12.573 31.6024 12.5971 31.5964 12.6272C31.5843 12.6814 31.5783 12.7417 31.5602 12.7959C31.4518 13.1513 31.2289 13.4646 31.0181 13.7658C30.9217 13.9104 30.8193 14.0489 30.7169 14.1875C30.512 14.4646 30.3012 14.7417 30.0723 14.9947C29.9578 15.1212 29.8373 15.2477 29.7108 15.3682C29.4699 15.5971 29.2048 15.808 28.9217 15.9766C28.8434 16.0248 28.765 16.067 28.6867 16.1092C28.6084 16.1513 28.5241 16.1875 28.4397 16.2176L28.4578 16.2055ZM37.1807 23.6453C37.1807 23.5068 37.1687 23.3682 37.1687 23.2296C37.3012 23.2417 37.4397 23.2477 37.5783 23.2537C37.5783 23.2537 37.5903 23.2537 37.5964 23.2477C37.6084 23.3561 37.6325 23.4706 37.6566 23.573C37.5 23.6031 37.3434 23.6272 37.1867 23.6513L37.1807 23.6453Z" fill="#ED1C24"/>
<path d="M0.114446 28.8682C0.114446 28.5188 0.0843252 28.3561 0.0602288 28.2296C0.0301083 28.1152 0.00601196 28.0489 0.00601196 27.8983C0.00601196 27.579 0.632518 26.9224 1.51204 26.9224C1.92167 26.9224 2.18673 27.1333 2.18673 27.5489C2.18673 28.2598 1.22288 28.2477 1.22288 28.6634C1.22288 28.9826 1.66264 28.9465 1.7289 28.9465H4.2289C5.19878 28.9465 4.73493 28.1995 5.30722 28.1995C5.56023 28.1995 5.91565 28.3561 5.91565 29.8802C5.91565 30.2959 5.93372 31.82 5.30722 31.82C4.87348 31.82 5.04818 31.314 4.73493 31.1513C4.56625 31.067 4.07228 31.0369 3.87348 31.0308L2.07228 30.9646C1.21686 30.9345 1.22288 31.1031 1.22288 31.2176C1.22288 31.5851 2.18673 31.7658 2.18673 32.4224C2.18673 32.7417 1.89155 32.9284 1.6024 32.9284C0.909626 32.9284 0.00601196 32.3441 0.00601196 31.8742C0.00601196 31.82 0.0301083 31.7296 0.0602288 31.573C0.0843252 31.4164 0.114446 31.1995 0.114446 30.8742V28.8682Z" fill="url(#paint6_linear_57_9)"/>
<path d="M1.81324 25.0549C0.572279 24.814 0.963845 25.5188 0.469869 25.4224C0.0301102 25.3381 0.0963753 24.6995 0.156616 24.3802C0.186737 24.2116 0.23493 24.0549 0.277098 23.8923C0.325291 23.7357 0.373484 23.573 0.403604 23.4104C0.451797 23.1574 0.487942 22.8983 0.524086 22.6272C0.566255 22.3682 0.6024 22.1031 0.650592 21.8441C0.825291 20.9405 1.43372 19.9706 2.49397 20.1814C2.97589 20.2778 3.39156 20.5971 3.51806 21.0911C3.54216 21.1694 3.55421 21.2296 3.65059 21.2477C3.77107 21.2718 3.82529 21.1754 3.87951 21.0851C4.19879 20.567 4.61445 20.3923 5.49999 20.4465C6.26505 20.4947 5.91565 19.8863 6.40361 19.9827C6.70481 20.0429 6.95782 20.4706 6.7771 21.3742C6.52409 22.6513 5.75903 22.6694 4.65662 22.7116C4.27107 22.7296 3.88553 22.7899 3.8012 23.2296C3.76505 23.4043 3.7771 23.4766 4.28312 23.573C4.51204 23.6212 4.83734 23.6634 5.07228 23.6694C5.4518 23.6754 5.42168 23.2477 5.80722 23.32C6.09638 23.3742 6.27108 23.6212 6.01806 24.9164C5.94577 25.3019 5.72288 26.4345 5.13855 26.32C4.72288 26.2357 5.1265 25.6935 4.09035 25.4887L1.81324 25.0429V25.0549ZM2.53011 23.2718C2.73493 23.326 2.9036 23.4043 2.9518 23.1393C3.05421 22.6212 2.8012 22.3923 2.3012 22.2959C1.90963 22.2176 1.48794 22.2357 1.39758 22.6995C1.33734 22.9947 1.52409 23.0248 1.77107 23.0851L2.52409 23.2658L2.53011 23.2718Z" fill="url(#paint7_linear_57_9)"/>
<path d="M5.17469 16.9043C4.80722 16.4104 4.33734 15.7718 3.7771 15.4586C3.28312 15.1875 3.04216 14.7537 3.39155 14.1212C3.73493 13.5007 4.58433 13.4586 5.21083 13.4405C5.48192 13.4345 8.26505 13.561 8.98794 13.6272C9.66264 13.6935 9.54216 13.1272 9.9518 13.3501C10.4699 13.6393 9.89155 14.6393 9.69276 14.9947C9.12649 16.0128 8.78312 16.6272 8.34336 16.3802C7.99999 16.1935 8.36746 15.826 8.12047 15.6875C7.80119 15.5128 7.67469 15.6754 7.03613 16.82C6.83131 17.1935 6.72288 17.4224 7.07228 17.6152C7.34939 17.7658 7.41565 17.2116 7.78914 17.4164C8.21686 17.6513 7.80119 18.4284 7.63854 18.7116C7.07228 19.7296 6.83131 19.7176 6.6024 19.5911C6.26505 19.4043 6.5783 19.073 6.43975 18.7296C6.33131 18.4646 6.07228 18.1272 5.9036 17.8923L5.17469 16.9043ZM6.51806 15.6875C6.56023 15.6152 6.69276 15.4104 6.58433 15.3501C6.47589 15.2899 5.99396 15.2959 5.86143 15.2959C5.71083 15.2959 5.37951 15.2718 5.29517 15.4284C5.19878 15.5971 5.56023 15.9586 5.62649 16.0308C5.68674 16.1031 5.9036 16.3802 5.98794 16.4224C6.10842 16.4887 6.18673 16.3019 6.2289 16.2236L6.52408 15.6875H6.51806Z" fill="url(#paint8_linear_57_9)"/>
<path d="M12.2169 10.9766C12.3373 11.332 12.494 11.7116 12.1867 12.0248C11.8554 12.3622 11.5783 12.2658 11.1807 12.1272L7.47589 10.8019C6.9277 10.6092 6.80119 10.5971 6.54818 10.7899C6.41565 10.8923 6.27107 10.8622 6.15059 10.7477C5.69878 10.314 6.5783 9.35614 6.86746 9.06096C8.0542 7.83205 8.30722 8.15735 8.39155 8.24771C8.61445 8.46458 8.35541 8.75373 8.51204 8.91036C8.63252 9.03084 9.31324 9.24169 9.753 9.39831C9.9036 9.44048 10.1928 9.59711 10.3253 9.47663C10.5241 9.2959 10.2891 8.88024 10.2349 8.68747C10.1626 8.48265 9.89758 7.69952 9.753 7.56699C9.54216 7.36217 9.31324 7.71759 9.0783 7.4947C8.71685 7.1453 9.43372 6.41036 9.66264 6.17542C10.3735 5.43446 10.6325 5.44651 10.8373 5.63928C10.994 5.78988 10.9578 5.98265 10.8373 6.13928C10.6205 6.42241 10.5843 6.42843 10.8193 7.08506L12.2169 10.9887V10.9766Z" fill="url(#paint9_linear_57_9)"/>
<path d="M15.0662 2.59109C16.0181 2.05494 16.0723 1.83205 16.1807 1.77181C16.5843 1.54289 17.1506 2.13928 17.3253 2.45253C17.4578 2.68747 17.5241 3.01277 17.247 3.1694C16.6867 3.48868 16.753 2.54892 15.4096 3.31398C14.6205 3.75976 14.7831 3.85615 15.2409 4.67542C15.4759 5.08506 15.5 5.09109 15.9337 4.8441C16.4699 4.53687 15.6205 3.98265 16.1265 3.6935C16.5361 3.45856 17.0181 4.24771 17.1747 4.5188C17.3373 4.80795 17.7711 5.68747 17.3494 5.92844C16.9096 6.17542 16.9277 5.18747 16.2108 5.59109C15.9156 5.75976 16.0723 6.02482 16.1988 6.25374C16.7831 7.28988 16.8253 7.19952 17.5723 6.77783C19.0241 5.95253 18.0482 5.18747 18.6265 4.85615C18.8554 4.72964 19.1084 4.91639 19.2229 5.11518C19.494 5.59711 19.6024 6.68145 19.3193 6.83807C19.2711 6.86819 19.1446 6.91036 18.9819 6.9706C18.8193 7.04289 18.6084 7.13326 18.3675 7.27181L15.4518 8.92241C14.9819 9.18747 14.8554 8.97663 14.8072 8.88627C14.5843 8.4947 15.247 8.53687 14.8675 7.75374C14.2229 6.41639 14.3012 6.53687 13.5 5.29591C12.8373 4.24169 12.6144 5.10313 12.3313 4.60313C12.0843 4.1694 12.7229 3.90434 13.012 3.74169L15.0542 2.58506L15.0662 2.59109Z" fill="url(#paint10_linear_57_9)"/>
<path d="M21.1566 6.04892C20.9036 6.11518 20.506 6.23566 20.4096 5.87422C20.2831 5.38627 21.006 5.63325 20.7891 4.71759C20.6566 4.13928 20.5241 3.63325 20.4036 3.1694C20.2831 2.69952 20.1265 2.26578 19.994 1.82602C19.8072 1.1694 19.2048 1.69349 19.0843 1.24771C18.9337 0.669398 20.1626 0.32 20.5482 0.21759C22.1265 -0.192048 22.2711 0.0549398 22.3434 0.32C22.4638 0.777831 21.747 0.591084 21.9458 1.33205L22.6024 3.83807C22.753 4.40434 22.9157 4.65735 23.4759 4.51277C24.8132 4.16337 24.0723 3.18747 24.5783 3.05494C24.9337 2.96458 25.1626 3.30795 25.241 3.60313C25.4036 4.21759 25.1687 5.12121 24.8012 5.21759C24.6566 5.25374 24.5422 5.25374 24.3916 5.26578C24.2349 5.27181 24.0542 5.2959 23.7891 5.36217L21.1566 6.04892Z" fill="url(#paint11_linear_57_9)"/>
<path d="M31.4036 3.63928C31.3012 4.42241 31.5964 4.32 31.5542 4.62723C31.4879 5.12723 30.4156 4.9706 30.0843 4.92843C29.759 4.88627 28.9397 4.77783 29 4.2959C29.0482 3.91036 29.3795 4.30193 29.506 3.51277L29.6988 2.30193C29.7952 1.70554 29.2771 1.83807 29.3313 1.41036C29.3855 0.982651 31.3012 0.82 31.4578 0.838072C31.6385 0.862169 31.7289 1.03084 31.7048 1.19349C31.6988 1.24169 31.6867 1.28988 31.6807 1.33807C31.6687 1.43446 31.6928 1.55494 31.8132 1.56699C31.9397 1.58506 32.0361 1.42241 32.2229 1.27783C32.4036 1.13928 32.6687 1.00072 33.1325 1.06096C34.8072 1.27783 34.3072 2.88024 34.2289 4.12121C34.1867 4.76578 34.5361 4.66337 34.494 5.01277C34.4759 5.15735 34.4638 5.50072 32.9458 5.30193C32.6566 5.26578 31.8795 5.18145 31.9337 4.72964C31.9699 4.44048 32.2229 4.60916 32.3313 4.09109C32.4458 3.52482 32.8434 2.25976 32.0783 2.15735C31.5602 2.09108 31.5361 2.65133 31.4879 3.0188L31.4096 3.63928H31.4036Z" fill="url(#paint12_linear_57_9)"/>
<path d="M40.6446 3.04891C40.9518 2.51879 40.1626 2.37422 40.4217 1.92843C40.5843 1.6453 40.9337 1.76578 41.1506 1.89229C41.3253 1.9947 41.4879 2.10916 41.6626 2.21157C42.6807 2.80795 43.3614 3.06699 43.6566 3.24169C44.6144 3.80193 45.2108 4.89229 44.5964 5.9465C43.9879 6.9947 42.7711 7.04289 41.7891 6.4706C41.5783 6.35012 41.3855 6.18747 41.1988 6.07904C41.1144 6.03084 41.0662 6.04891 41.0181 6.12723L40.7771 6.53687C40.2831 7.42843 41.012 7.36217 40.7771 7.77181C40.512 8.22964 39.4819 7.65735 39.1687 7.47663C38.8735 7.30193 37.8373 6.68747 38.1024 6.22964C38.3253 5.8441 38.7048 6.38024 39.0361 5.80193L40.6385 3.04891H40.6446ZM42.7289 3.80795C42.4518 3.6453 42.4096 3.73566 42.3313 3.88024L41.7169 4.93446C41.6325 5.08506 41.4759 5.20554 41.8554 5.42843C42.3193 5.69952 42.7108 5.45253 42.9578 5.02482C43.2169 4.57904 43.2048 4.08506 42.7349 3.80795H42.7289Z" fill="url(#paint13_linear_57_9)"/>
<path d="M45.6325 8.1694C46.2108 7.95253 46.9518 7.68145 47.4096 7.22361C47.8072 6.82602 48.2891 6.71157 48.8012 7.22361C49.3012 7.72361 49.1084 8.55494 48.9518 9.15735C48.8795 9.42241 47.9879 12.0549 47.7229 12.7357C47.4759 13.3622 48.0482 13.4104 47.7229 13.7357C47.3012 14.1573 46.5 13.32 46.2169 13.0308C45.3916 12.2055 44.9036 11.7055 45.259 11.3501C45.5361 11.073 45.7831 11.5308 45.9819 11.326C46.241 11.067 46.1205 10.8983 45.1928 9.9706C44.8916 9.6694 44.7048 9.50072 44.4217 9.78386C44.1988 10.0067 44.7169 10.2296 44.4157 10.5248C44.0723 10.8682 43.4397 10.2537 43.2108 10.0248C42.3855 9.19952 42.4699 8.9706 42.6506 8.78386C42.9217 8.51277 43.1506 8.90434 43.5241 8.86819C43.8072 8.83807 44.2048 8.68145 44.4759 8.58506L45.6265 8.15735L45.6325 8.1694ZM46.4277 9.7959C46.4879 9.85615 46.6446 10.0369 46.7349 9.95253C46.8193 9.86819 46.9518 9.39831 46.9879 9.27181C47.0301 9.12723 47.1446 8.81398 47.0181 8.68747C46.8795 8.54892 46.4337 8.7959 46.3494 8.83807C46.265 8.88024 45.9397 9.00675 45.8735 9.07301C45.7771 9.1694 45.9337 9.2959 46 9.36217L46.4337 9.7959H46.4277Z" fill="url(#paint14_linear_57_9)"/>
<path d="M54.1928 14.5851C54.5662 15.2899 54.4518 15.9284 54.5542 16.1212C54.6385 16.2778 54.7108 16.2959 54.7771 16.4164C54.9397 16.7176 54.6867 17.3501 53.8915 17.7718C53.4819 17.9887 53.006 17.9284 52.7831 17.5007C52.3915 16.7598 53.765 16.2718 53.0843 14.9887C52.7891 14.4345 52.1506 14.4766 51.753 14.6875C50.6867 15.2537 50.0783 16.3019 50.6144 17.308C51.0964 18.2236 51.6687 18.0971 51.7831 18.32C51.8915 18.5308 51.7048 18.7598 51.5241 18.8561C51.2048 19.0248 50.3675 19.0429 50.1807 18.6815C50.0542 18.4345 49.3675 18.1513 48.9156 17.3019C48.1144 15.7899 48.6566 13.9164 50.1024 13.1513C51.5783 12.3742 53.4458 13.1634 54.1928 14.5851Z" fill="url(#paint15_linear_57_9)"/>
<path d="M52.2711 23.4646C52.4036 23.2959 52.9036 22.7176 52.8674 22.5308C52.8253 22.32 52.6144 22.3321 52.3795 22.3742L52.2108 22.4043C51.8253 22.4766 51.8915 22.9887 51.5 23.061C51.2409 23.1092 50.9699 22.9706 50.7048 21.561C50.4638 20.2959 50.6506 20.0971 50.9217 20.0429C51.3373 19.9646 51.1988 20.4043 51.8795 20.3742C52.3434 20.3622 52.8554 20.2718 53.3132 20.1875C53.8072 20.0911 54.3855 19.9947 54.8614 19.814C55.5301 19.579 55.1566 19.2116 55.6446 19.1212C55.7711 19.0971 56.2048 18.9405 56.5361 20.6935C56.6084 21.067 56.7711 21.8983 56.2229 22.0068C55.8012 22.0851 55.9699 21.5971 55.0301 21.7778C54.9277 21.7959 54.6927 21.8501 54.7229 21.9947C54.765 22.2116 55.7048 22.6875 55.8915 22.6513C56.0602 22.6212 56.1144 22.4766 56.2891 22.4405C56.8795 22.326 57.0482 23.3923 57.1205 23.7778C57.1927 24.1634 57.4096 25.0851 56.8373 25.1875C56.1807 25.314 56.4156 24.4043 56.0843 24.1754C55.8915 24.0429 55.2771 23.4586 54.9397 23.5188C54.7229 23.561 54.5662 23.7899 54.4397 23.9465L52.8434 25.9827C52.6144 26.2718 52.7409 26.7537 52.253 26.8501C51.8554 26.9284 51.7349 26.5248 51.6747 26.2116L51.4156 24.8501C51.3554 24.5369 51.3795 24.5248 51.7108 24.1333L52.2711 23.4646Z" fill="url(#paint16_linear_57_9)"/>
<path d="M55.4759 27.6574C56.3253 27.6574 57.3735 28.4706 57.3735 30.0549C57.3735 30.579 57.1446 31.1634 57.1446 31.2839C57.1446 31.3983 57.259 31.5128 57.259 31.6815C57.259 31.9586 56.6325 32.579 55.9458 32.579C55.6686 32.579 55.3915 32.3983 55.3915 32.0971C55.3915 31.5489 56.3192 31.2357 56.3192 30.3863C56.3192 30.1333 56.2048 29.8622 55.9096 29.8622C55.265 29.8622 55.4397 30.9766 54.8072 31.9224C54.4759 32.4284 54.0662 32.6815 53.4518 32.6815C52.5 32.6815 51.4217 31.8983 51.4217 30.0007C51.4217 29.4646 51.5602 28.5429 51.8132 28.079C52.0361 27.6875 52.8976 27.5007 53.3132 27.5007C53.5361 27.5007 53.753 27.5971 53.753 27.8441C53.753 28.4224 52.4578 28.326 52.4578 29.826C52.4578 30.0068 52.5482 30.4525 52.8554 30.4525C53.4397 30.4525 53.2952 29.3381 54.018 28.4345C54.3735 27.9887 54.8735 27.6634 55.4578 27.6634L55.4759 27.6574Z" fill="url(#paint17_linear_57_9)"/>
<path d="M69.0058 19.9678V14.9151C69.0058 12.6008 71.0597 10.9452 73.5176 10.9452C75.4215 10.8707 77.1639 12.005 77.8505 13.7694H80.3083V10.3323H82.345V26H80.3083V20.6323H77.9717C77.4986 22.6717 75.6177 24.0695 73.5118 23.9434C71.054 23.9434 69 22.3394 69 19.9678H69.0058ZM73.5176 22.305C74.2388 22.3509 74.9426 22.0816 75.4504 21.5718C75.8312 21.0562 76.0215 20.4318 75.9985 19.7959V15.0927C76.0215 14.4626 75.8312 13.8439 75.4561 13.334C74.9542 12.8185 74.2503 12.5435 73.5233 12.5836C72.7964 12.5378 72.0809 12.8127 71.5732 13.334C71.204 13.8439 71.0193 14.4683 71.0482 15.0927V19.7959C71.0193 20.4318 71.204 21.0562 71.5732 21.5718C72.0867 22.0816 72.7964 22.3509 73.5176 22.305ZM78.0294 18.8851H80.3083V15.5052H78.0294V18.8851ZM84.6297 11.3405H87.6818V10H89.7185V11.3405H92.7706V12.9789H84.624V11.3405H84.6297ZM96.8785 19.9506V16.1468H95.3496V19.6699H93.4168V10.5958H95.3496V14.3423H96.8785V10.3323H98.846V19.9506H96.8785ZM88.7319 13.3971C89.6723 13.3741 90.5897 13.6606 91.3455 14.2163C91.9802 14.6631 92.3667 15.3792 92.384 16.1525V16.7254C92.3725 17.4987 91.9859 18.2148 91.3455 18.6617C90.5897 19.2116 89.6666 19.4923 88.7319 19.4637C87.7915 19.4923 86.8741 19.2116 86.1183 18.6617C85.4836 18.2206 85.0971 17.4987 85.0798 16.7254V16.1525C85.0971 15.3792 85.4836 14.6631 86.1183 14.2163C86.8741 13.6606 87.7915 13.3741 88.7319 13.3971ZM86.978 16.5879C86.978 17.3555 87.6126 17.9971 88.7319 17.9971C89.8512 17.9971 90.4859 17.3498 90.4859 16.5879V16.3072C90.4859 15.5396 89.8512 14.898 88.7319 14.898C87.6126 14.898 86.978 15.5453 86.978 16.3072V16.5879ZM86.2395 23.0841C86.2395 21.4973 87.7338 20.2256 89.9262 20.2256H95.4708C96.4458 20.1683 97.4093 20.4604 98.194 21.0448C98.8113 21.5431 99.169 22.2936 99.1575 23.0841C99.1748 23.8747 98.8171 24.6309 98.194 25.1235C97.4151 25.7078 96.4516 26 95.4708 25.9427H89.9262C87.7338 25.9427 86.2395 24.7111 86.2395 23.0841ZM88.2761 23.0841C88.2761 23.9033 88.9108 24.3731 90.3128 24.3731H95.0842C96.4689 24.3731 97.1209 23.9033 97.1209 23.0841C97.1209 22.2649 96.4689 21.7952 95.0842 21.7952H90.307C88.905 21.7952 88.2761 22.305 88.2761 23.0841ZM112.428 26V10.3323H114.464V16.6051H116.743V18.4153H114.464V25.9943H112.428V26ZM110.691 11.4665C110.691 14.2392 110.512 17.0118 110.131 19.7615H108.095C108.291 18.6273 108.418 17.4816 108.481 16.3301C108.55 15.1615 108.585 14.0845 108.585 13.1049H101.39V11.4665H110.691ZM100.686 23.7716V22.0301H104.194V17.2352H106.271V22.0301C108.1 22.0931 109.929 21.9785 111.729 21.6806V23.3878C109.849 23.7086 107.945 23.8346 106.041 23.7716H100.686ZM133.14 11.1171H135.177V19.7615H130.088V22.8665H136.671V24.6079H121.209V22.8665H127.982V19.7615H122.715V11.1171H124.751V13.7121H133.14V11.1171ZM124.751 18.1232H133.14V15.3333H124.751V18.1232ZM149.007 26V10.3323H150.974V16.0838H153.432V17.894H150.974V26H149.007ZM138.056 23.2445V11.4493H142.337V13.0877H140.058V21.5775H143.012V11.4322L147.437 11.4493V13.0877H144.979V21.5546C146.128 21.5317 147.27 21.4228 148.401 21.2223V22.8951C146.86 23.1529 145.297 23.2675 143.733 23.2445H138.056ZM165.963 26H168V10.3323H165.963V26ZM154.834 16.416V23.4221H159.715C161.515 23.4565 163.309 23.3247 165.086 23.0383V21.3999C163.309 21.6864 161.515 21.8181 159.715 21.7837H156.87V18.0201H163.332V11.3806H154.834V13.0018H161.296V16.416H154.834Z" fill="#222222"/>
<defs>
<linearGradient id="paint0_linear_57_9" x1="21.3253" y1="25.4224" x2="37.2892" y2="35.0007" gradientUnits="userSpaceOnUse">
<stop stop-color="#ED1C24"/>
<stop offset="0.27" stop-color="#FBB034"/>
<stop offset="0.63" stop-color="#86C440"/>
<stop offset="1" stop-color="#3B6EB6"/>
</linearGradient>
<linearGradient id="paint1_linear_57_9" x1="21.6928" y1="24.8019" x2="37.6626" y2="34.3802" gradientUnits="userSpaceOnUse">
<stop stop-color="#ED1C24"/>
<stop offset="0.27" stop-color="#FBB034"/>
<stop offset="0.63" stop-color="#86C440"/>
<stop offset="1" stop-color="#3B6EB6"/>
</linearGradient>
<linearGradient id="paint2_linear_57_9" x1="21.5482" y1="25.0429" x2="37.5181" y2="34.6212" gradientUnits="userSpaceOnUse">
<stop stop-color="#ED1C24"/>
<stop offset="0.27" stop-color="#FBB034"/>
<stop offset="0.63" stop-color="#86C440"/>
<stop offset="1" stop-color="#3B6EB6"/>
</linearGradient>
<linearGradient id="paint3_linear_57_9" x1="21.9458" y1="24.3802" x2="37.9156" y2="33.9586" gradientUnits="userSpaceOnUse">
<stop stop-color="#ED1C24"/>
<stop offset="0.27" stop-color="#FBB034"/>
<stop offset="0.63" stop-color="#86C440"/>
<stop offset="1" stop-color="#3B6EB6"/>
</linearGradient>
<linearGradient id="paint4_linear_57_9" x1="23.5542" y1="21.7055" x2="39.5181" y2="31.2839" gradientUnits="userSpaceOnUse">
<stop stop-color="#ED1C24"/>
<stop offset="0.27" stop-color="#FBB034"/>
<stop offset="0.63" stop-color="#86C440"/>
<stop offset="1" stop-color="#3B6EB6"/>
</linearGradient>
<linearGradient id="paint5_linear_57_9" x1="20.3855" y1="26.9827" x2="36.3554" y2="36.561" gradientUnits="userSpaceOnUse">
<stop stop-color="#ED1C24"/>
<stop offset="0.27" stop-color="#FBB034"/>
<stop offset="0.63" stop-color="#86C440"/>
<stop offset="1" stop-color="#3B6EB6"/>
</linearGradient>
<linearGradient id="paint6_linear_57_9" x1="1.86746" y1="12.4405" x2="7.19878" y2="102.206" gradientUnits="userSpaceOnUse">
<stop stop-color="#ED1C24"/>
<stop offset="0.66" stop-color="#FBB034"/>
<stop offset="0.85" stop-color="#86C440"/>
<stop offset="1" stop-color="#3B6EB6"/>
</linearGradient>
<linearGradient id="paint7_linear_57_9" x1="2.86746" y1="12.3802" x2="8.19277" y2="102.145" gradientUnits="userSpaceOnUse">
<stop stop-color="#ED1C24"/>
<stop offset="0.66" stop-color="#FBB034"/>
<stop offset="0.85" stop-color="#86C440"/>
<stop offset="1" stop-color="#3B6EB6"/>
</linearGradient>
<linearGradient id="paint8_linear_57_9" x1="6.57228" y1="12.1634" x2="11.9036" y2="101.928" gradientUnits="userSpaceOnUse">
<stop stop-color="#ED1C24"/>
<stop offset="0.66" stop-color="#FBB034"/>
<stop offset="0.85" stop-color="#86C440"/>
<stop offset="1" stop-color="#3B6EB6"/>
</linearGradient>
<linearGradient id="paint9_linear_57_9" x1="9.253" y1="12.0067" x2="14.5783" y2="101.766" gradientUnits="userSpaceOnUse">
<stop stop-color="#ED1C24"/>
<stop offset="0.66" stop-color="#FBB034"/>
<stop offset="0.85" stop-color="#86C440"/>
<stop offset="1" stop-color="#3B6EB6"/>
</linearGradient>
<linearGradient id="paint10_linear_57_9" x1="16.265" y1="11.5851" x2="21.5903" y2="101.35" gradientUnits="userSpaceOnUse">
<stop stop-color="#ED1C24"/>
<stop offset="0.66" stop-color="#FBB034"/>
<stop offset="0.85" stop-color="#86C440"/>
<stop offset="1" stop-color="#3B6EB6"/>
</linearGradient>
<linearGradient id="paint11_linear_57_9" x1="22.6988" y1="11.2055" x2="28.0241" y2="100.971" gradientUnits="userSpaceOnUse">
<stop stop-color="#ED1C24"/>
<stop offset="0.66" stop-color="#FBB034"/>
<stop offset="0.85" stop-color="#86C440"/>
<stop offset="1" stop-color="#3B6EB6"/>
</linearGradient>
<linearGradient id="paint12_linear_57_9" x1="32.1084" y1="10.6453" x2="37.4337" y2="100.41" gradientUnits="userSpaceOnUse">
<stop stop-color="#ED1C24"/>
<stop offset="0.66" stop-color="#FBB034"/>
<stop offset="0.85" stop-color="#86C440"/>
<stop offset="1" stop-color="#3B6EB6"/>
</linearGradient>
<linearGradient id="paint13_linear_57_9" x1="41.7108" y1="10.079" x2="47.0422" y2="99.8441" gradientUnits="userSpaceOnUse">
<stop stop-color="#ED1C24"/>
<stop offset="0.66" stop-color="#FBB034"/>
<stop offset="0.85" stop-color="#86C440"/>
<stop offset="1" stop-color="#3B6EB6"/>
</linearGradient>
<linearGradient id="paint14_linear_57_9" x1="45.9036" y1="9.82602" x2="51.2349" y2="99.5911" gradientUnits="userSpaceOnUse">
<stop stop-color="#ED1C24"/>
<stop offset="0.66" stop-color="#FBB034"/>
<stop offset="0.85" stop-color="#86C440"/>
<stop offset="1" stop-color="#3B6EB6"/>
</linearGradient>
<linearGradient id="paint15_linear_57_9" x1="51.2831" y1="9.50675" x2="56.6144" y2="99.2718" gradientUnits="userSpaceOnUse">
<stop stop-color="#ED1C24"/>
<stop offset="0.66" stop-color="#FBB034"/>
<stop offset="0.85" stop-color="#86C440"/>
<stop offset="1" stop-color="#3B6EB6"/>
</linearGradient>
<linearGradient id="paint16_linear_57_9" x1="53.1205" y1="9.39831" x2="58.4518" y2="99.1634" gradientUnits="userSpaceOnUse">
<stop stop-color="#ED1C24"/>
<stop offset="0.66" stop-color="#FBB034"/>
<stop offset="0.85" stop-color="#86C440"/>
<stop offset="1" stop-color="#3B6EB6"/>
</linearGradient>
<linearGradient id="paint17_linear_57_9" x1="53.1747" y1="9.39832" x2="58.506" y2="99.1634" gradientUnits="userSpaceOnUse">
<stop stop-color="#ED1C24"/>
<stop offset="0.66" stop-color="#FBB034"/>
<stop offset="0.85" stop-color="#86C440"/>
<stop offset="1" stop-color="#3B6EB6"/>
</linearGradient>
</defs>
</svg>
