<svg width="196" height="160" viewBox="0 0 196 160" fill="none" xmlns="http://www.w3.org/2000/svg">
<rect width="196" height="160" rx="20" fill="#F8F8F8"/>
<rect x="0.5" y="0.5" width="195" height="159" rx="19.5" stroke="black" stroke-opacity="0.1"/>
<mask id="mask0_70_273" style="mask-type:alpha" maskUnits="userSpaceOnUse" x="0" y="0" width="196" height="160">
<rect width="196" height="160" rx="20" fill="#F8F8F8"/>
<rect x="0.5" y="0.5" width="195" height="159" rx="19.5" stroke="black" stroke-opacity="0.1"/>
</mask>
<g mask="url(#mask0_70_273)">
<path d="M121.749 86.0046C119.643 94.2064 117.927 101.355 119.544 109.153L102.156 115.416C102.996 110.732 102.69 104.842 102.004 100.188C101.34 95.6865 101.752 91.3758 102.24 86.9049L121.749 86.0123V86.0046Z" fill="#BFBFBF"/>
<path d="M71.2108 224.068C81.3275 226.479 116.751 226.471 127.738 224.938C135.115 223.908 140.441 220.993 143.119 221.154C142.219 222.962 138.129 223.084 137.526 224.762C140.731 225.93 146.468 225.144 149.467 223.931C152.473 222.718 156.814 219.964 159.919 219.91C158.965 221.253 155.471 222.496 155.028 223.9C159.82 225.838 190.49 213.219 194.458 205.284C177.055 194.046 149.161 157.714 143.706 147.285C135.367 131.332 129.21 114.661 117.842 105.071L103.781 106.887C99.4247 114.364 93.6796 123.366 91.8638 142.577C90.7804 154.09 79.0234 212.311 71.2031 224.068H71.2108Z" fill="#BFBFBF"/>
<path fill-rule="evenodd" clip-rule="evenodd" d="M118.026 52.8468C120.292 52.7705 123.825 49.3525 124.839 47.1095C125.343 45.9956 125.778 44.9579 126.106 43.9356C126.64 43.5312 126.739 43.0658 127.159 42.6233C127.265 42.5928 127.357 42.547 127.449 42.5012C127.395 42.7072 127.342 42.9132 127.288 43.1269C127.082 43.9127 126.022 48.9405 128.181 49.0016C126.853 47.8343 128.463 43.3176 128.746 41.5552C128.829 41.044 128.883 40.4718 128.906 39.8767C132.171 38.8391 131.195 34.7115 129.745 34.2995C129.814 32.9186 128.364 29.7829 126.419 30.4237C126.495 29.6379 124.381 29.4319 124.214 30.3017C123.84 29.9202 122.993 30.4619 122.726 30.7213C122.695 30.7518 122.657 30.79 122.627 30.8281C120.223 28.5927 117.141 28.3943 113.464 28.4248C112.304 28.4324 110.038 29.0581 108.55 29.8515C108.192 29.6913 107.879 29.5235 107.452 29.4853C106.483 29.4014 105.437 29.8592 105.064 30.7671C103.95 31.4079 103.164 32.5753 103.385 33.9333C103.5 32.766 103.858 31.8962 104.964 31.3011C105.476 31.0265 106.284 30.79 106.864 30.851C106.918 30.851 107.078 30.8739 107.246 30.8891C107.093 31.1333 107.07 31.3774 107.207 31.6139C106.818 31.9878 106.429 32.3998 106.04 32.8728C105.163 33.9333 104.27 35.0625 103.347 36.4358C103.095 36.8096 102.851 37.1758 102.767 37.5802C102.683 37.9846 102.798 38.3279 102.676 38.7475C102.5 38.5492 102.34 38.3432 102.202 38.1601C102.241 38.4042 102.393 38.6941 102.592 38.9459C101.867 40.0751 100.898 40.899 100.028 41.4941C98.7997 42.3334 98.9828 42.9132 100.005 43.783C100.501 44.6146 100.211 45.0342 99.8068 45.3928C99.3338 45.6599 99.3567 46.3923 100.143 46.8119C99.5932 47.2926 99.372 47.6206 99.9594 48.1547C100.532 48.2463 100.493 48.6964 100.15 49.1389C98.3954 51.3972 100.692 52.5264 103.568 52.473C104.507 52.4577 106.307 52.5493 107.543 53.8845C108.779 55.2196 111.282 61.0409 106.971 65.0464C105.323 66.4121 104.209 68.8001 103.164 70.5397C102.248 72.0656 100.547 74.7359 98.5937 77.4596C96.7474 80.0308 96.8237 82.7392 97.7316 84.6237C98.876 86.9965 102.111 89.4532 102.111 89.4532L101.989 90.8341L119.933 92.5813C119.933 92.5813 121.765 86.3556 122.695 81.7856C123.878 75.9948 123.397 69.9598 122.695 67.3048C121.093 61.7123 116.187 57.1346 118.041 52.8392L118.026 52.8468ZM106.193 30.3246C105.857 30.4008 105.529 30.5229 105.224 30.6831C105.506 30.2559 105.88 29.966 106.483 29.8515C106.856 29.7829 107.421 29.7981 107.772 29.9507C107.818 29.9736 107.986 30.0423 108.115 30.1033C108.001 30.172 107.902 30.2483 107.803 30.3169C107.268 30.2559 106.773 30.1872 106.193 30.3169V30.3246Z" fill="#BFBFBF"/>
<path d="M124.321 35.7262C127.884 41.2424 132.462 47.0026 135.514 54.4948C138.642 62.1625 143.837 88.8962 147.164 95.8315C150.01 101.76 156.045 114.699 166.23 115.279C164.216 119.75 159.569 118.209 156.022 120.025C152.787 121.68 158.15 121.322 158.753 122.168C157.555 123.054 155.289 123.679 153.763 123.672C152.176 123.672 150.559 122.87 149.399 124.427C149.537 124.244 151.04 125.48 150.75 126.136C150.429 126.861 148.942 127.036 148.293 127.059C141.823 127.318 133.026 113.036 130.532 102.767C124.596 78.3675 130.73 62.9101 125.534 42.8446C124.97 40.6701 123.055 39.8614 123.634 37.9846C123.726 37.6946 123.398 37.3895 123.612 36.802C123.665 36.6494 124.588 35.917 124.329 35.7262H124.321Z" fill="#BFBFBF"/>
<path fill-rule="evenodd" clip-rule="evenodd" d="M72.212 43.7067C72.2959 43.4778 72.6926 43.5159 72.9978 43.5236C73.4022 43.7067 73.8142 43.8898 74.2338 44.0805C76.7439 45.2173 80.696 45.1944 80.0246 42.3257C79.8262 41.4712 79.8872 40.838 80.6426 40.0827C81.1919 39.8919 80.8943 39.2739 80.5815 38.8391C81.0851 38.7475 81.3292 38.4576 81.2987 37.9846C81.2071 37.2292 81.2224 36.451 82.1532 36.3137C83.8241 36.0696 84.587 35.5736 83.4426 33.8799C81.9319 31.6292 81.1385 29.8515 81.7031 29.1038C82.0082 28.6995 82.2905 28.7147 82.4355 28.5545C82.6567 28.2875 82.6186 27.8373 82.5805 27.494C82.4279 26.1665 82.2448 25.8155 82.0464 24.8847C81.8175 23.3969 81.6344 22.0618 81.3597 20.9631C81.5352 21.2988 81.7412 21.6269 82.0616 21.8939C81.8404 21.6269 81.9014 20.7571 82.0464 20.452C82.3516 21.1844 82.6644 21.3675 82.9772 21.5964C82.7712 21.1615 82.6186 20.5283 82.5805 20.0476C82.8399 20.4825 83.1298 20.574 83.5418 20.7495C83.0001 20.101 82.4279 19.0558 82.3592 18.9566C82.5805 19.0558 82.9009 19.2541 83.2519 19.1778C82.3897 18.8727 81.9014 17.4917 80.963 17.3468C81.1995 17.4307 81.5886 17.3773 81.8251 17.3315C80.9325 17.0568 79.2693 15.7293 78.636 15.4089C76.37 14.2873 73.4022 13.0513 70.8463 12.7843C71.1591 12.6928 71.3498 12.5936 71.5253 12.4868C70.8692 12.5325 70.1825 12.4334 69.4577 12.4944C69.5493 12.4028 69.6408 12.3113 69.7324 12.2274C69.1754 12.4105 68.6185 12.296 68.0157 12.5554C68.1073 12.441 68.1912 12.3265 68.2828 12.2121C67.6877 12.4868 67.0697 12.4181 66.4135 12.8377C66.5814 12.6546 66.7569 12.4791 66.9247 12.296C66.4898 12.5783 66.0168 12.502 65.5209 12.9369C65.4522 12.7538 65.4446 12.5631 65.5133 12.3571C65.2615 12.5096 65.0326 12.708 64.8647 13.0056C64.7885 12.7919 64.6664 12.6165 64.4833 12.4944C64.5672 12.7919 64.5062 13.0666 64.2925 13.3336C64.0789 13.1276 63.789 12.975 63.4685 12.8606C63.6211 13.1124 63.6822 13.387 63.5601 13.677C63.2015 13.4023 62.8277 13.3184 62.4386 13.3107C62.7056 13.4633 62.9421 13.6236 63.0337 13.799C62.6598 13.677 62.2402 13.6693 61.7748 13.7685C62.0647 13.8219 62.3394 13.883 62.4462 14.0508C61.935 14.0203 61.4391 14.0737 60.9966 14.3178C61.2941 14.3331 61.5688 14.3636 61.7214 14.4628C59.135 15.8666 57.7006 17.9953 57.2124 20.1086C56.7927 21.9245 56.2358 23.4504 56.4341 26.464C56.3884 28.1578 58.0135 32.8118 58.868 34.6428C59.2723 34.8259 59.4783 34.9709 59.7911 34.9633C59.814 35.0091 61.4238 36.5197 60.577 41.4407C60.1955 43.371 60.1497 43.9127 58.5552 45.9498C56.9606 47.9868 54.8625 50.558 54.0156 51.6337C53.1687 52.7095 51.475 54.4414 50.9333 59.6523C50.3916 64.8633 50.7273 68.6552 52.4744 74.4231C54.2216 80.1986 55.4728 81.9992 55.511 82.1975L82.5957 83.3725C82.5957 83.3725 85.3576 72.2258 82.6033 65.611C79.8491 58.9962 74.333 52.1983 71.655 49.6882C71.1667 49.2304 71.1667 48.0708 71.8992 46.6898C72.5171 45.5149 71.8686 44.6375 72.212 43.7067Z" fill="#BFBFBF"/>
<path fill-rule="evenodd" clip-rule="evenodd" d="M67.4126 75.949C69.7701 76.3381 73.1424 77.1316 75.4846 76.3686C77.0639 75.8498 77.9718 74.3544 79.5206 73.8204C84.9834 71.9206 83.0455 76.3991 83.1675 79.4357C83.5338 88.469 83.0073 118.01 79.8487 135.497C78.2084 144.576 75.7822 155.975 74.3784 165.146C72.9669 174.347 62.9341 208.946 75.9805 219.025C78.2541 220.78 89.8205 221.604 84.3043 223.992C82.4351 224.801 68.9461 224.602 66.8786 223.992C64.7652 223.366 64.8873 222.786 64.5439 221.955L63.4911 223.992C62.133 224.221 61.3777 224.144 58.5853 223.992C58.2114 222.71 57.9826 221.428 58.509 219.315C57.83 219.391 56.3193 219.239 55.709 218.789C51.9018 176.842 61.2251 101.66 62.7586 75.4378C64.1777 74.8046 65.9096 75.7048 67.4202 75.949H67.4126Z" fill="#BFBFBF"/>
<path fill-rule="evenodd" clip-rule="evenodd" d="M75.1106 123.397C77.9487 141.364 75.0495 161.918 69.0756 169.021C63.0865 176.147 36.5358 200.493 42.441 215.882C43.471 218.567 52.924 225.274 46.973 224.45C44.9511 224.167 33.5298 216.988 32.0878 215.393C30.6077 213.761 31.0197 213.326 31.1494 212.433L29.1886 213.631C27.9145 213.12 27.3041 212.662 25 211.083C25.3433 209.793 25.8164 208.58 27.3651 207.047C26.7472 206.757 25.5341 205.849 25.2441 205.139C32.4235 190.506 43.9898 175.339 56.1894 157.684C57.0897 130.988 48.3844 121.314 60.6832 102.202L75.1106 123.397Z" fill="#BFBFBF"/>
<path fill-rule="evenodd" clip-rule="evenodd" d="M53.1074 74.8198C55.1369 83.4869 60.6683 99.898 59.1958 109.122L80.4058 104.331C80.4058 104.331 84.0908 78.3294 83.5415 72.9811L53.1151 74.8274L53.1074 74.8198Z" fill="#BFBFBF"/>
<path d="M44.9882 83.5098C44.1337 86.4396 43.2716 90.6205 43.4623 93.9241C49.7032 100.44 74.6136 98.2195 81.8006 98.5781C84.448 98.7078 88.1178 99.4402 88.0644 98.0974C88.0034 96.3427 88.6366 93.6037 86.9581 92.9857C83.6774 91.7878 58.4161 90.1094 54.5403 88.6674C53.7469 87.0804 63.4974 72.2792 63.9246 61.3004C64.1535 55.5172 61.7731 52.5569 56.9208 52.4196C51.7251 52.2747 50.1686 59.1565 49.337 62.1701C47.5288 68.7391 46.6667 77.7419 44.9806 83.5098H44.9882Z" fill="#BFBFBF"/>
<path d="M118.698 66.7325C121.559 68.0982 123.176 74.5069 123.512 77.3833C124.298 84.1201 124.519 90.979 124.084 98.1279C123.84 102.095 123.291 101.378 119.537 101.302C113.113 101.18 104.957 98.3568 97.152 97.4718C89.6445 99.135 85.3873 99.4402 85.8145 97.9753C86.4173 95.9382 90.3693 92.6652 96.0686 93.0238C103.965 93.5273 114.593 95.8543 117.294 94.6565C117.294 88.5223 114.768 81.3659 114.006 77.3375C113.418 74.2399 113.029 70.7914 115.028 68.0982C116.241 66.4731 117.553 66.1908 118.69 66.7325H118.698Z" fill="#BFBFBF"/>
<path d="M80.3975 92.6423C83.2128 91.7726 86.2798 90.7655 88.7594 90.9867C90.8881 91.1775 91.4679 92.6118 93.2456 93.657C95.069 94.7252 97.9453 94.7862 96.9306 96.4723C96.1448 97.777 92.4521 99.2495 91.0101 99.5775C87.8439 100.295 85.6008 99.28 82.5566 98.6773C79.8176 98.1356 77.9103 98.0669 77.7958 96.2587C77.6814 94.4124 79.0394 93.0619 80.3975 92.65V92.6423Z" fill="#BFBFBF"/>
</g>
</svg>
