<svg width="196" height="160" viewBox="0 0 196 160" fill="none" xmlns="http://www.w3.org/2000/svg">
<rect width="196" height="160" rx="20" fill="#F8F8F8"/>
<rect x="0.5" y="0.5" width="195" height="159" rx="19.5" stroke="black" stroke-opacity="0.1"/>
<mask id="mask0_70_275" style="mask-type:alpha" maskUnits="userSpaceOnUse" x="0" y="0" width="196" height="160">
<rect width="196" height="160" rx="20" fill="#F8F8F8"/>
<rect x="0.5" y="0.5" width="195" height="159" rx="19.5" stroke="black" stroke-opacity="0.1"/>
</mask>
<g mask="url(#mask0_70_275)">
<path d="M156.8 142.82C156.38 142.4 155.4 139.73 155.25 137.9C155.11 136.07 155.25 127.64 155.25 127.08C155.25 126.52 154.55 125.81 154.55 125.25C154.55 124.69 155.25 123.28 155.53 121.17C155.81 119.06 155.53 117.09 155.53 115.69C155.53 114.29 156.09 113.3 156.09 110.77C156.09 108.24 153.84 103.04 153.84 101.63C153.84 100.22 154.82 98.26 154.82 95.02C154.82 91.78 148.07 89.68 148.07 89.68L147.23 85.04L145.82 84.2L143.43 77.31C143.43 77.31 139.21 67.61 138.93 66.48C138.65 65.36 136.12 60.29 136.26 59.45C136.4 58.61 141.32 58.75 142.45 58.47C143.57 58.19 143.71 55.24 143.71 55.24C143.71 55.24 149.76 51.72 150.46 51.02C151.16 50.32 151.73 48.21 151.02 47.37C150.32 46.53 149.05 40.62 147.08 37.67C145.11 34.72 141.46 26.85 141.46 26.85C142.02 26.01 141.46 24.32 141.46 24.32C141.46 24.32 140.05 24.6 139.63 23.48C139.21 22.36 136.68 20.95 136.68 20.95C136.68 20.95 135.84 18.56 134.57 18.14C133.31 17.72 132.46 18.56 132.46 18.56C130.91 18.56 129.51 19.12 129.51 19.12C129.51 19.12 125.57 19.12 124.17 19.82C122.76 20.52 120.8 23.9 120.8 23.9C119.11 23.9 118.55 24.88 118.55 24.88L119.39 25.44L118.27 26.42C118.27 26.42 116.58 26.56 116.16 27.4C115.74 28.24 115.04 27.68 113.91 27.96C112.79 28.24 112.65 28.94 112.65 28.94L111.1 26.83C111.1 26.83 109.98 24.58 109.98 23.88C109.98 23.18 107.31 20.51 106.32 19.8C105.34 19.1 102.66 19.24 101.54 19.24H99.7099C94.0899 19.38 90.0099 24.3 89.1699 29.92C88.3299 35.54 93.5299 39.2 93.5299 39.2L36.1699 68.31C32.9399 67.61 29.1399 68.59 28.9999 72.11C28.8599 75.63 31.8099 79.98 34.0599 79.98C36.3099 79.98 36.7299 75.9 37.0099 74.5C37.2899 73.09 36.8699 69.16 36.8699 69.16L94.7899 40.06L96.4799 41.47C94.3699 45.12 97.1799 56.65 97.1799 56.65C97.1799 56.65 104.49 76.05 105.76 78.72C107.03 81.39 107.87 84.91 107.87 86.31C107.87 87.71 109.42 88.84 109.42 88.84V93.2C109.42 93.2 108.86 96.71 108.86 97.14C108.86 97.57 108.86 99.25 109.14 100.8C109.42 102.35 108.72 102.49 108.44 104.17C108.16 105.86 108.3 108.11 109.14 109.23C109.98 110.35 108.86 112.6 108.86 114.71C108.86 116.82 107.03 116.26 107.03 117.94C107.03 119.62 109 122.16 109 122.16V128.77C108.02 128.77 107.03 133.69 107.17 136.08C107.31 138.47 108.43 139.74 107.87 141.7C107.31 143.67 106.75 144.23 107.17 145.35C107.59 146.47 106.47 147.74 106.05 149.01C105.63 150.27 105.63 152.66 105.07 153.65C104.51 154.63 101.84 158.43 101.84 159.55C101.84 160.67 102.4 162.64 102.4 162.64C102.4 162.64 102.12 180.63 101.98 182.88C101.84 185.13 102.96 189.91 101.84 191.17C100.72 192.44 98.8899 200.87 98.8899 200.87C98.8899 200.87 97.0599 210.57 101.28 211.41C105.5 212.25 109.43 207.47 110.42 204.8C111.4 202.13 110.42 197.21 110.42 197.21L113.51 197.07C115.62 180.06 121.66 166.98 122.09 166.7C122.51 166.42 127.15 156.72 128 153.2C128.84 149.69 130.53 142.38 132.08 139.7C133.63 137.03 133.63 130.28 133.63 129.58C133.63 128.88 136.72 132.67 136.72 132.67C136.72 132.67 137 141.11 138.55 145.46C140.1 149.82 138.27 152.21 137.99 155.02C137.71 157.83 137.99 160.36 139.26 163.31C140.53 166.26 140.24 169.64 139.82 172.17C139.4 174.7 139.26 182.29 139.82 185.53C140.38 188.76 139.96 199.87 139.96 201.27C139.96 202.67 139.68 206.61 139.68 206.61C139.68 206.61 137.85 208.3 136.31 210.4C134.76 212.51 131.95 213.77 130.55 214.9C129.14 216.02 129.14 218.41 129.28 220.38C129.42 222.35 138.84 223.33 144.46 222.63C150.08 221.93 151.35 219.26 151.35 219.26L154.72 219.12L156.27 218.42L156.41 216.45C156.55 212.94 155.71 206.61 155.71 206.61C155.71 206.61 155.85 205.2 155.85 204.08C155.85 202.96 157.39 198.18 158.1 195.64C158.8 193.11 159.65 183.97 159.65 180.03C159.65 176.09 160.07 152.62 160.07 150.23C160.07 147.84 157.26 143.2 156.84 142.78L156.8 142.82ZM133.32 47.22C131.91 47.22 131.77 47.92 130.09 48.34C128.4 48.76 127 48.2 125.59 48.2C124.18 48.2 124.89 47.36 124.04 47.36C123.19 47.36 122.77 46.52 122.77 46.52L118.69 41.88C119.53 41.32 121.64 40.9 122.63 40.9C123.62 40.9 123.33 36.12 123.33 36.12L131.2 27.4C131.2 27.4 134.15 28.52 134.71 28.66C135.27 28.8 135.97 30.21 135.97 30.21C138.64 33.44 140.05 43.71 140.05 45.11C140.05 46.51 138.36 45.67 136.96 45.67C135.56 45.67 134.71 47.22 133.31 47.22H133.32Z" fill="#BFBFBF"/>
</g>
</svg>
