<svg width="196" height="160" viewBox="0 0 196 160" fill="none" xmlns="http://www.w3.org/2000/svg">
<rect width="196" height="160" rx="20" fill="#F8F8F8"/>
<rect x="0.5" y="0.5" width="195" height="159" rx="19.5" stroke="black" stroke-opacity="0.1"/>
<mask id="mask0_70_274" style="mask-type:alpha" maskUnits="userSpaceOnUse" x="0" y="0" width="196" height="160">
<rect width="196" height="160" rx="20" fill="#F8F8F8"/>
<rect x="0.5" y="0.5" width="195" height="159" rx="19.5" stroke="black" stroke-opacity="0.1"/>
</mask>
<g mask="url(#mask0_70_274)">
<path d="M8.95693 110.116C9.77677 110.894 10.5484 111.77 11.4164 112.451C12.0916 113.083 12.7667 113.472 13.683 113.521C14.8887 113.521 15.6603 112.791 16.4801 112.062C16.7694 111.77 16.8659 110.943 16.9141 110.554C17.2035 108.997 17.1552 107.635 16.5283 106.127C16.3836 105.738 16.5283 105.251 16.3836 104.814C16.239 104.327 15.9014 104.133 15.6603 103.743C15.4674 103.208 15.6603 102.673 15.4191 102.138C15.2745 101.7 14.744 101.36 14.8404 100.776C14.9851 99.9978 15.6603 99.56 15.9978 98.879C16.4319 98.1493 16.4319 97.2737 16.5765 96.4954C16.7694 95.7657 17.2999 95.1334 17.3964 94.3551C17.2999 95.5225 17.6857 96.7386 17.8304 97.8575C17.9751 99.2682 18.0233 100.63 18.168 101.944C18.3127 103.743 18.7949 105.446 18.9878 107.197C19.1325 108.705 18.7949 110.116 18.7949 111.624C18.7949 112.013 18.7467 112.791 18.9878 113.083C19.2289 113.424 20.1452 113.326 20.5792 113.326C20.8204 113.326 20.8204 115.078 20.8204 115.078C20.8204 115.905 21.0133 116.683 21.1097 117.413C21.2062 117.948 21.2062 118.531 21.3508 119.066C21.8331 120.769 22.1707 122.423 22.8458 124.125C23.2799 125.196 23.6657 126.363 23.7139 127.531C23.7139 128.698 23.4245 129.914 23.2799 131.082C23.1352 131.811 22.8941 132.59 23.0387 133.319C23.1834 133.806 23.6657 134.195 23.8103 134.681C23.955 135.362 23.4245 135.897 23.1834 136.481C22.8458 137.162 22.9423 137.843 23.0387 138.573C23.1352 139.254 23.521 139.838 23.6174 140.47C23.7621 141.054 23.2799 141.686 23.6657 142.173C24.0032 142.708 24.4855 142.951 24.6784 143.583C24.8713 144.264 24.7748 144.945 24.8713 145.675C24.9677 146.648 25.4018 147.621 25.4018 148.594C25.4018 149.469 25.6911 150.442 25.884 151.318C26.1252 152.582 26.4627 153.799 26.7039 155.112C26.8485 156.279 26.7039 157.398 26.4145 158.517C26.1734 159.539 25.7876 160.414 25.884 161.484C25.9805 162.263 26.2216 162.992 25.5947 163.576C24.8713 163.965 23.7621 164.257 23.2799 164.987C22.7494 165.716 22.9905 167.03 23.6657 167.614C24.2926 168.149 25.1124 168.003 25.884 167.905C27.4755 167.662 29.0187 167.76 30.6583 167.662C31.864 167.662 33.5519 167.565 34.4199 166.495C34.9504 165.814 34.227 164.841 33.8894 164.208C33.6001 163.673 33.793 162.846 33.6965 162.263C33.6001 161.825 33.4554 161.387 33.3107 160.949C32.9732 159.831 32.9732 158.468 32.9249 157.301C32.8285 155.647 32.5391 153.993 32.5391 152.388C32.5391 151.853 32.8285 151.61 33.0696 151.172C33.7448 149.81 33.9377 148.156 34.1788 146.648C34.4681 145.043 34.661 143.437 35.1915 141.881C35.4326 141.248 35.7702 140.713 36.156 140.081C36.5418 139.254 35.9631 138.281 36.3489 137.405C36.6383 136.627 37.3134 136.092 37.7475 135.362C37.9886 134.973 38.1815 134.535 38.2779 134.098C38.2779 133.66 38.2779 133.173 38.2779 132.736C38.3744 132.346 38.5673 131.909 38.6155 131.519C38.7602 130.352 38.8566 129.184 38.9049 127.968C39.0013 126.12 39.0013 124.271 39.0013 122.423C39.0013 121.353 39.2424 120.38 39.4353 119.31C39.7247 117.85 39.8212 116.148 40.3516 114.737C40.5445 114.251 41.075 114.153 41.4608 113.764C41.9913 113.229 41.7019 111.721 41.7502 111.04C41.7502 109.289 41.7502 107.44 42.136 105.738C42.57 104.084 43.1969 102.576 43.3416 100.922C43.5827 98.198 43.5827 95.4739 44.3061 92.8471C44.3061 92.8471 44.5955 93.4308 44.8366 93.7227C45.2706 94.3551 44.8366 94.9874 45.0777 95.5225C45.3188 96.009 45.7046 96.1549 45.4635 96.69C45.2224 97.1278 44.7884 97.371 44.5472 97.8088C43.9685 98.7817 44.499 99.56 45.1742 100.29C45.3671 100.484 45.8493 100.825 45.8975 101.117C46.0422 101.798 46.1387 102.819 46.8138 103.16C47.6819 103.646 48.7428 102.819 49.7073 103.014C50.8647 103.257 52.3597 105.008 53.4207 103.257C53.4207 103.208 53.9994 103.257 54.0958 103.208C54.5299 103.111 54.9157 102.916 55.3497 102.819C55.9284 102.673 56.1213 101.992 56.5553 101.554C57.2787 100.825 57.5198 100.192 57.5198 99.2195C57.5198 97.7602 57.5198 96.3981 57.6163 94.9874C57.6163 94.9874 58.5808 94.9874 58.629 94.9388C59.3042 94.7442 59.4006 94.2091 59.4971 93.6254C59.69 92.8471 59.8829 92.0201 60.0276 91.2418C60.4134 89.6366 60.7992 88.0313 61.5225 86.572C62.2942 84.8208 63.2104 83.0695 64.0785 81.367L65.9111 78.0105L66.0557 79.0321C66.2004 79.9563 65.9111 81.0265 65.8146 81.9507C65.6699 83.2155 65.8628 84.5289 65.6217 85.745C65.3806 87.107 64.9465 88.4204 64.5607 89.7825C64.4161 90.2689 64.1267 90.9013 64.1267 91.3877C63.9338 92.1174 63.4516 92.7011 63.1622 93.3822C62.8246 94.1118 62.5835 94.8902 62.3906 95.6685C62.053 97.2737 62.053 99.0249 61.9566 100.679C61.8601 101.7 61.8601 102.673 61.8601 103.695C61.8601 104.862 62.1013 105.835 62.3424 106.954C62.4871 107.732 62.68 108.462 62.8246 109.24C62.9693 109.824 63.2587 110.554 63.2587 111.186C63.4998 112.354 62.8246 115.321 64.7536 115.224C65.3323 115.224 66.2969 114.98 66.6827 114.64C66.6344 114.64 67.5989 118.483 67.5989 118.726C67.7436 119.796 67.3578 120.818 67.3096 121.888C67.3096 122.861 67.7436 123.931 67.406 124.855C66.8273 126.314 66.104 127.579 66.0557 129.136C66.0557 130.741 66.4898 132.298 66.4898 133.854C66.4898 135.314 66.4415 136.773 66.6344 138.33C66.7791 140.081 66.972 141.881 66.972 143.632C66.972 144.702 66.972 145.772 66.972 146.794C66.972 148.496 67.0202 150.053 67.2614 151.756C67.5025 153.458 67.6472 155.161 67.5025 156.815C67.5025 157.447 67.4543 158.079 67.2614 158.614C66.972 159.441 66.4898 159.49 65.9111 160.025C65.6217 160.268 65.477 160.56 65.3806 160.852C65.1395 161.582 65.043 162.457 65.043 163.236C65.043 163.868 65.043 164.646 65.7182 164.987C66.104 165.23 66.4898 165.473 67.0202 165.425C67.3578 165.425 67.6472 165.327 68.033 165.279C68.3223 165.522 68.5634 166.154 68.9492 166.3C69.4315 166.495 70.0102 166.3 70.4925 166.3C71.891 166.252 72.1804 165.668 72.6626 164.354C72.952 163.576 73.3378 163.041 73.2895 162.165C73.1931 161.047 73.0484 159.928 72.8555 158.858C72.7591 158.079 72.7108 157.544 72.7108 156.766C72.7591 155.793 72.8555 154.771 72.8555 153.799C72.952 152.388 72.8555 150.929 73.0002 149.518C73.1931 147.523 73.8682 145.675 73.8682 143.681C73.8682 141.686 73.7718 139.838 73.8682 137.892C74.0611 135.946 74.3023 134 74.4952 132.055C74.4952 131.714 74.4952 131.665 74.6881 131.422C75.1703 130.79 75.6526 130.741 74.881 130.06C74.6881 129.866 75.0739 128.99 75.2185 128.795C75.4114 128.552 77.3887 127.774 77.3887 128.163C77.3887 128.163 77.3405 130.206 77.3405 130.352C77.3405 132.736 77.7745 135.168 77.7745 137.551C78.305 137.308 79.3177 136.87 79.4624 136.238C79.8482 134.973 79.2695 133.611 79.5106 132.346C79.7517 131.519 80.7162 133.125 80.7162 133.368C81.1503 135.216 80.5716 136.968 80.3787 138.816C80.2822 139.838 80.6198 140.811 80.7162 141.832C80.8127 142.756 80.9091 143.632 80.9574 144.556C81.102 145.918 81.2467 147.329 81.1503 148.691C81.0538 149.956 81.3432 150.977 81.5843 152.145C81.8736 153.507 82.163 155.015 82.2594 156.474C82.3559 157.641 81.6807 158.371 81.5843 159.49C81.5843 160.025 81.6807 160.512 81.729 161.047C81.729 161.63 81.7772 162.214 82.163 162.701C82.5488 163.138 83.0793 163.43 83.5615 163.722C84.1885 164.16 84.7189 163.819 85.3941 163.819C85.7799 163.819 86.021 164.306 86.4068 164.452C87.1302 164.695 88.1912 164.452 88.9628 164.452C89.445 164.452 89.9273 164.403 90.3613 164.354C90.6989 164.354 91.374 164.354 91.6152 164.16C91.9045 163.965 92.001 163.965 92.001 163.673C92.001 163.284 91.8081 162.603 91.6634 162.214C91.2294 161.095 89.6861 161.144 88.8663 160.463C88.2394 159.928 88.1912 159.101 88.1912 158.371C88.1912 155.744 86.4068 153.215 87.4678 150.588C87.95 149.421 88.0465 148.253 88.0947 146.988C88.1429 145.529 87.8054 144.07 87.6607 142.61C87.5642 141.492 87.8536 140.373 87.9018 139.254C87.9983 137.989 88.1912 136.773 88.3841 135.557C88.577 134.438 88.1912 133.222 88.8663 132.2C89.0592 131.86 89.7344 131.422 89.7344 131.033C89.7344 130.547 89.5415 130.011 89.3968 129.525C89.2521 129.039 88.577 128.893 88.4805 128.358C88.4323 127.579 88.4323 126.801 87.9983 126.071C87.7089 125.633 87.2749 125.342 87.082 124.806C86.9373 124.271 86.9855 123.542 87.1784 123.007C87.6125 121.693 87.4196 120.574 87.4196 119.212C87.4196 117.704 87.8054 116.196 87.8536 114.688C88.4323 114.543 89.1074 114.494 89.7344 114.494C89.7344 114.348 90.2649 112.889 90.2649 112.889C90.2649 112.889 91.1811 113.326 91.3258 113.521C92.5314 114.932 92.4832 116.829 92.2903 118.58C92.2903 118.969 92.1456 119.456 92.1939 119.893C92.3385 120.72 92.7726 120.234 93.303 120.574C94.1711 121.11 95.1838 120.964 96.1483 120.866C96.9682 120.818 97.788 120.428 98.6078 120.672C99.283 120.866 99.8135 121.45 100.44 121.791C100.778 121.985 100.826 120.964 100.826 120.866C100.778 120.428 100.682 119.942 100.633 119.504C100.489 118.775 100.44 118.094 100.344 117.413L99.6688 114.397C98.8972 110.748 97.788 107.197 96.9682 103.598C96.8235 103.062 96.7271 102.576 96.5824 102.138L97.354 102.333C98.6561 102.722 100.055 103.014 101.405 102.819C102.466 102.673 103.816 101.895 104.106 100.776C104.202 100.533 104.588 100.29 104.636 100.241C104.877 100.046 105.263 101.311 105.263 101.457C105.263 101.7 105.263 101.895 105.311 102.187C105.456 103.889 105.166 106.03 104.732 107.684C104.443 108.802 104.732 109.775 104.829 110.894C105.118 113.375 103.816 115.856 104.298 118.337C104.443 118.921 104.588 119.212 105.166 119.456C105.697 119.699 105.938 119.796 105.745 120.477C105.601 121.061 105.263 121.596 105.022 122.131C104.54 123.299 104.732 124.661 104.781 125.925C104.781 127.433 104.974 128.893 104.974 130.352V131.325C104.974 133.076 104.395 134.633 104.974 136.384C105.215 137.114 105.022 137.357 104.443 137.795C103.43 138.622 104.057 139.789 104.298 140.762C104.54 141.686 103.816 142.318 103.382 143.048C102.9 143.875 102.996 144.605 103.575 145.334C103.864 145.675 104.106 145.967 104.395 146.307C104.925 146.891 105.311 147.183 105.311 148.01C105.311 148.642 105.215 149.372 105.601 149.956C105.89 150.296 106.565 150.491 106.565 150.977V152.777C106.565 153.263 105.89 153.945 105.601 154.236C104.925 155.063 103.913 155.55 103.479 156.523C102.803 157.787 103.141 159.344 103.141 160.755C103.141 161.679 103.864 162.214 104.636 162.457C106.469 163.041 107.385 161.095 108.06 159.733C108.59 158.663 108.542 157.398 109.217 156.377C109.555 155.89 110.134 155.793 110.519 155.404C111.436 154.48 111.243 152.826 111.098 151.658C110.954 150.977 110.664 150.296 110.423 149.664C110.327 149.469 111.58 147.183 111.436 147.183C112.159 147.378 112.931 147.329 113.22 148.156C113.606 149.275 113.22 150.685 113.22 151.853C113.22 152.728 113.413 153.604 113.461 154.431C113.654 156.231 113.606 157.982 113.365 159.782C113.268 160.414 113.654 161.047 113.558 161.679C113.461 162.36 113.075 162.944 113.124 163.625C113.124 164.549 114.088 164.987 114.908 165.181C115.921 165.425 119.2 165.425 119.248 163.771C119.248 163.527 118.959 162.944 118.862 162.652C118.766 162.36 118.67 162.068 118.573 161.776C118.236 160.609 117.898 159.441 117.657 158.225C117.512 157.593 117.657 156.96 117.753 156.377C117.946 155.063 118.043 153.75 118.139 152.388C118.139 151.901 118.139 151.366 118.139 150.88C118.139 150.539 118.043 149.956 118.236 149.712C118.477 149.177 119.248 149.129 119.682 148.788C120.213 148.302 120.261 147.378 120.454 146.696C120.116 146.551 119.393 146.405 119.2 146.064C119.055 145.724 119.2 145.043 119.2 144.653C119.297 143.729 119.682 143 119.923 142.075C120.165 141.297 120.213 140.421 120.357 139.594C120.55 137.795 120.791 135.946 120.936 134.049C120.936 134.049 121.418 131.228 121.418 130.936C121.418 129.476 121.756 128.017 121.949 126.558C122.142 125.05 121.949 123.59 121.756 122.034C121.756 121.693 121.226 118.969 121.418 118.775C121.852 118.531 122.383 118.191 122.769 117.899C123.781 117.023 123.251 115.369 123.203 114.251C123.203 113.278 123.203 112.256 123.058 111.283C122.913 110.31 122.576 109.435 122.383 108.462C122.094 107.1 121.804 105.835 121.708 104.473C121.611 103.014 121.611 101.554 121.467 100.144C121.37 99.2195 121.226 98.3439 121.226 97.4197C121.226 96.3981 121.467 95.6198 121.949 94.7442C122.094 94.4523 123.396 94.8415 123.637 94.8902C124.36 95.0361 125.035 95.2793 125.759 95.3766C126.53 95.4739 126.916 95.2793 127.591 95.0847C128.025 94.8902 128.604 95.0361 129.086 94.9874C131.112 94.5983 132.028 92.9444 133.137 91.3877C133.668 90.7067 133.909 89.8311 134.246 89.0042C134.487 88.4204 134.825 87.934 134.97 87.3016C135.211 86.426 134.873 86.3287 134.536 85.6477C134.391 85.4045 134.246 85.1126 134.15 84.8208L133.475 84.3829C133.475 84.3829 133.764 83.2641 133.764 83.1668C133.861 82.9236 133.909 82.6804 133.909 82.4372C133.861 82.048 133.523 82.048 133.378 81.7075C133.089 81.1724 133.378 80.4914 132.558 80.2968C132.462 80.2968 132.317 79.178 132.317 79.0321C132.317 78.8375 132.462 77.0376 132.462 77.0376H133.185C133.668 75.8702 134.295 74.8486 134.777 73.7298C135.307 72.5623 135.645 71.3949 136.175 70.2761C136.658 69.3518 137.381 68.5735 138.008 67.7465C138.731 66.8709 139.165 65.9953 139.648 64.9252C140.226 63.6604 140.998 62.5902 141.866 61.5201C141.866 61.5201 141.866 62.7848 141.818 62.9307C141.528 63.6604 141.77 64.536 141.625 65.3143C141.432 66.1899 141.094 67.0655 140.901 67.9898C140.709 68.914 140.757 69.6923 140.757 70.5679C140.757 73.1461 139.985 75.6269 139.406 78.1078C139.165 79.2753 138.876 80.4427 138.635 81.5616C138.153 83.7506 138.153 86.0855 137.96 88.2745C137.96 89.0042 137.622 90.0257 138.538 90.3662C138.683 90.4635 138.346 91.7769 138.346 91.9228C138.153 92.7984 138.346 93.5768 138.442 94.4523C138.538 95.2793 138.828 96.1063 138.876 96.9332C138.876 97.8088 138.587 98.6844 138.587 99.56C138.587 100.873 139.165 102.235 139.358 103.549C139.455 104.424 139.358 105.349 139.358 106.224C139.358 107.392 139.358 108.608 139.358 109.824C139.358 111.332 139.599 112.84 139.744 114.348C139.889 115.856 140.033 117.315 140.323 118.775C140.516 119.796 140.564 121.012 140.95 121.985C141.191 122.569 141.528 122.909 141.48 123.639C141.48 124.369 141.191 125.098 141.191 125.828C141.191 126.752 142.107 127.093 142.782 127.531C143.168 127.822 142.83 128.503 142.782 128.893C142.638 129.476 142.782 129.914 142.927 130.498C143.023 130.887 143.072 131.325 143.12 131.714C143.216 132.638 143.361 133.562 143.506 134.487C143.891 136.433 144.374 138.378 144.904 140.324C145.435 142.124 146.158 143.826 146.688 145.578C147.123 147.037 147.171 148.496 147.171 150.004C147.171 151.61 147.267 153.215 147.412 154.771C147.508 155.55 147.605 156.231 147.653 157.009C147.653 157.593 147.412 157.933 147.123 158.42C146.93 158.663 146.833 158.906 146.737 159.198C146.544 159.83 146.592 160.463 146.592 161.095C146.592 161.825 148.232 161.874 148.714 161.971C150.402 162.311 149.92 164.063 150.354 165.279C150.547 165.765 150.836 165.96 151.318 166.106C152.234 166.397 153.151 166.738 154.115 166.592C154.501 166.543 154.935 166.349 155.08 165.862C155.08 165.571 155.948 164.89 155.948 164.89C156.044 164.792 156.96 165.133 157.105 165.181C157.491 165.23 158.021 165.376 158.359 165.084C159.227 164.549 158.841 162.749 158.118 162.214L157.443 161.728C157.443 161.728 158.021 160.56 158.021 160.463C158.407 159.685 158.214 158.955 158.021 158.128C157.877 157.544 157.732 156.912 157.539 156.328C157.25 155.55 156.816 154.48 155.803 154.48C155.948 154.48 155.321 151.464 155.224 151.269C154.887 149.761 155.369 148.302 155.658 146.842C156.382 143.924 156.285 140.859 156.768 137.843C156.864 137.162 156.96 136.481 157.153 135.751C157.346 135.022 157.636 134.341 157.732 133.514C157.732 133.125 157.732 132.736 157.732 132.346C157.732 132.346 157.78 132.346 157.829 132.395C158.263 132.638 158.745 132.833 159.131 133.076C159.131 133.076 159.179 133.903 159.179 134H159.275C159.275 134.146 159.275 134.292 159.275 134.341C159.324 135.8 159.082 137.454 158.793 138.913C158.504 140.275 158.793 141.346 159.372 142.61C159.613 143.048 159.758 143.486 159.999 143.924C160.24 144.362 160.577 144.799 160.722 145.334C160.819 146.015 160.529 146.745 160.433 147.475C160.336 148.204 160.529 148.983 160.722 149.712C161.108 150.783 161.204 151.658 161.204 152.777C161.204 154.82 161.011 156.863 161.204 158.906C161.349 160.268 161.687 161.728 161.204 163.09C161.011 163.722 160.192 167.127 161.879 166.446C161.687 166.543 162.362 166.981 162.458 166.981C163.037 167.079 163.616 166.787 163.808 166.203C163.712 166.495 164.387 166.592 164.532 166.543C164.869 166.446 164.966 165.96 164.918 165.619C164.821 164.841 164.484 164.111 164.435 163.382C164.291 161.582 164.339 159.782 164.194 157.982C164.001 156.474 164.677 155.209 164.773 153.75C164.869 152.534 164.966 151.318 164.869 150.053C164.869 149.858 164.435 148.642 164.966 149.031C165.786 149.567 166.75 150.053 167.667 149.567C167.763 149.518 168.293 149.177 168.245 149.129C168.535 149.907 168.535 150.345 168.39 151.123C168.342 151.804 168.486 152.485 168.39 153.166C168.293 153.896 168.052 154.674 168.052 155.404C168.052 156.134 168.342 156.912 168.631 157.593C168.824 158.128 168.92 158.712 169.017 159.295C169.258 160.609 169.403 161.971 169.113 163.333C169.065 163.722 168.727 164.354 168.776 164.792C168.92 165.376 170.03 165.668 170.512 165.522C171.428 165.23 171.09 164.257 171.09 163.576V162.311C171.09 162.311 171.476 163.138 171.476 163.187C171.669 163.576 171.476 164.111 171.525 164.5C171.621 164.938 171.814 165.279 172.2 165.425C172.537 165.522 173.212 165.668 173.502 165.376C173.984 164.841 174.466 164.598 174.707 163.819C174.997 162.798 174.804 161.776 174.611 160.803C174.322 159.344 173.791 157.933 173.309 156.571C173.212 156.328 173.309 155.939 173.405 155.647C173.454 154.528 173.357 153.312 173.357 152.193C173.357 151.707 173.405 151.61 173.646 151.22C174.322 150.296 175.286 149.567 175.961 148.691C176.154 148.399 177.07 150.053 177.119 150.199C177.408 150.929 177.649 151.707 177.746 152.534C177.89 153.215 178.18 153.847 178.276 154.528C178.324 155.161 178.083 155.696 177.939 156.279C177.842 156.912 178.035 157.496 178.083 158.128C178.18 159.247 177.842 160.463 177.746 161.582C177.649 162.603 177.601 163.819 177.119 164.695C176.829 165.181 175.72 167.176 177.312 166.446C177.456 166.446 178.276 165.327 178.469 165.716L178.662 166.203C178.855 166.543 179.048 167.224 179.578 166.933C179.771 166.835 180.06 166.106 179.819 165.96C180.157 166.154 180.687 166.738 180.977 166.154C181.17 165.765 180.928 165.279 180.832 164.89L180.446 163.771C180.446 163.771 180.784 163.09 180.784 162.555C180.784 161.582 180.832 160.657 180.928 159.782C181.025 159.004 181.218 158.225 181.17 157.447C181.121 156.863 180.784 156.377 180.736 155.793C180.543 154.82 180.977 153.993 181.218 153.069C181.459 152.096 181.652 151.123 181.797 150.102C182.086 148.496 182.038 146.94 182.038 145.334C182.327 141.783 182.472 138.33 182.327 134.779L181.797 131.082C181.7 129.866 181.652 128.698 181.025 127.579C179.433 124.904 176.492 123.542 173.55 123.542C172.778 123.542 172.103 123.299 171.428 123.055C171.525 122.715 171.621 122.374 171.717 122.034C171.766 121.839 171.91 121.645 171.959 121.45C172.393 120.234 173.164 119.164 173.646 117.996C174.032 117.072 173.888 115.953 174.273 115.029C174.659 114.105 175.527 113.57 176.009 112.694C176.636 111.575 176.926 110.359 177.456 109.192C178.035 107.83 178.373 106.419 178.903 105.057C179.626 103.111 180.35 101.165 181.025 99.2195C181.314 98.3439 181.652 97.517 181.941 96.6413C182.086 96.1549 182.472 95.4252 182.472 94.9388C182.472 94.7929 182.857 94.2578 182.857 94.2578C183.34 94.2578 183.581 94.3064 183.918 93.9659C184.497 93.3822 184.401 93.2362 185.317 93.1876C185.317 93.1876 185.413 92.993 185.462 92.8957C185.606 92.7011 187.198 93.82 187.053 92.5552C187.053 92.5552 187.728 92.2634 187.825 92.2634C188.307 91.7769 188.114 90.9986 188.21 90.4149C188.355 89.8311 188.5 89.5879 188.741 89.1501C189.271 88.1772 188.934 87.3016 188.21 86.6692C187.728 86.2801 187.198 85.8423 187.101 85.2586C186.957 84.6262 187.053 83.9938 186.619 83.4587C186.185 82.875 186.185 82.4858 185.992 81.7561C185.847 81.1724 185.51 81.0751 185.317 80.686C184.835 79.7617 184.883 78.6429 184.786 77.67C184.642 76.4053 184.642 75.0919 184.545 73.8271C184.352 72.3191 183.726 71.103 183.243 69.741C182.857 68.5249 182.423 67.3087 182.086 66.044C181.797 64.8279 181.797 63.5631 181.555 62.347C181.218 60.839 180.157 59.6716 179.482 58.3095C178.807 56.9475 178.565 55.3909 178.228 53.9315C177.89 52.4722 176.926 50.9642 176.878 49.4562C176.781 48.0942 176.444 47.3645 175.865 46.0998C175.19 44.7377 174.514 43.327 173.502 42.0623C172.537 40.7975 171.283 39.6787 170.078 38.5599C168.631 37.1492 166.027 36.2249 165.255 34.1332C164.821 32.9658 164.918 31.6037 164.339 30.4849C163.953 29.8039 162.121 28.6364 162.651 27.6149C163.085 26.8366 163.664 26.2528 164.001 25.3286C164.484 23.9665 164.628 22.7018 163.857 21.3884C163.326 20.5614 163.519 20.1723 163.471 19.2967C163.471 18.8589 163.326 18.3724 163.133 17.9346C162.555 16.4266 161.687 14.9673 160.626 13.7998C160.047 13.1188 159.034 12.681 158.166 12.3892C157.25 12.0973 156.285 12 155.273 12C153.536 12 152.379 12.9729 151.607 14.4322C150.739 16.1348 149.437 17.74 149.341 19.7345C149.341 20.8046 149.727 21.8262 149.968 22.8964C150.209 23.8692 149.968 24.7448 150.161 25.6204C150.257 25.961 150.788 26.4474 150.788 26.642C150.788 28.0527 151.222 29.2201 151.945 30.4849L152.042 31.6037C152.042 31.6037 148.473 32.4793 148.232 32.4793C146.688 32.7225 145.338 32.1874 143.891 33.063C143.12 33.5008 142.734 34.571 142.3 35.3493C141.094 37.4411 140.323 39.5814 139.889 41.965C139.599 43.5216 139.455 44.7864 138.683 46.1971C137.863 47.6564 137.863 49.4562 136.899 50.8183C135.259 53.0559 134.005 56.0719 133.378 58.7473C132.703 61.5201 131.835 64.2441 131.063 67.0169C130.485 68.8167 130.051 70.7139 129.327 72.4651C128.749 73.8271 128.7 74.7027 129.086 76.162C129.086 76.2593 128.459 77.4268 128.411 77.7187C128.266 78.3024 128.266 78.8375 128.074 79.4212L127.591 79.8104C126.53 80.7346 127.977 82.194 128.266 83.0209C128.459 83.5074 128.363 83.8479 128.652 84.3343C129.038 84.9667 129.424 85.9882 128.266 86.1341C127.832 85.6477 127.495 85.4531 127.254 86.1828C126.579 85.9882 126.048 85.4531 125.325 85.2586C124.601 85.1126 123.83 85.1126 123.299 84.6262C122.672 84.1397 121.852 83.0209 120.984 83.6046C120.84 83.7019 120.695 82.5831 120.695 82.5831C120.743 82.2426 121.804 83.3128 121.804 83.3128C122.19 83.3614 121.033 81.9507 120.984 81.9021C120.502 81.4156 120.261 80.9778 120.502 80.2968C120.406 80.6373 121.467 81.2211 121.756 81.4156L121.852 81.7075C121.852 81.7075 121.997 81.9507 122.142 82.048C122.286 81.4156 121.418 80.9292 121.226 80.3455C120.888 79.3726 120.357 78.7402 120.406 77.67C120.406 77.67 120.984 78.6916 121.033 78.7888C121.226 79.2266 121.611 79.3239 121.852 79.7131C122.094 80.0536 121.949 80.3941 122.238 80.7833C122.721 80.0536 122.045 79.3726 121.852 78.5943C121.611 77.67 121.081 77.0376 120.406 76.3566L119.827 75.3351C119.345 73.1461 118.236 69.8869 115.487 69.8869C114.088 69.8869 113.027 69.4005 111.773 70.1301C110.809 70.7139 109.989 71.5408 109.266 72.4164C108.205 73.8271 108.205 75.6756 107.722 77.3782C107.578 77.8159 107.192 78.1078 107.047 78.5456C106.999 78.8861 107.095 79.2266 107.095 79.5672C106.999 80.2482 106.469 80.9778 105.986 81.4643C105.552 81.9021 104.684 82.4372 104.925 83.1182C105.311 82.7777 105.938 82.1939 106.324 82.875C106.469 83.2155 104.877 84.8694 104.781 85.4045C104.781 85.6964 105.986 85.1126 106.131 84.9667C106.469 84.4802 106.131 84.0424 106.324 83.556C106.42 83.3128 107.288 84.0911 107.337 84.237C107.915 85.3072 106.661 86.2801 106.035 86.9611C105.166 87.934 104.057 88.4691 103.189 89.3933C102.514 90.0257 101.935 92.0201 100.874 92.0201C101.067 91.2418 101.019 90.4635 101.212 89.7338C101.598 88.4691 102.659 87.5448 102.321 86.1341C102.128 85.0153 101.308 83.8965 101.646 82.6804C101.791 82.1939 102.225 81.8048 102.225 81.2697C102.08 80.2968 101.646 79.7617 101.694 78.6429C101.839 77.67 102.032 76.5998 101.791 75.6269C101.598 74.9946 101.26 74.5568 101.308 73.8758C101.308 73.1461 101.694 72.5137 101.598 71.784C101.453 70.8598 101.116 70.0328 100.537 69.3032C99.9099 68.5735 99.0901 68.0384 98.8007 67.0655C98.222 64.8765 97.1129 62.8821 96.2448 60.7904C95.8108 59.7689 95.7143 58.6987 95.3767 57.6285C95.1356 56.7043 94.5087 55.78 93.93 55.0017C92.4832 53.2505 90.3613 52.6181 88.7699 51.0615C88.577 50.8669 88.2394 50.1373 88.3841 49.8454C88.7216 49.3589 89.2521 50.2832 89.5897 50.4291C90.1202 50.5751 90.6024 50.1373 90.1684 49.5535C89.9755 49.6508 89.7344 49.6995 89.5415 49.6995C89.5415 49.6022 89.8308 48.3374 89.9273 48.4833C90.0237 48.6779 90.1202 48.8725 90.2166 49.0184C90.506 48.6779 90.7471 48.1915 90.8436 47.705C90.94 47.2672 90.7953 46.8294 90.94 46.3916C90.5542 46.1971 89.3968 45.5647 89.3486 45.0296C89.2521 43.7162 90.5542 45.2242 90.8918 45.3701C90.8918 44.7377 90.6507 44.2513 90.2649 43.7162C89.7826 43.1325 87.95 41.9163 89.1075 41.0407C89.5415 41.3813 89.445 41.9163 89.445 42.4514C89.445 41.9163 90.0237 41.8191 89.8308 41.1867C89.7826 40.7975 89.5415 40.2624 89.3486 39.9219C89.2039 39.6787 89.3486 39.7273 89.1557 39.5328C88.8663 39.2409 88.3841 39.2409 88.2394 38.8517C88.0465 38.4139 88.3841 37.8789 88.2394 37.4411C88.0465 36.76 87.9018 36.2736 87.6125 35.6412C87.516 35.4466 87.1784 35.4466 87.1784 35.4466C87.3231 35.4466 86.021 32.6252 85.9246 32.4307C85.6352 31.9442 85.4423 31.4578 85.2012 30.9713C84.1885 29.2688 82.2112 28.9283 80.3787 28.8796C79.8482 28.8796 79.2695 28.685 78.6908 28.7823C78.0156 28.9283 77.8227 29.4147 77.2922 29.8039C76.8582 30.0957 76.376 30.2903 75.9419 30.6795C75.4597 31.0686 75.5561 31.6037 75.2185 32.0902C74.881 32.6252 74.254 32.7225 73.8682 33.1603C73.4824 33.5981 73.5307 34.3764 73.0484 34.7656C72.6144 35.0575 72.4215 34.8629 72.2768 35.4466C72.1804 35.8358 72.1804 36.0304 72.2768 36.3709C72.5179 36.2736 72.6626 35.7871 72.5179 35.5439C73.0966 36.1763 73.0966 36.3222 72.4215 36.76C71.5052 37.4411 72.5179 37.9761 72.1803 38.8031C72.0357 39.1436 71.7945 39.2409 71.7463 39.6787C71.6981 40.0679 71.891 40.5057 71.7463 40.8948C71.7463 40.8948 70.83 41.3813 70.6854 41.4299C70.2513 41.6245 69.6244 41.6245 69.8173 42.3055C69.6244 41.6245 70.8783 41.6731 71.0229 42.3541C71.0229 42.6947 70.5889 42.7433 70.5889 42.9865C70.4925 43.327 71.0712 43.9108 71.2641 44.154C71.5052 44.3972 72.2768 44.9323 71.6016 45.1755C71.2641 45.3215 71.1194 44.9323 71.1194 44.7864C71.1194 44.6891 71.0229 44.5918 70.9265 44.4945C70.4442 44.9809 71.1194 45.5647 71.2641 46.0025C71.3123 46.1484 71.6016 46.3916 71.5052 46.6349C71.3605 46.8294 70.9265 46.7808 70.9265 46.8294C70.8783 46.9754 70.7818 47.0727 70.7336 47.1699C70.83 47.4618 71.1194 47.5591 71.4087 47.4618C71.4087 47.705 71.2641 47.9969 71.0712 48.1428C70.9265 48.1915 70.5407 47.851 70.4442 47.7537C70.3478 47.705 70.2996 48.4833 70.2996 48.532C70.2996 48.8239 70.6371 48.9698 70.6854 49.213C70.7818 49.5049 70.7818 49.7481 70.4925 49.9427C70.2996 50.0886 69.2868 49.6508 69.0457 49.5049C69.2386 49.6022 69.2386 50.7696 69.6244 51.0129C69.8173 51.1588 71.3123 51.3047 71.2158 50.7696C71.457 52.1803 69.3833 51.5966 68.5152 52.1317C67.3578 52.8127 66.0557 53.9802 65.1877 55.099C64.2714 56.2665 63.7409 57.7744 63.2587 59.2338C62.7282 60.8877 62.3906 62.5416 62.1013 64.2928C61.9084 65.4116 61.8601 67.1142 61.3296 68.1357C61.3296 68.1357 58.629 75.6756 58.629 75.7729C58.2432 76.9403 57.9539 78.1565 57.6645 79.3726C56.9411 81.6589 56.0249 83.9938 55.5908 86.3774C55.3979 87.4962 54.8192 88.7123 54.2405 89.7338C53.9029 90.2203 52.3597 92.2634 51.5881 91.4364C51.1059 90.95 51.0576 89.5879 50.8647 89.0042C50.6236 88.1772 50.286 87.3016 50.1896 86.4747C50.1414 85.745 50.5272 85.3072 50.6236 84.5775C50.8165 83.7019 50.5272 82.9236 50.3825 82.1453C50.1896 80.7346 50.3343 79.3726 50.2378 78.0105C50.1414 76.5998 49.9967 75.1405 49.7556 73.7298C49.3698 71.4435 48.6464 69.2545 47.9712 67.0655C47.5372 65.6062 46.9585 64.1955 46.3316 62.7848C45.8011 61.666 45.3671 60.4985 44.5955 59.5256C43.9685 58.6987 42.7147 58.2609 42.3289 57.2393C41.9431 56.3151 42.0395 55.2936 41.3161 54.6125C40.5445 53.8829 40.1105 52.1317 38.9531 51.9857C38.8566 51.1588 39.146 50.4778 39.4353 49.7481C40.0141 48.2888 39.6765 46.7321 39.4836 45.2242C39.2424 43.8621 38.9531 42.5487 38.6637 41.1867C38.3262 39.776 37.8439 38.4626 37.0241 37.2465C36.5901 36.5655 34.8539 36.079 34.1306 35.9331C32.8285 35.5439 32.298 36.0304 31.1888 36.6141C30.2243 37.1492 29.3563 37.0519 28.3435 36.8573C27.4272 36.7114 26.945 38.0248 26.8485 38.7058C26.7521 39.095 26.7521 39.4355 26.511 39.7273C26.2698 40.0192 25.7876 40.1165 25.6911 40.5543C25.5465 41.2353 26.1252 41.8677 26.4145 42.5001C26.945 43.9108 26.8485 45.8079 26.8968 47.3645C26.9932 48.6779 26.6074 50.0886 27.5719 51.2074C27.9577 51.6939 26.8003 53.4451 26.4145 53.8342C25.3053 54.8071 23.6657 55.099 22.4118 55.6341C20.2899 56.5583 20.531 59.1365 19.9523 61.0336C19.7594 61.8119 19.0843 62.3957 18.6985 63.028C18.2162 63.7091 18.0233 64.536 17.6857 65.3143C17.3964 66.044 16.9623 66.6764 16.7212 67.4547C16.1425 69.3518 15.3227 71.103 14.7922 73.0001C14.5511 73.7785 14.4064 74.6541 14.2135 75.481C14.117 76.0161 14.0206 76.8917 13.683 77.3295C13.3937 77.67 12.6221 80.54 12.6221 80.54L11.5611 87.3503C11.2235 89.3447 10.5484 91.2905 10.0179 93.2362C9.53564 95.1334 9.29451 97.0792 9.05339 99.0249C8.81226 100.63 9.00516 102.771 8.28178 104.23C7.70308 105.495 6.40099 107.538 7.31727 108.997C7.79953 109.775 8.76403 110.116 9.43919 110.7L8.95693 110.116ZM159.758 115.661C159.95 114.543 160.192 113.424 160.577 112.354C161.349 109.921 162.169 107.489 162.313 104.96C162.41 103.743 162.169 102.479 162.41 101.263C162.506 100.533 162.796 99.8519 162.844 99.1222C162.844 98.6844 162.748 98.198 162.892 97.7602C162.989 97.5656 163.76 97.0792 163.76 97.0792C163.664 93.7227 163.616 90.2689 164.001 86.9611C164.146 85.745 164.677 84.7235 165.014 83.556C165.545 81.9507 165.738 80.2968 165.786 78.5943C165.834 75.2864 166.75 71.93 167.184 68.6222C167.281 67.6493 167.377 66.6764 167.377 65.6062C167.377 64.4874 168.004 62.4443 168.824 61.6173C169.161 61.2282 169.403 60.7417 169.788 60.4499C170.03 60.158 171.38 63.1253 171.476 63.4172C171.573 64.2441 171.476 65.5575 172.489 65.8981C173.55 66.2386 173.695 67.8438 173.695 68.7194C173.695 69.8869 173.839 70.7625 174.563 71.6868C175.141 72.5624 176.009 73.1947 176.588 74.119C176.878 74.5081 176.974 74.9946 177.263 75.481C178.662 77.67 179.868 79.6644 180.253 82.3399C180.494 84.0911 180.302 85.6477 180.253 87.4476C180.157 88.4204 180.35 89.296 180.35 90.2203C180.35 90.9986 180.06 91.9715 180.494 92.6525C180.784 93.139 181.363 93.139 181.218 93.82C180.784 95.6685 180.109 97.4197 179.289 99.1222C178.71 100.338 177.794 101.603 177.504 102.916C177.119 104.57 176.733 106.273 175.913 107.781C175.479 108.559 174.514 109.192 174.37 110.165C174.225 110.846 174.563 111.478 174.563 112.208C174.563 113.132 173.695 113.618 173.357 114.397C173.116 115.126 173.02 115.905 172.682 116.537C172.103 117.753 171.476 118.872 171.042 120.137C170.801 121.012 170.656 121.888 170.415 122.715C169.788 122.569 169.161 122.52 168.631 122.18C167.425 121.353 166.413 120.526 165.545 119.358C164.773 118.337 163.953 117.218 162.796 116.537C161.976 116.099 161.156 116.002 160.24 116.002C160.095 116.002 159.95 116.002 159.854 116.002C159.854 115.856 159.854 115.71 159.902 115.564L159.758 115.661ZM111.773 139.303C112.738 137.795 112.304 135.897 112.497 134.244C112.497 133.562 112.834 132.979 112.883 132.346C112.979 131.422 112.786 130.449 112.834 129.476C112.834 129.233 112.786 127.822 113.075 127.628C113.413 127.482 113.461 128.503 113.461 128.649C113.654 130.547 113.799 132.541 113.461 134.438C113.365 135.362 113.124 136.238 112.883 137.114C112.593 137.94 112.786 138.524 113.075 139.303C113.461 140.324 112.834 141.2 113.027 142.221C113.124 142.756 113.365 143.778 112.931 144.167C111.822 145.14 112.063 142.756 111.966 142.464C111.773 141.929 111.291 141.492 111.146 140.956C110.954 140.275 111.436 139.838 111.773 139.254V139.303ZM93.5442 77.9132L94.364 78.7402L94.9427 79.178L95.5696 79.9563C95.5696 79.9563 95.2803 80.3455 95.2803 80.6373C95.2803 80.9292 95.2803 81.1724 95.2803 81.3184C95.2803 81.5129 95.5214 81.9507 95.5214 81.9507L96.1001 82.5345L95.6179 83.8479V84.7235L95.6661 85.6964C95.6661 85.6964 95.7625 86.572 95.6661 86.7665C95.6179 86.9125 95.0874 87.1557 95.0874 87.1557L94.3158 86.3774L94.0747 83.6046C94.0747 83.6046 94.1711 81.1724 94.0747 80.8805C93.9782 80.5887 93.4477 79.1293 93.4477 78.9348C93.4477 78.7402 93.496 77.8159 93.496 77.8159L93.5442 77.9132ZM77.7745 116.391L78.4014 116.099L78.5943 116.634C78.9801 117.413 78.8837 118.337 78.8354 119.164C78.8354 119.407 78.8837 121.742 78.8837 121.742C78.6425 121.888 78.4014 121.936 78.1603 122.034C78.1121 122.034 77.8227 119.164 77.7745 118.921C77.7745 118.629 77.4851 116.488 77.7745 116.342V116.391Z" fill="#BFBFBF"/>
</g>
</svg>
