<svg width="196" height="160" viewBox="0 0 196 160" fill="none" xmlns="http://www.w3.org/2000/svg">
<rect width="196" height="160" rx="20" fill="#F8F8F8"/>
<rect x="0.5" y="0.5" width="195" height="159" rx="19.5" stroke="black" stroke-opacity="0.1"/>
<mask id="mask0_70_276" style="mask-type:alpha" maskUnits="userSpaceOnUse" x="0" y="0" width="196" height="160">
<rect width="196" height="160" rx="20" fill="#F8F8F8"/>
<rect x="0.5" y="0.5" width="195" height="159" rx="19.5" stroke="black" stroke-opacity="0.1"/>
</mask>
<g mask="url(#mask0_70_276)">
<path d="M153.677 79.176C153.272 77.5639 153.224 76.5229 152.772 74.6269C152.319 72.7309 152.092 73.3021 151.278 72.305C150.463 71.3114 150.058 70.1724 149.422 68.8476C148.79 67.5227 147.841 67.1882 146.982 66.6204C146.124 66.0526 145.988 64.9136 145.444 64.0146C144.9 63.1156 143.004 61.6454 142.007 60.9357C141.013 60.2259 140.922 60.1786 140.513 58.5192C140.108 56.8597 139.111 56.1973 138.026 55.0617C136.941 53.9261 136.397 54.0681 135.494 53.6389C134.592 53.2096 133.73 52.2667 132.554 51.2697C131.503 50.3808 129.37 48.2617 128.928 47.8224C128.901 48.0082 128.867 48.2212 128.816 48.4577C128.634 49.3094 128.424 50.5735 127.853 50.9858C127.282 51.3947 125.893 52.4695 125.714 53.6389C125.531 54.8082 124.899 55.2172 123.997 55.6599C123.091 56.1027 122.52 56.5454 121.827 56.417C121.134 56.2919 121.043 56.5116 119.988 55.0583C118.934 53.6051 118.028 52.4999 118.028 52.4999C118.028 52.4999 116.068 51.7428 115.044 51.5198C114.02 51.3001 113.536 50.952 112.512 50.7289C111.488 50.5092 110.434 50.3504 110.434 50.3504C110.434 50.3504 109.471 49.9076 108.957 49.1202C108.443 48.3293 108.325 48.0792 107.933 47.5418C107.541 47.0045 107.118 47.1633 107.933 45.6796C108.747 44.1959 108.866 44.1621 109.079 44.3548C109.288 44.544 109.531 44.6082 109.531 45.3653C109.531 46.1224 109.41 46.6902 109.863 46.9774C110.316 47.2613 111.008 47.2309 111.522 47.4506C112.036 47.6703 114.084 48.3361 114.658 48.7146C115.23 49.0931 116.737 49.8502 117.041 50.516C117.342 51.1784 117.964 52.1281 118.241 52.1281C118.518 52.1281 119.272 51.3069 119.934 51.5603C119.934 51.5603 119.725 50.8641 120.657 49.7927C121.594 48.718 121.259 48.1806 123.158 46.6023C123.73 46.1291 124.213 45.6593 124.615 45.2369C124.345 44.9699 123.858 44.3784 123.544 43.6991C123.182 42.9184 122.729 41.9923 122.053 40.8331C121.374 39.6739 120.674 39.0081 120.11 38.2983C119.546 37.5886 119.116 37.352 118.843 36.8991C118.569 36.4462 118.075 35.7635 117.44 34.8375C116.808 33.9148 116.693 33.8912 116.355 33.4146C116.017 32.9415 115.02 32.279 115.02 32.279C115.02 32.279 115.203 31.6166 115.247 31.3327C115.29 31.0488 114.75 30.0079 113.8 30.0079C112.85 30.0079 112.806 30.3391 112.806 30.3391C112.806 30.3391 112.806 28.2538 112.942 27.0709C113.077 25.888 113.212 23.093 113.168 21.8594C113.124 20.6258 113.259 19.916 112.262 18.7804C111.269 17.6449 112.036 17.8814 111.901 16.8844C111.765 15.8908 111.718 16.5059 110.86 15.4142C110.001 14.326 111.13 14.7045 109.592 13.5182C108.054 12.3353 108.19 12.6192 106.926 12.0987C105.662 11.5783 105.797 11.0578 104.756 10.7266C103.715 10.3954 102.765 10.1115 101.636 10.0168C100.508 9.92219 99.105 10.2534 97.8849 10.348C96.6648 10.4427 95.6239 10.9158 94.539 11.5783C93.4541 12.2407 92.234 13.0957 90.8314 14.0894C89.4288 15.083 87.3943 18.0673 87.3943 18.0673C87.3943 18.0673 86.8974 20.4365 86.671 21.9033C86.4445 23.3735 86.5797 26.0705 86.5797 26.689C86.5797 27.3075 87.2117 29.7679 87.2117 29.7679C86.5324 28.4431 85.3563 28.5377 85.042 29.2474C84.7243 29.9572 84.6803 30.9069 85.0859 32.421C85.4915 33.9351 85.4036 33.7458 85.9917 36.115C86.5797 38.4842 88.1614 38.2949 88.1614 38.8154C88.1614 39.3359 88.7935 41.2319 89.0672 42.1309C89.3376 43.0299 89.5201 43.9796 89.2937 45.2572C89.1449 46.0953 88.9962 46.609 88.7597 47.0214C88.8678 47.3898 89.0469 47.8866 89.4018 48.5862C90.1251 50.0158 89.8851 49.6271 90.6996 50.4484C91.5141 51.2697 93.6839 53.4158 94.8601 54.3317C96.0362 55.2476 97.3306 55.5011 98.5068 55.8492C99.6829 56.1973 98.9901 56.3224 98.9901 56.3224C98.9901 56.3224 97.8139 56.3528 96.9115 56.3528C96.0092 56.3528 95.0426 56.1939 94.3497 55.9438C93.6569 55.6903 93.2648 55.9134 93.2648 55.9134C92.2104 56.4812 91.5783 56.7347 92.2104 56.8293C92.8424 56.9239 92.7545 57.2383 93.4777 57.9041C94.201 58.5665 94.3531 58.6003 95.4988 59.3573C96.6445 60.1144 96.7966 60.7768 97.4591 61.3142C98.1215 61.8516 97.3678 62.0408 97.3374 62.4836C97.307 62.9263 97.0366 63.4299 96.8541 64.7886C96.6716 66.1472 96.6141 70.2536 96.7628 71.4534C96.9149 72.6532 97.0332 79.0949 97.0028 80.8963C96.9724 82.6977 96.7324 91.2247 96.6107 92.0122C96.4891 92.803 96.4891 101.266 96.3708 102.341C96.2491 103.415 95.6475 111.087 95.5259 112.385C95.4042 113.68 95.4954 118.195 95.8875 118.702C96.2795 119.209 96.9115 119.712 96.9115 119.712V125.904L101.282 129.977L105.29 125.681C105.29 125.681 105.381 121.828 105.381 120.598C105.381 119.368 104.658 110.019 104.78 107.87C104.901 105.724 104.266 96.5951 104.266 94.6382C104.266 92.6814 103.695 79.8587 103.664 76.9217C103.634 73.9848 103.12 69.8784 102.88 67.543C102.64 65.2076 101.133 63.3116 101.072 62.0172C101.011 60.7227 101.373 60.7227 102.066 59.8373C102.758 58.9518 102.336 58.1305 104.175 57.343C105.121 56.9375 105.837 57.049 106.223 57.1943C105.526 56.7178 104.087 55.785 103.603 55.6363C103.09 55.4774 102.728 55.9202 101.704 56.1736C100.68 56.4271 99.8958 56.1736 99.6829 56.1094C99.4734 56.0452 99.9533 55.856 100.859 55.5721C101.765 55.2882 102.758 54.4365 103.783 53.5206C104.807 52.6047 106.736 49.9212 107.068 48.941C107.399 47.9609 107.429 47.4878 107.943 48.0251C108.457 48.5625 108.335 50.6782 108.335 50.6782C108.335 50.6782 107.791 52.7297 107.764 54.0884C107.733 55.447 107.973 58.1001 107.973 59.4249C107.973 60.7498 107.882 62.6458 107.791 66.6271C107.7 70.605 107.068 74.0186 106.976 76.1005C106.885 78.1858 107.791 86.3343 107.608 88.4162C107.426 90.5014 108.423 96.2808 108.24 98.7446C108.058 101.208 109.687 104.619 110.772 108.978C111.857 113.338 113.303 118.546 113.756 122.906C114.209 127.266 117.734 133.897 117.734 133.897C117.734 133.897 115.473 135.127 113.394 135.222C111.316 135.317 110.681 135.127 109.055 135.79C107.426 136.452 105.077 137.686 102.542 137.97C100.007 138.253 99.6491 138.916 96.9352 138.727C94.2213 138.537 93.6805 138.632 91.7811 139.484C89.8817 140.335 87.5294 139.484 87.5294 139.484C88.0432 138.253 89.3072 129.977 89.608 128.398C89.9088 126.82 90.9328 118.671 90.9328 117.282C90.9328 115.893 91.896 107.65 91.9569 106.575C92.0177 105.501 91.4127 97.8287 91.4127 96.3754C91.4127 94.9221 90.5678 87.5645 90.507 85.6042C90.4461 83.6474 89.5438 78.5305 89.3917 77.3611C89.2396 76.1917 88.6076 69.4661 88.3068 68.077C88.006 66.688 87.8539 62.5174 87.5531 60.5301C87.2523 58.5394 87.0394 54.94 87.0394 53.4226C87.0394 51.9051 87.2793 50.516 87.2929 49.5933C87.1374 49.911 86.9616 50.2051 86.7555 50.4247C86.0762 51.1345 84.5857 51.6076 83.9976 51.7496C83.4096 51.8915 82.007 52.1754 80.3813 52.554C78.7523 52.9325 77.397 53.8788 75.8153 54.45C74.2336 55.0178 73.2839 55.3017 72.0638 55.8695C70.8438 56.4373 69.8468 56.8631 67.7682 57.5762C65.6897 58.286 65.2368 58.9011 64.5136 58.8064C63.7903 58.7118 63.7464 59.8001 63.4287 60.9391C63.111 62.078 63.2022 62.4565 63.2022 64.1126C63.2022 65.7687 62.6142 65.8194 62.3438 66.6711C62.0734 67.5227 62.3877 68.8983 62.8406 70.6963C63.2935 72.4977 63.2462 72.2138 62.7054 72.9235C62.1613 73.6333 62.479 73.9645 62.5229 75.5293C62.5668 77.0941 61.9348 78.6555 61.3941 79.9364C60.8499 81.214 60.9885 80.9301 61.2589 81.6432C61.5293 82.353 61.6205 82.5895 60.8533 82.8261C60.0861 83.0627 59.9036 84.1036 60.3565 85.4319C60.8094 86.7567 61.2149 86.5675 61.3501 87.8011C61.4853 89.0313 60.7621 89.2712 60.4444 90.9273C60.1267 92.5867 60.0388 94.8106 60.0388 95.7603C60.0388 96.71 58.7714 97.9875 58.545 99.7855C58.3185 101.587 58.7275 101.965 58.7714 103.811C58.8153 105.659 58.2746 107.221 58.0482 108.029C57.8217 108.833 57.7305 109.83 58.1833 110.918C58.6362 112.007 58.3185 112.53 58.2273 113.524C58.136 114.518 58.0448 114.896 58.0448 116.177C58.0448 117.458 57.5006 119.966 57.2776 121.247C57.0511 122.524 56.8247 124.042 56.7808 125.985C56.7368 127.928 56.5104 128.969 56.3752 130.629C56.24 132.288 55.9696 136.503 55.9696 137.784C55.9696 139.065 56.0136 141.194 56.1521 143.421C56.2873 145.648 56.0609 145.459 56.0609 146.453C56.0609 147.446 55.5167 150.005 56.0169 150.099C56.5138 150.194 56.7402 150.289 56.7402 150.289C56.7402 150.289 56.7402 150.309 56.7436 150.343C56.9835 150.322 57.2573 150.289 57.5682 150.224C59.738 149.782 62.3303 150.224 63.8984 150.224C65.0678 150.224 65.4633 150.451 65.612 150.66C65.6998 150.583 65.8283 150.546 66.0074 150.573C67.2748 150.762 67.0585 149.91 67.0585 149.91C67.0585 149.91 67.366 149.437 67.5452 147.541C67.7277 145.645 67.5452 144.793 67.6364 142.235C67.7277 139.676 68.1805 134.654 68.1805 134.654L68.9951 129.064C68.9951 129.064 68.9038 137.591 68.9038 139.96C68.9038 142.329 68.3597 145.266 68.2718 147.352C68.1805 149.437 67.3221 153.415 67.143 154.932C67.1024 155.26 67.0821 155.652 67.072 156.061C67.0551 156.663 67.0652 157.308 67.0821 157.863C66.6664 156.085 66.2642 154.321 66.0953 153.584C65.5748 153.604 64.7163 153.587 63.4219 153.952C61.6509 154.449 58.6937 154.591 56.9261 154.632C56.8585 155.253 56.747 156.21 56.747 156.21C56.747 156.21 56.2941 158.532 56.0676 159.383C55.8412 160.235 56.338 161.28 56.747 162.131C57.1525 162.983 57.8758 162.936 57.9231 163.601C57.967 164.264 59.0519 164.926 59.4169 164.974C59.7819 165.021 59.6434 165.873 59.6434 165.873C59.6434 165.873 59.5994 168.289 59.5994 169.519C59.5994 170.749 59.4169 171.463 59.1939 172.787C59.0587 173.575 58.9269 175.532 58.6971 177.002C58.5416 178.009 58.3388 178.786 58.0651 178.803C57.3857 178.851 55.5776 180.747 55.5776 182.355C55.5776 183.964 54.0195 188.182 54.0195 188.182C54.0195 188.182 53.9756 190.93 54.0195 192.4C54.0635 193.87 54.7867 195.006 55.1044 195.999C55.4221 196.993 55.1044 198.321 55.1044 200.69C55.1044 203.06 56.1454 206.706 56.3718 208.413C56.5983 210.12 57.5919 216.751 58.4977 218.316C59.4034 219.88 62.6581 225.518 64.4223 227.6C66.1865 229.685 68.3124 233.048 69.6676 233.048C71.0229 233.048 74.3688 233.237 74.6426 233.095C74.913 232.953 75.3658 230.064 75.3658 229.543C75.3658 229.023 75.4098 217.843 75.3658 215.615C75.3219 213.388 74.4601 204.766 74.4161 202.586C74.3722 200.407 74.0106 196.902 73.8281 195.195C73.6456 193.488 72.1551 188.801 71.567 186.479C70.979 184.157 68.9004 177.053 68.7619 177.1C68.6267 177.147 67.9034 173.075 67.4066 171.179C66.9098 169.283 66.3656 166.63 66.5008 166.677C66.636 166.724 67.4505 166.866 68.1299 166.677C68.8092 166.488 68.4915 166.63 68.7179 165.778C68.9444 164.926 68.6267 163.929 68.1738 162.368C68.0251 161.854 67.7412 160.695 67.4235 159.363L69.4986 159.904C69.4986 159.904 69.4817 160.614 69.4986 161.327C69.5122 162.037 69.4986 165.007 69.4986 165.511C69.4986 166.015 69.6203 167.532 70.3436 170.31C71.0668 173.088 71.4285 173.088 71.9118 175.616C72.3951 178.144 72.9966 181.808 72.9966 184.333C72.9966 186.857 73.7199 191.028 74.237 193.049C74.7541 195.07 75.4098 197.598 75.4098 201.765C75.4098 205.932 76.373 207.325 75.5314 209.346C74.6865 211.367 76.2547 213.01 76.6163 215.031C76.978 217.052 76.133 217.43 75.8931 219.073C75.6531 220.715 75.2915 222.229 75.5314 224C75.7714 225.768 76.0147 224.886 76.6163 228.042C77.2179 231.199 76.6163 231.706 76.6163 234.863C76.6163 238.019 77.3396 241.683 77.4613 244.211C77.5829 246.739 78.1845 250.021 79.3911 254.066C80.5976 258.108 80.9593 257.476 81.6825 260.887C82.4058 264.297 81.6825 262.529 80.5976 264.804C79.5127 267.078 80.9593 266.446 81.0809 267.582C81.2026 268.717 78.9112 270.235 78.0662 271.12C77.2213 272.006 76.0147 275.795 74.9298 277.562C73.845 279.33 73.845 281.983 76.3764 283.625C76.8428 283.926 77.343 284.149 77.8736 284.311C80.2259 285.021 83.1257 284.453 85.7821 283.625C86.9617 283.26 87.8235 282.446 88.496 281.483C89.6789 279.789 90.2738 277.643 90.9666 276.677C92.0515 275.159 95.3332 269.559 94.9445 269.349C94.539 269.13 95.0797 267.582 95.0797 267.582C95.0797 267.582 96.5263 264.645 96.7966 262.985C97.067 261.326 96.9318 260.522 96.3438 256.544C95.7557 252.566 95.1676 250.906 94.9412 249.294C94.7147 247.682 94.3092 245.695 93.6738 244.367C93.0418 243.042 92.9066 240.007 93.0418 238.824C93.177 237.641 93.4034 236.691 93.5859 234.606C93.7684 232.521 93.9475 228.495 93.7211 227.356C93.4946 226.221 93.6772 224.277 93.9915 222.713C94.3058 221.148 93.0857 216.839 92.8153 215.085C92.5449 213.331 93.2209 212.526 93.8563 211.154C94.4883 209.779 94.4883 207.223 94.4883 207.223C94.4883 207.223 94.7587 205.091 94.9412 202.674C95.1237 200.258 95.2589 197.415 95.3028 195.141C95.3467 192.866 96.1612 192.109 96.9758 190.45C97.7903 188.79 97.8815 186.519 98.0606 184.008C98.2431 181.497 98.0167 180.361 98.7839 178.844C99.5511 177.326 99.5072 176.238 99.372 175.055C99.2368 173.872 100.186 171.409 100.186 172.402C100.186 173.396 100.278 173.825 101.092 175.481C101.907 177.141 101.859 177.235 101.907 179.128C101.951 181.024 102.042 182.301 102.268 184.718C102.495 187.134 103.58 189.646 104.665 190.734C105.75 191.822 105.57 193.15 105.57 193.15C105.57 193.15 106.25 196.986 106.429 199.119C106.608 201.251 107.47 204.425 107.47 204.425C107.47 204.425 108.737 206.51 109.143 208.592C109.548 210.678 110.724 214.324 111.042 215.842C111.36 217.359 111.901 218.684 111.313 221.384C110.724 224.085 110.907 224.416 111.313 226.975C111.718 229.533 112.668 238.249 112.668 238.249C112.668 238.249 113.212 241.423 113.029 243.461C112.847 245.499 112.938 247.249 112.215 250.328C111.492 253.407 112.215 253.786 112.62 256.675C113.026 259.565 113.435 259.944 114.476 261.65C115.517 263.357 115.517 262.124 115.517 264.919C115.517 266.47 115.561 267.278 115.814 267.835C116.017 268.281 116.355 268.569 116.919 268.947C118.187 269.799 119.677 271.033 120.583 271.506C121.489 271.979 121.398 272.547 123.885 275.294C126.373 278.042 128.451 278.799 131.165 279.036C133.193 279.211 135.173 278.62 136.515 277.718C136.968 277.413 137.346 277.072 137.634 276.714C138.151 276.065 138.465 275.446 138.58 274.804C138.654 274.588 138.681 274.378 138.627 274.172C138.614 273.604 138.448 273.006 138.127 272.351C137.313 270.691 134.149 268.704 132.429 267.092C130.712 265.48 128.813 264.817 128.721 264.155C128.63 263.492 128.133 262.164 128.36 260.603C128.586 259.038 129.31 256.814 129.266 254.54C129.222 252.265 128.272 251.319 127.275 250.704C126.281 250.088 127.048 248.24 127.048 248.24C127.048 248.24 127.545 246.77 127.954 244.498C128.36 242.224 128.948 239.381 129.083 237.82C129.218 236.255 129.715 234.173 129.762 231.568C129.806 228.962 129.218 228.441 129.083 226.545C128.948 224.649 128.948 220.719 128.857 219.532C128.765 218.349 128.177 216.643 128.089 213.706C127.998 210.769 127.41 207.926 127.231 206.696C127.048 205.466 127.231 203.807 126.373 201.437C125.514 199.068 125.967 195.09 126.102 193.147C126.237 191.204 126.734 191.724 126.781 190.683C126.825 189.642 126.917 188.125 126.917 186.563C126.917 185.002 127.234 174.579 127.278 173.771C127.322 172.967 127.684 170.787 128.184 168.654C128.681 166.521 128.681 158.751 128.816 157.379C128.951 156.007 128.951 154.064 128.951 154.064C130.127 155.105 131.892 154.632 132.703 154.064C133.517 153.496 136.41 150.654 137.722 149.467C139.033 148.285 141.747 145.679 142.017 145.06C142.288 144.445 142.109 143.401 141.25 141.035C140.392 138.666 139.259 134.688 138.671 132.745C138.083 130.801 137.36 127.296 136.546 125.4C135.731 123.504 134.964 120.473 134.602 118.769C134.241 117.066 134.737 117.347 134.284 116.495C133.832 115.643 133.605 114.22 132.973 112.943C132.341 111.665 131.932 109.627 131.344 107.637C130.756 105.646 131.253 105.315 130.712 103.564C130.168 101.81 129.762 101.1 129.762 99.3462C129.762 97.5921 129.671 96.9297 129.58 94.8917C129.489 92.8537 129.262 91.6708 129.083 89.9168C128.901 88.1627 128.539 83.2384 128.857 83.4277C129.174 83.617 130.574 83.9009 132.294 84.8979C134.011 85.8915 134.149 86.1281 135.008 86.4154C135.866 86.7026 135.866 86.3681 137.225 86.8412C138.58 87.3144 139.08 87.2197 140.436 87.8349C141.791 88.45 143.014 88.308 144.866 88.4026C146.722 88.4973 148.574 87.4563 150.382 86.7432C152.19 86.0335 153.14 84.8472 153.684 83.5223C154.228 82.1975 154.09 80.7746 153.684 79.1625L153.677 79.176Z" fill="#BFBFBF"/>
<path d="M114.293 35.0065C114.293 35.0065 114.716 35.4492 114.925 36.017C115.135 36.5848 115.226 37.0275 115.226 37.0275C115.226 37.0275 115.043 36.9329 114.594 36.7436C114.141 36.5544 113.661 36.7436 113.661 36.7436L114.293 35.0065Z" fill="#BFBFBF"/>
<path d="M111.553 43.5031C111.945 43.4085 112.516 43.03 112.486 42.523C112.455 42.016 112.276 41.7964 112.547 41.7964C112.817 41.7964 114.507 41.4482 115.44 42.2695C116.372 43.0908 115.923 42.7427 116.464 43.4997C117.008 44.2568 116.947 44.6049 116.224 45.9331C116.224 45.9331 115.47 45.7439 114.507 45.3958C113.544 45.0476 113.209 44.7638 112.547 44.6387C111.884 44.5137 111.401 44.3244 111.401 44.3244C111.401 44.3244 111.161 43.5978 111.553 43.5031Z" fill="#BFBFBF"/>
</g>
</svg>
