<svg width="196" height="160" viewBox="0 0 196 160" fill="none" xmlns="http://www.w3.org/2000/svg">
<rect width="196" height="160" rx="20" fill="#F8F8F8"/>
<rect x="0.5" y="0.5" width="195" height="159" rx="19.5" stroke="black" stroke-opacity="0.1"/>
<mask id="mask0_70_272" style="mask-type:alpha" maskUnits="userSpaceOnUse" x="0" y="0" width="196" height="160">
<rect width="196" height="160" rx="20" fill="#F8F8F8"/>
<rect x="0.5" y="0.5" width="195" height="159" rx="19.5" stroke="black" stroke-opacity="0.1"/>
</mask>
<g mask="url(#mask0_70_272)">
<path d="M128.928 31.7242C127.13 30.9857 126.761 29.2317 125.747 27.7546C124.687 26.2775 123.259 24.8466 121.461 24.385C119.433 23.8773 117.267 24.662 115.377 25.3082C112.98 26.0929 111.413 29.0932 110.722 31.355C110.307 32.7859 110.445 34.2168 110.169 35.6939C109.984 36.8478 109.616 37.9556 110.031 39.1096C110.307 39.802 110.768 40.4482 110.584 41.2329C110.445 41.7868 109.892 42.1099 109.662 42.5715C109.431 42.9869 109.385 43.4485 109.293 43.8639C109.063 44.7871 108.786 45.3871 107.864 45.8026C107.173 46.0795 105.652 47.095 105.744 47.972C105.652 46.6796 105.744 45.4333 106.297 44.2793C107.035 42.5715 106.85 40.2174 106.758 38.4634C106.666 36.4786 106.297 34.4476 105.468 32.6936C104.407 30.3856 102.564 28.4008 101.596 26.0468C101.043 24.4774 100.536 22.8157 99.3375 21.7079C97.4478 20.0923 94.7284 20 92.4239 20C89.428 20.0462 86.4782 20.5077 83.8511 21.8925C79.4725 24.2004 79.242 29.5548 77.6749 33.6167C76.8914 35.74 76.1078 37.8172 75.2321 39.8943C74.3103 41.9714 73.3885 44.0024 72.651 46.1257C71.8214 48.7567 71.9136 51.6185 71.0379 54.2034C70.1621 56.8806 68.8716 59.327 67.9498 61.958C67.1663 64.2659 66.5671 66.6662 65.7835 68.9741C65.3226 70.2204 65 71.282 65 71.5128C65 71.7436 65.507 71.5128 65.5531 70.9589C65.7835 69.4818 66.7514 68.0048 67.3045 66.6662C67.6272 65.7892 68.2724 64.866 68.3185 63.9428C68.3646 63.4351 69.563 61.681 69.563 61.681C68.2724 67.4509 67.6733 73.4053 66.2905 79.1751C65.7835 81.2984 64.9539 83.5601 65.5992 85.7296C65.9218 86.8374 66.7514 87.6682 67.0741 88.7299C67.7654 90.9916 66.521 93.3919 66.3827 95.6536C66.3827 95.8383 66.1984 98.4232 66.3827 98.4693C66.6132 98.4693 66.8897 98.4693 67.1202 98.4693C67.1663 98.4693 66.9819 95.2844 66.9819 94.9613C67.0741 93.7612 67.3506 92.561 68.3185 91.7763C68.3185 91.9148 68.4107 93.2073 68.5029 93.2073C68.9177 93.2073 69.2864 93.2534 69.7012 93.2996C69.7012 92.6995 69.7012 91.8225 70.2543 91.4532C70.5309 92.1918 70.3465 93.2534 70.4848 94.0843C70.6691 95.0997 71.4988 95.8383 71.7292 96.8538C72.0058 97.9616 71.8214 99.0694 71.8214 100.177C71.8214 100.5 73.0198 100.639 73.2963 100.685C73.5268 99.3463 73.5268 97.9616 73.3885 96.5768C73.3885 96.2537 73.3885 93.9458 73.1119 93.8073C74.4025 94.6382 75.7391 95.5613 77.1679 96.2537C77.8132 96.5307 78.6428 96.8076 79.1498 97.3615C80.9013 99.3002 78.9655 102.947 77.6749 104.516C77.214 105.024 76.6609 106.085 77.8593 105.578C79.3803 104.931 80.1177 102.67 80.4404 101.193C80.5325 100.916 80.9934 98.4232 81.3622 98.4693C82.284 98.5616 83.2519 98.7001 84.2198 98.8386C84.7729 98.8847 85.833 98.7463 86.2478 99.2078C86.6165 99.6233 86.4321 100.731 86.4782 101.285C86.5704 102.208 86.6626 103.131 86.8469 104.054C87.3079 106.316 87.8609 108.578 88.4601 110.794C89.0132 112.871 89.7507 114.948 89.9811 117.117C90.0733 118.04 89.8428 119.01 90.1655 119.887C90.3037 120.302 90.5342 120.625 90.949 120.856C91.0873 120.995 91.963 121.318 92.0091 121.456C91.9169 123.949 92.0091 126.534 91.6865 128.98C91.3177 131.103 90.3959 133.088 89.6124 135.073C87.2618 140.75 88.0453 147.074 88.2758 153.029C88.414 155.06 88.6445 157.137 88.4601 159.168C88.3218 161.014 87.6305 162.768 86.8469 164.43C86.2478 165.676 86.2478 167.153 86.4782 168.492C86.6626 169.876 87.5383 170.984 88.7828 171.538C89.8428 172.046 90.9029 171.861 92.0091 171.769C93.0231 171.769 93.6223 171.907 94.4519 172.415C95.0972 172.831 95.7424 172.923 96.4338 172.969C97.8626 173.107 99.1992 172.784 100.398 171.954C101.412 171.215 102.61 169.876 102.057 168.492C101.504 167.061 99.3836 166.922 98.1391 166.461C97.1252 166.091 96.2955 165.353 96.2033 164.199C96.1573 163.276 97.033 161.891 95.9729 161.291C95.6963 161.152 95.2815 161.199 95.0511 160.968C94.4519 160.275 94.6824 158.014 94.6824 157.183C94.7745 155.613 95.0972 154.09 95.6963 152.659C96.3416 151.044 96.6182 149.567 96.9869 147.905C97.5861 144.72 98.2774 141.581 99.1071 138.489C100.075 134.888 101.227 131.334 101.826 127.734C102.149 125.98 101.642 119.979 104.684 120.672C105.652 120.902 106.666 120.672 107.542 120.395C108.095 120.21 108.463 119.933 108.924 120.302C109.524 120.81 110.077 122.333 110.261 123.118C110.63 124.272 110.722 125.564 110.445 126.764C110.261 127.918 109.708 129.026 109.477 130.226C108.832 133.642 109.385 137.058 109.754 140.52C110.031 143.105 109.892 145.643 109.754 148.182C109.708 150.028 110.169 151.551 108.924 153.075C108.556 153.582 108.325 154.136 108.141 154.736C107.68 156.029 107.588 157.506 107.68 158.845C107.772 159.629 108.233 160.691 108.786 161.245C109.8 162.26 111.644 162.214 112.98 161.937C114.916 161.568 115.838 160.045 117.128 158.752C118.05 157.829 118.972 158.106 120.032 157.644C120.677 157.321 121.369 156.721 121.784 156.121C123.12 154.136 123.259 149.705 120.217 149.197C119.064 149.013 117.82 149.567 116.668 149.705C116.114 147.536 116.299 145.274 116.76 143.104C117.497 139.689 118.096 136.227 118.742 132.857C119.249 130.18 119.663 127.457 119.756 124.733C119.756 123.164 119.756 121.549 119.663 119.933C119.571 118.548 119.203 117.117 119.479 115.733C119.617 115.086 120.032 114.486 120.309 113.886C120.585 113.24 120.539 112.686 120.539 111.994C120.539 107.932 119.94 103.87 119.064 99.9002C118.972 99.531 118.88 99.1617 118.834 98.8386C118.235 96.4383 117.359 94.0381 117.866 91.6379C118.327 89.2376 119.986 87.2528 120.862 85.0372C123.259 78.9443 121.553 72.2975 121.507 65.9738C121.507 64.7275 121.184 63.2043 121.83 62.0503C122.152 61.4964 122.798 61.3118 123.166 60.7579C123.719 60.0193 123.443 59.05 123.212 58.2653C122.89 57.3422 122.613 56.419 122.383 55.4497C122.152 54.1572 122.291 52.7725 121.784 51.5262C121.323 50.5107 120.401 49.7722 120.078 48.7105C119.617 47.3258 121.415 47.7874 122.198 47.6489C123.351 47.4643 122.844 46.4026 123.212 45.4794C123.535 44.6948 123.673 44.6024 123.12 43.8177C124.226 43.7254 124.503 43.2638 124.687 42.2484C125.194 42.2022 125.655 42.1099 126.116 41.8791H126.024C126.531 41.4637 126.162 40.4482 126.301 39.8481C126.439 39.0173 127.268 38.648 127.222 37.7248C128.236 37.8633 129.988 37.9095 131.002 37.5402C132.154 37.0786 132.016 35.6015 131.97 34.5399C131.97 32.6936 130.495 32.5551 129.112 31.955L128.928 31.7242ZM114.64 78.7597L114.363 81.9446C114.363 81.6215 114.317 79.729 113.948 79.1289C112.98 77.3749 113.395 75.2516 113.718 73.3591C113.948 72.0205 113.902 70.4512 114.363 69.2049C114.455 70.2665 114.64 71.3282 114.64 72.3898C114.64 72.7591 114.64 74.0515 114.64 75.2055C114.732 76.3594 114.64 78.7597 114.64 78.7597Z" fill="#BFBFBF"/>
</g>
</svg>
